Questrial.glyphspackage
{
glyphname = exclam;
layers = (
{
hints = (
{
place = (62,97);
type = Stem;
},
{
place = (73,74);
type = Stem;
},
{
horizontal = 1;
place = (0,102);
type = Stem;
},
{
horizontal = 1;
place = (662,-20);
target = down;
type = TopGhost;
}
);
layerId = UUID0;
shapes = (
{
closed = 1;
nodes = (
(138,183,l),
(157,662,l),
(64,662,l),
(83,183,l)
);
},
{
closed = 1;
nodes = (
(159,0,l),
(159,102,l),
(62,102,l),
(62,0,l)
);
}
);
width = 221;
}
);
unicode = 33;
}
{
glyphname = quotedbl;
kernLeft = quotesingle;
kernRight = quotesingle;
layers = (
{
hints = (
{
place = (47,223);
type = Stem;
},
{
horizontal = 1;
place = (443,219);
type = Stem;
}
);
layerId = UUID0;
shapes = (
{
closed = 1;
nodes = (
(117,443,l),
(136,662,l),
(47,662,l),
(66,443,l)
);
},
{
closed = 1;
nodes = (
(251,443,l),
(270,662,l),
(181,662,l),
(200,443,l)
);
}
);
width = 317;
}
);
unicode = 34;
}
{
glyphname = numbersign;
layers = (
{
hints = (
{
place = (45, 491);
place = (45, 491);
type = Stem;
},
{
horizontal = 1;
place = (168, 65);
place = (168, 65);
type = Stem;
},
{
horizontal = 1;
place = (377, 65);
place = (377, 65);
type = Stem;
}
);
layerId = UUID0;
shapes = (
{
closed = 1;
nodes = (
(193,25,l),
(213,168,l),
(329,168,l),
(309,25,l),
(374,25,l),
(394,168,l),
(506,168,l),
(506,233,l),
(403,233,l),
(423,377,l),
(536,377,l),
(536,442,l),
(432,442,l),
(453,585,l),
(388,585,l),
(367,442,l),
(251,442,l),
(272,585,l),
(207,585,l),
(186,442,l),
(75,442,l),
(75,377,l),
(177,377,l),
(157,233,l),
(45,233,l),
(45,168,l),
(148,168,l),
(128,25,l)
);
},
{
closed = 1;
nodes = (
(242,377,l),
(358,377,l),
(338,233,l),
(222,233,l)
);
}
);
width = 581;
}
);
unicode = 35;
}
{
glyphname = dollar;
layers = (
{
hints = (
{
place = (63,73);
type = Stem;
},
{
place = (298,37);
type = Stem;
},
{
place = (516,75);
type = Stem;
},
{
horizontal = 1;
place = (-8,71);
type = Stem;
},
{
horizontal = 1;
place = (600,70);
type = Stem;
},
{
horizontal = 1;
place = (599,70);
type = Stem;
},
{
horizontal = 1;
place = (-7,70);
type = Stem;
}
);
layerId = UUID0;
shapes = (
{
closed = 1;
nodes = (
(279,-87,l),
(345,-87,l),
(345,746,l),
(279,746,l)
);
},
{
ref = S;
}
);
width = 615;
},
{
associatedMasterId = UUID0;
hints = (
{
place = (63,73);
type = Stem;
},
{
place = (298,37);
type = Stem;
},
{
place = (516,75);
type = Stem;
},
{
horizontal = 1;
place = (-8,71);
type = Stem;
},
{
horizontal = 1;
place = (600,70);
type = Stem;
},
{
horizontal = 1;
place = (599,70);
type = Stem;
},
{
horizontal = 1;
place = (-7,70);
type = Stem;
}
);
layerId = "E724578D-56F5-4076-BB56-BC161D27BF6D";
name = "Apr 19 20, 18:25";
shapes = (
{
closed = 1;
nodes = (
(335,-107,l),
(335,-8,l),
(494,-6,o),
(591,61,o),
(591,183,cs),
(591,308,o),
(457,342,o),
(335,371,c),
(335,599,l),
(440,593,o),
(489,543,o),
(497,481,c),
(574,481,l),
(568,576,o),
(495,662,o),
(335,669,c),
(335,746,l),
(298,746,l),
(298,670,l),
(141,666,o),
(63,592,o),
(63,487,cs),
(63,370,o),
(182,335,o),
(298,307,c),
(298,64,l),
(200,72,o),
(125,112,o),
(121,198,c),
(43,198,l),
(52,85,o),
(124,1,o),
(298,-7,c),
(298,-107,l)
);
},
{
closed = 1;
nodes = (
(335,298,l),
(431,274,o),
(516,250,o),
(516,180,cs),
(516,102,o),
(446,63,o),
(335,63,c)
);
},
{
closed = 1;
nodes = (
(210,402,o),
(136,426,o),
(136,488,cs),
(136,531,o),
(160,596,o),
(298,600,c),
(298,380,l)
);
}
);
width = 636;
}
);
unicode = 36;
}
{
glyphname = percent;
layers = (
{
hints = (
{
place = (42, 61);
place = (42, 61);
type = Stem;
},
{
place = (280, 62);
place = (280, 62);
type = Stem;
},
{
place = (503, 61);
place = (503, 61);
type = Stem;
},
{
place = (741, 62);
place = (741, 62);
type = Stem;
},
{
horizontal = 1;
place = (-8, 57);
place = (-8, 57);
type = Stem;
},
{
horizontal = 1;
place = (288, 57);
place = (288, 57);
type = Stem;
},
{
horizontal = 1;
place = (609, 58);
place = (609, 58);
type = Stem;
},
{
horizontal = 1;
place = (313, 58);
place = (313, 58);
type = Stem;
},
{
horizontal = 1;
place = (670, -20);
target = down;
type = TopGhost;
}
);
layerId = UUID0;
shapes = (
{
closed = 1;
nodes = (
(224,-12,l),
(683,670,l),
(620,670,l),
(161,-12,l)
);
},
{
closed = 1;
nodes = (
(284,288,o),
(342,354,o),
(342,477,cs),
(342,574,o),
(300,665,o),
(192,667,cs),
(99,667,o),
(42,601,o),
(42,477,cs),
(42,354,o),
(99,288,o),
(192,288,cs)
);
},
{
closed = 1;
nodes = (
(136,345,o),
(103,389,o),
(103,477,cs),
(103,565,o),
(136,609,o),
(192,609,cs),
(246,609,o),
(280,565,o),
(280,477,cs),
(280,416,o),
(259,347,o),
(192,345,cs)
);
},
{
closed = 1;
nodes = (
(745,-8,o),
(803,58,o),
(803,181,cs),
(803,278,o),
(761,369,o),
(653,371,cs),
(560,371,o),
(503,305,o),
(503,181,cs),
(503,58,o),
(560,-8,o),
(653,-8,cs)
);
},
{
closed = 1;
nodes = (
(597,49,o),
(564,93,o),
(564,181,cs),
(564,269,o),
(597,313,o),
(653,313,cs),
(707,313,o),
(741,269,o),
(741,181,cs),
(741,120,o),
(720,51,o),
(653,49,cs)
);
}
);
width = 845;
}
);
unicode = 37;
}
{
glyphname = ampersand;
layers = (
{
hints = (
{
place = (37,75);
type = Stem;
},
{
place = (425,70);
type = Stem;
},
{
place = (59,75);
type = Stem;
},
{
horizontal = 1;
place = (-8,67);
type = Stem;
},
{
horizontal = 1;
place = (311,67);
type = Stem;
},
{
horizontal = 1;
place = (602,68);
type = Stem;
}
);
layerId = UUID0;
shapes = (
{
closed = 1;
nodes = (
(410,-8,o),
(495,71,o),
(495,184,cs),
(495,311,l),
(560,311,l),
(560,378,l),
(495,378,l),
(495,422,l),
(425,422,l),
(425,378,l),
(264,378,ls),
(195,378,o),
(134,413,o),
(134,488,cs),
(134,551,o),
(178,602,o),
(277,602,cs),
(355,602,o),
(400,564,o),
(410,532,c),
(489,532,l),
(475,600,o),
(415,670,o),
(279,670,cs),
(135,670,o),
(59,592,o),
(59,489,cs),
(59,423,o),
(114,364,o),
(159,350,c),
(82,321,o),
(37,261,o),
(37,190,cs),
(37,72,o),
(144,-8,o),
(269,-8,cs)
);
},
{
closed = 1;
nodes = (
(175,59,o),
(112,120,o),
(112,188,cs),
(112,255,o),
(171,311,o),
(255,311,cs),
(425,311,l),
(425,178,ls),
(425,116,o),
(374,59,o),
(269,59,cs)
);
}
);
width = 580;
}
);
unicode = 38;
}
{
glyphname = quotesingle;
kernLeft = quotesingle;
kernRight = quotesingle;
layers = (
{
hints = (
{
place = (47, 89);
place = (47, 89);
type = Stem;
},
{
horizontal = 1;
place = (662, -20);
target = down;
type = TopGhost;
},
{
horizontal = 1;
place = (443, 219);
place = (443, 219);
type = Stem;
}
);
layerId = UUID0;
shapes = (
{
closed = 1;
nodes = (
(117,443,l),
(136,662,l),
(47,662,l),
(66,443,l)
);
}
);
width = 183;
}
);
unicode = 39;
}
{
glyphname = parenleft;
layers = (
{
hints = (
{
place = (35, 76);
place = (35, 76);
type = Stem;
},
{
horizontal = 1;
place = (-138, 838);
place = (-138, 838);
type = Stem;
}
);
layerId = UUID0;
shapes = (
{
closed = 1;
nodes = (
(231,-138,l),
(155,-17,o),
(111,127,o),
(111,281,cs),
(111,434,o),
(155,578,o),
(231,700,c),
(163,700,l),
(79,570,o),
(35,429,o),
(35,281,cs),
(35,131,o),
(79,-8,o),
(163,-138,c)
);
}
);
width = 245;
}
);
unicode = 40;
}
{
glyphname = parenright;
layers = (
{
hints = (
{
place = (134, 76);
place = (134, 76);
type = Stem;
},
{
horizontal = 1;
place = (-138, 838);
place = (-138, 838);
type = Stem;
}
);
layerId = UUID0;
shapes = (
{
closed = 1;
nodes = (
(82,-138,l),
(166,-8,o),
(210,131,o),
(210,281,cs),
(210,429,o),
(166,570,o),
(82,700,c),
(14,700,l),
(90,578,o),
(134,434,o),
(134,281,cs),
(134,127,o),
(90,-17,o),
(14,-138,c)
);
}
);
width = 245;
}
);
unicode = 41;
}
{
glyphname = asterisk;
layers = (
{
hints = (
{
place = (161,51);
type = Stem;
},
{
horizontal = 1;
place = (662,-20);
target = down;
type = TopGhost;
}
);
layerId = UUID0;
shapes = (
{
closed = 1;
nodes = (
(187,492,l),
(241,397,l),
(292,434,l),
(218,516,l),
(325,538,l),
(306,598,l),
(206,553,l),
(218,662,l),
(155,662,l),
(167,553,l),
(67,598,l),
(48,538,l),
(155,515,l),
(81,434,l),
(132,397,l)
);
}
);
width = 373;
}
);
unicode = 42;
}
{
glyphname = plus;
layers = (
{
hints = (
{
place = (242, 65);
place = (242, 65);
type = Stem;
},
{
horizontal = 1;
place = (0, 21);
target = up;
type = BottomGhost;
},
{
horizontal = 1;
place = (203, 65);
place = (203, 65);
type = Stem;
}
);
layerId = UUID0;
shapes = (
{
closed = 1;
nodes = (
(307,0,l),
(307,203,l),
(500,203,l),
(500,268,l),
(307,268,l),
(307,471,l),
(242,471,l),
(242,268,l),
(50,268,l),
(50,203,l),
(242,203,l),
(242,0,l)
);
}
);
width = 550;
}
);
unicode = 43;
}
{
glyphname = comma;
kernLeft = period;
kernRight = period;
layers = (
{
hints = (
{
place = (11, 156);
place = (11, 156);
type = Stem;
},
{
horizontal = 1;
place = (-133, 213);
place = (-133, 213);
type = Stem;
}
);
layerId = UUID0;
shapes = (
{
closed = 1;
nodes = (
(79,-111,l),
(167,102,l),
(69,102,l),
(11,-111,l)
);
}
);
width = 220;
}
);
unicode = 44;
}
{
glyphname = hyphen;
kernLeft = hyphen;
kernRight = hyphen;
layers = (
{
hints = (
{
place = (53, 250);
place = (53, 250);
type = Stem;
},
{
horizontal = 1;
place = (259, 73);
place = (259, 73);
type = Stem;
}
);
layerId = UUID0;
shapes = (
{
closed = 1;
nodes = (
(305,259,l),
(305,332,l),
(55,332,l),
(55,259,l)
);
}
);
width = 360;
}
);
unicode = 45;
}
{
glyphname = period;
kernLeft = period;
kernRight = period;
layers = (
{
hints = (
{
place = (53, 97);
place = (53, 97);
type = Stem;
},
{
horizontal = 1;
place = (0, 102);
place = (0, 102);
type = Stem;
}
);
layerId = UUID0;
shapes = (
{
closed = 1;
nodes = (
(150,0,l),
(150,102,l),
(53,102,l),
(53,0,l)
);
}
);
width = 203;
}
);
unicode = 46;
}
{
glyphname = slash;
layers = (
{
hints = (
{
place = (36,299);
type = Stem;
},
{
horizontal = 1;
place = (-32,712);
type = Stem;
}
);
layerId = UUID0;
shapes = (
{
closed = 1;
nodes = (
(106,-32,l),
(335,680,l),
(265,680,l),
(36,-32,l)
);
}
);
width = 371;
}
);
unicode = 47;
}
{
glyphname = zero;
layers = (
{
hints = (
{
place = (43,75);
type = Stem;
},
{
place = (432,75);
type = Stem;
},
{
horizontal = 1;
place = (-8,73);
type = Stem;
},
{
horizontal = 1;
place = (597,73);
type = Stem;
}
);
layerId = UUID0;
shapes = (
{
closed = 1;
nodes = (
(431,-8,o),
(507,110,o),
(507,331,cs),
(507,504,o),
(457,667,o),
(275,670,cs),
(119,670,o),
(43,552,o),
(43,331,cs),
(43,110,o),
(119,-8,o),
(275,-8,cs)
);
},
{
closed = 1;
nodes = (
(165,65,o),
(118,154,o),
(118,331,cs),
(118,508,o),
(165,597,o),
(275,597,cs),
(385,597,o),
(432,508,o),
(432,331,cs),
(432,208,o),
(411,68,o),
(275,65,cs)
);
}
);
width = 550;
}
);
unicode = 48;
}
{
glyphname = two;
layers = (
{
hints = (
{
place = (424, 75);
place = (424, 75);
type = Stem;
},
{
horizontal = 1;
place = (0, 72);
place = (0, 72);
type = Stem;
},
{
horizontal = 1;
place = (597, 73);
place = (597, 73);
type = Stem;
}
);
layerId = UUID0;
shapes = (
{
closed = 1;
nodes = (
(497,0,l),
(497,72,l),
(141,72,l),
(153,189,o),
(499,290,o),
(499,475,cs),
(499,585,o),
(416,670,o),
(273,670,cs),
(151,670,o),
(54,596,o),
(43,482,c),
(118,482,l),
(128,556,o),
(187,597,o),
(275,597,cs),
(371,597,o),
(424,550,o),
(424,473,cs),
(424,321,o),
(52,237,o),
(52,41,cs),
(52,0,l)
);
}
);
width = 550;
}
);
unicode = 50;
}
{
glyphname = four;
layers = (
{
hints = (
{
place = (347, 75);
place = (347, 75);
type = Stem;
},
{
horizontal = 1;
place = (0, 21);
target = up;
type = BottomGhost;
},
{
horizontal = 1;
place = (169, 67);
place = (169, 67);
type = Stem;
},
{
horizontal = 1;
place = (598, 64);
place = (598, 64);
type = Stem;
}
);
layerId = UUID0;
shapes = (
{
closed = 1;
nodes = (
(422,0,l),
(422,169,l),
(511,169,l),
(511,236,l),
(422,236,l),
(422,662,l),
(309,662,l),
(31,242,l),
(31,169,l),
(347,169,l),
(347,0,l)
);
},
{
closed = 1;
nodes = (
(347,598,l),
(347,236,l),
(101,236,l)
);
}
);
width = 550;
}
);
unicode = 52;
}
{
glyphname = five;
layers = (
{
hints = (
{
place = (427,75);
type = Stem;
},
{
horizontal = 1;
place = (-8,73);
type = Stem;
},
{
horizontal = 1;
place = (359,70);
type = Stem;
},
{
horizontal = 1;
place = (590,72);
type = Stem;
}
);
layerId = UUID0;
shapes = (
{
closed = 1;
nodes = (
(405,-8,o),
(502,90,o),
(502,212,cs),
(502,339,o),
(413,429,o),
(279,429,cs),
(239,429,o),
(192,417,o),
(162,398,c),
(192,590,l),
(469,590,l),
(469,662,l),
(124,662,l),
(79,348,l),
(148,306,l),
(171,332,o),
(220,359,o),
(279,359,cs),
(366,359,o),
(427,300,o),
(427,212,cs),
(427,130,o),
(367,65,o),
(277,65,cs),
(179,65,o),
(134,117,o),
(119,166,c),
(42,166,l),
(56,98,o),
(110,-8,o),
(280,-8,cs)
);
}
);
width = 550;
}
);
unicode = 53;
}
{
glyphname = seven;
layers = (
{
hints = (
{
place = (47, 459);
place = (47, 459);
type = Stem;
},
{
horizontal = 1;
place = (0, 21);
target = up;
type = BottomGhost;
},
{
horizontal = 1;
place = (590, 72);
place = (590, 72);
type = Stem;
}
);
layerId = UUID0;
shapes = (
{
closed = 1;
nodes = (
(230,0,l),
(506,577,l),
(506,662,l),
(47,662,l),
(47,590,l),
(429,590,l),
(143,0,l)
);
}
);
width = 550;
}
);
unicode = 55;
}
{
glyphname = colon;
kernLeft = colon;
kernRight = colon;
layers = (
{
hints = (
{
place = (53, 97);
place = (53, 97);
type = Stem;
},
{
horizontal = 1;
place = (0, 102);
place = (0, 102);
type = Stem;
},
{
horizontal = 1;
place = (398, 102);
place = (398, 102);
type = Stem;
}
);
layerId = UUID0;
shapes = (
{
closed = 1;
nodes = (
(150,398,l),
(150,500,l),
(53,500,l),
(53,398,l)
);
},
{
closed = 1;
nodes = (
(150,0,l),
(150,102,l),
(53,102,l),
(53,0,l)
);
}
);
width = 203;
}
);
unicode = 58;
}
{
glyphname = semicolon;
kernLeft = colon;
kernRight = colon;
layers = (
{
hints = (
{
place = (80, 97);
place = (80, 97);
type = Stem;
},
{
horizontal = 1;
place = (-133, 213);
place = (-133, 213);
type = Stem;
},
{
horizontal = 1;
place = (398, 102);
place = (398, 102);
type = Stem;
}
);
layerId = UUID0;
shapes = (
{
closed = 1;
nodes = (
(177,398,l),
(177,500,l),
(80,500,l),
(80,398,l)
);
},
{
closed = 1;
nodes = (
(93,-133,l),
(181,80,l),
(83,80,l),
(25,-133,l)
);
}
);
width = 245;
}
);
unicode = 59;
}
{
glyphname = less;
layers = (
{
hints = (
{
place = (26,481);
type = Stem;
},
{
horizontal = 1;
place = (8,488);
type = Stem;
}
);
layerId = UUID0;
shapes = (
{
closed = 1;
nodes = (
(507,86,l),
(102,252,l),
(507,418,l),
(507,496,l),
(26,283,l),
(26,220,l),
(507,8,l)
);
}
);
width = 550;
}
);
unicode = 60;
}
{
glyphname = equal;
layers = (
{
hints = (
{
place = (7,536);
type = Stem;
},
{
horizontal = 1;
place = (103,67);
type = Stem;
},
{
horizontal = 1;
place = (301,67);
type = Stem;
}
);
layerId = UUID0;
shapes = (
{
closed = 1;
nodes = (
(493,301,l),
(493,368,l),
(57,368,l),
(57,301,l)
);
},
{
closed = 1;
nodes = (
(493,103,l),
(493,170,l),
(57,170,l),
(57,103,l)
);
}
);
width = 550;
}
);
unicode = 61;
}
{
glyphname = greater;
layers = (
{
hints = (
{
place = (42,481);
type = Stem;
},
{
horizontal = 1;
place = (8,488);
type = Stem;
}
);
layerId = UUID0;
shapes = (
{
closed = 1;
nodes = (
(523,220,l),
(523,283,l),
(42,496,l),
(42,418,l),
(447,252,l),
(42,86,l),
(42,8,l)
);
}
);
width = 550;
}
);
unicode = 62;
}
{
glyphname = question;
kernLeft = question;
kernRight = question;
layers = (
{
hints = (
{
place = (227,73);
type = Stem;
},
{
place = (394,71);
type = Stem;
},
{
place = (215,97);
type = Stem;
},
{
horizontal = 1;
place = (0,102);
type = Stem;
},
{
horizontal = 1;
place = (601,69);
type = Stem;
}
);
layerId = UUID0;
shapes = (
{
closed = 1;
nodes = (
(300,183,l),
(300,324,o),
(465,333,o),
(465,489,cs),
(465,579,o),
(404,670,o),
(260,670,cs),
(128,670,o),
(45,576,o),
(39,466,c),
(110,466,l),
(116,536,o),
(168,601,o),
(266,601,cs),
(364,601,o),
(394,539,o),
(394,489,cs),
(394,366,o),
(227,347,o),
(227,183,c)
);
},
{
closed = 1;
nodes = (
(312,0,l),
(312,102,l),
(215,102,l),
(215,0,l)
);
}
);
width = 510;
}
);
unicode = 63;
}
{
glyphname = at;
layers = (
{
hints = (
{
place = (50,37);
type = Stem;
},
{
place = (216,60);
type = Stem;
},
{
place = (531,65);
type = Stem;
},
{
place = (773,37);
type = Stem;
},
{
horizontal = 1;
place = (-50,37);
type = Stem;
},
{
horizontal = 1;
place = (123,45);
type = Stem;
},
{
horizontal = 1;
place = (479,53);
type = Stem;
},
{
horizontal = 1;
place = (669,37);
type = Stem;
},
{
horizontal = 1;
place = (123,54);
type = Stem;
}
);
layerId = UUID0;
shapes = (
{
closed = 1;
nodes = (
(477,-100,o),
(564,-75,o),
(634,-19,c),
(612,11,l),
(551,-39,o),
(484,-63,o),
(392,-63,cs),
(222,-63,o),
(87,67,o),
(87,239,cs),
(87,444,o),
(267,619,o),
(468,619,cs),
(638,619,o),
(773,487,o),
(773,314,cs),
(773,178,o),
(723,118,o),
(649,118,cs),
(602,118,o),
(596,152,o),
(596,171,cs),
(596,179,o),
(597,184,o),
(597,184,c),
(644,476,l),
(584,476,l),
(574,412,l),
(551,455,o),
(509,482,o),
(443,482,cs),
(316,482,o),
(216,384,o),
(216,239,cs),
(216,145,o),
(273,73,o),
(386,73,cs),
(451,73,o),
(496,100,o),
(531,143,c),
(531,143,o),
(534,73,o),
(624,73,cs),
(718,73,o),
(810,148,o),
(810,318,cs),
(810,509,o),
(650,656,o),
(468,656,cs),
(243,656,o),
(50,458,o),
(50,239,cs),
(50,55,o),
(192,-100,o),
(392,-100,cs)
);
},
{
closed = 1;
nodes = (
(317,127,o),
(276,177,o),
(276,245,cs),
(276,356,o),
(345,429,o),
(443,429,cs),
(519,429,o),
(558,375,o),
(558,308,cs),
(558,214,o),
(500,127,o),
(402,127,cs)
);
}
);
width = 852;
}
);
unicode = 64;
}
{
glyphname = A;
kernLeft = A;
kernRight = A;
layers = (
{
anchors = (
{
name = bottom;
pos = (331,0);
},
{
name = ogonek;
pos = (669,0);
},
{
name = top;
pos = (331,662);
}
);
hints = (
{
place = (3, 656);
place = (3, 656);
type = Stem;
},
{
horizontal = 1;
place = (0, 21);
target = up;
type = BottomGhost;
},
{
horizontal = 1;
place = (192, 69);
place = (192, 69);
type = Stem;
},
{
horizontal = 1;
place = (662, -20);
target = down;
type = TopGhost;
},
{
horizontal = 1;
place = (584, 78);
place = (584, 78);
type = Stem;
}
);
layerId = UUID0;
shapes = (
{
closed = 1;
nodes = (
(86,0,l),
(167,192,l),
(495,192,l),
(576,0,l),
(659,0,l),
(378,662,l),
(284,662,l),
(3,0,l)
);
},
{
closed = 1;
nodes = (
(331,584,l),
(466,261,l),
(196,261,l)
);
}
);
width = 662;
}
);
unicode = 65;
}
{
glyphname = B;
kernLeft = I;
kernRight = B;
layers = (
{
anchors = (
{
name = bottom;
pos = (331,0);
},
{
name = top;
pos = (331,662);
}
);
hints = (
{
place = (81,75);
type = Stem;
},
{
place = (546,75);
type = Stem;
},
{
place = (512,75);
type = Stem;
},
{
horizontal = 1;
place = (0,71);
type = Stem;
},
{
horizontal = 1;
place = (298,68);
type = Stem;
},
{
horizontal = 1;
place = (591,71);
type = Stem;
}
);
layerId = UUID0;
shapes = (
{
closed = 1;
nodes = (
(395,0,ls),
(546,0,o),
(621,75,o),
(621,174,cs),
(621,273,o),
(554,320,o),
(498,338,c),
(545,359,o),
(587,402,o),
(587,487,cs),
(587,567,o),
(534,662,o),
(378,662,cs),
(81,662,l),
(81,0,l)
);
},
{
closed = 1;
nodes = (
(156,591,l),
(386,591,ls),
(477,591,o),
(512,536,o),
(512,481,cs),
(512,400,o),
(447,366,o),
(378,366,cs),
(156,366,l)
);
},
{
closed = 1;
nodes = (
(156,298,l),
(395,298,ls),
(500,298,o),
(546,242,o),
(546,180,cs),
(546,111,o),
(494,71,o),
(403,71,cs),
(156,71,l)
);
}
);
width = 662;
}
);
unicode = 66;
}
{
glyphname = C;
kernLeft = O;
kernRight = C;
layers = (
{
anchors = (
{
name = bottom;
pos = (345,0);
},
{
name = ogonek;
pos = (443,0);
},
{
name = top;
pos = (345,662);
}
);
hints = (
{
place = (39, 75);
place = (39, 75);
type = Stem;
},
{
horizontal = 1;
place = (-8, 73);
place = (-8, 73);
type = Stem;
},
{
horizontal = 1;
place = (597, 73);
place = (597, 73);
type = Stem;
}
);
layerId = UUID0;
shapes = (
{
closed = 1;
nodes = (
(509,-8,o),
(617,77,o),
(659,198,c),
(580,198,l),
(546,117,o),
(474,65,o),
(365,65,cs),
(204,65,o),
(114,182,o),
(114,331,cs),
(114,480,o),
(204,597,o),
(365,597,cs),
(474,597,o),
(546,545,o),
(580,464,c),
(659,464,l),
(617,585,o),
(509,670,o),
(359,670,cs),
(160,670,o),
(39,519,o),
(39,331,cs),
(39,143,o),
(160,-8,o),
(359,-8,cs)
);
}
);
width = 690;
}
);
metricLeft = O;
unicode = 67;
}
{
glyphname = D;
kernLeft = I;
kernRight = O;
layers = (
{
anchors = (
{
name = bottom;
pos = (340,0);
},
{
name = center;
pos = (352,331);
},
{
name = top;
pos = (352,662);
}
);
hints = (
{
place = (81, 75);
place = (81, 75);
type = Stem;
},
{
place = (589, 75);
place = (589, 75);
type = Stem;
},
{
horizontal = 1;
place = (0, 71);
place = (0, 71);
type = Stem;
},
{
horizontal = 1;
place = (591, 71);
place = (591, 71);
type = Stem;
}
);
layerId = UUID0;
shapes = (
{
closed = 1;
nodes = (
(360,0,ls),
(518,0,o),
(664,124,o),
(664,331,cs),
(664,538,o),
(518,662,o),
(360,662,cs),
(81,662,l),
(81,0,l)
);
},
{
closed = 1;
nodes = (
(156,591,l),
(357,591,ls),
(498,591,o),
(589,473,o),
(589,331,cs),
(589,191,o),
(499,71,o),
(357,71,cs),
(156,71,l)
);
}
);
width = 703;
}
);
metricRight = O;
unicode = 68;
}
{
glyphname = E;
kernLeft = I;
kernRight = E;
layers = (
{
anchors = (
{
name = bottom;
pos = (344,0);
},
{
name = ogonek;
pos = (578,2);
},
{
name = top;
pos = (334,662);
},
{
name = topleft;
pos = (20,662);
}
);
hints = (
{
place = (81,75);
type = Stem;
},
{
horizontal = 1;
place = (0,72);
type = Stem;
},
{
horizontal = 1;
place = (295,73);
type = Stem;
},
{
horizontal = 1;
place = (590,72);
type = Stem;
}
);
layerId = UUID0;
shapes = (
{
closed = 1;
nodes = (
(568,0,l),
(568,72,l),
(156,72,l),
(156,295,l),
(524,295,l),
(524,368,l),
(156,368,l),
(156,590,l),
(568,590,l),
(568,662,l),
(81,662,l),
(81,0,l)
);
}
);
width = 608;
}
);
unicode = 69;
}
{
glyphname = F;
kernLeft = I;
kernRight = F;
layers = (
{
anchors = (
{
name = bottom;
pos = (292,0);
},
{
name = top;
pos = (292,662);
}
);
hints = (
{
place = (81,75);
type = Stem;
},
{
horizontal = 1;
place = (0,21);
target = up;
type = BottomGhost;
},
{
horizontal = 1;
place = (287,73);
type = Stem;
},
{
horizontal = 1;
place = (590,72);
type = Stem;
}
);
layerId = UUID0;
shapes = (
{
closed = 1;
nodes = (
(156,0,l),
(156,287,l),
(515,287,l),
(515,360,l),
(156,360,l),
(156,590,l),
(559,590,l),
(559,662,l),
(81,662,l),
(81,0,l)
);
}
);
width = 583;
}
);
unicode = 70;
}
{
glyphname = G;
kernLeft = O;
kernRight = G;
layers = (
{
anchors = (
{
name = bottom;
pos = (362,0);
},
{
name = top;
pos = (362,662);
}
);
hints = (
{
place = (39, 75);
place = (39, 75);
type = Stem;
},
{
place = (603, 69);
place = (603, 69);
type = Stem;
},
{
horizontal = 1;
place = (-8, 73);
place = (-8, 73);
type = Stem;
},
{
horizontal = 1;
place = (284, 68);
place = (284, 68);
type = Stem;
},
{
horizontal = 1;
place = (597, 73);
place = (597, 73);
type = Stem;
},
{
horizontal = 1;
place = (0, 21);
target = up;
type = BottomGhost;
}
);
layerId = UUID0;
shapes = (
{
closed = 1;
nodes = (
(483,-8,o),
(561,53,o),
(603,117,c),
(603,0,l),
(672,0,l),
(672,352,l),
(361,352,l),
(361,284,l),
(603,284,l),
(603,146,o),
(489,65,o),
(369,65,cs),
(208,65,o),
(114,182,o),
(114,331,cs),
(114,480,o),
(210,597,o),
(371,597,cs),
(472,597,o),
(544,553,o),
(584,482,c),
(666,482,l),
(617,593,o),
(507,670,o),
(365,670,cs),
(166,670,o),
(39,519,o),
(39,331,cs),
(39,143,o),
(161,-8,o),
(363,-8,cs)
);
}
);
width = 723;
}
);
metricLeft = O;
unicode = 71;
}
{
glyphname = H;
kernLeft = I;
kernRight = I;
layers = (
{
anchors = (
{
name = bottom;
pos = (349,0);
},
{
name = center;
pos = (349,504);
},
{
name = ogonek;
pos = (626,2);
},
{
name = top;
pos = (349,662);
},
{
name = topleft;
pos = (20,662);
}
);
hints = (
{
place = (81, 75);
place = (81, 75);
type = Stem;
},
{
place = (541, 75);
place = (541, 75);
type = Stem;
},
{
horizontal = 1;
place = (0, 21);
target = up;
type = BottomGhost;
},
{
horizontal = 1;
place = (295, 73);
place = (295, 73);
type = Stem;
},
{
horizontal = 1;
place = (662, -20);
target = down;
type = TopGhost;
}
);
layerId = UUID0;
shapes = (
{
closed = 1;
nodes = (
(156,0,l),
(156,295,l),
(541,295,l),
(541,0,l),
(616,0,l),
(616,662,l),
(541,662,l),
(541,368,l),
(156,368,l),
(156,662,l),
(81,662,l),
(81,0,l)
);
}
);
width = 697;
}
);
unicode = 72;
}
{
glyphname = I;
kernLeft = I;
kernRight = I;
layers = (
{
anchors = (
{
name = bottom;
pos = (119,0);
},
{
name = ogonek;
pos = (166,2);
},
{
name = top;
pos = (119,662);
},
{
name = topleft;
pos = (20,662);
}
);
hints = (
{
place = (81,75);
type = Stem;
},
{
horizontal = 1;
place = (0,21);
target = up;
type = BottomGhost;
},
{
horizontal = 1;
place = (662,-20);
target = down;
type = TopGhost;
}
);
layerId = UUID0;
shapes = (
{
closed = 1;
nodes = (
(156,0,l),
(156,662,l),
(81,662,l),
(81,0,l)
);
}
);
width = 237;
}
);
unicode = 73;
}
{
glyphname = J;
kernLeft = J;
kernRight = J;
layers = (
{
anchors = (
{
name = bottom;
pos = (264,0);
},
{
name = top;
pos = (413,662);
}
);
hints = (
{
place = (377, 75);
place = (377, 75);
type = Stem;
},
{
horizontal = 1;
place = (-8, 73);
place = (-8, 73);
type = Stem;
},
{
horizontal = 1;
place = (662, -20);
target = down;
type = TopGhost;
}
);
layerId = UUID0;
shapes = (
{
closed = 1;
nodes = (
(396,-8,o),
(452,103,o),
(452,219,cs),
(452,662,l),
(377,662,l),
(377,222,ls),
(377,154,o),
(360,65,o),
(240,65,cs),
(146,65,o),
(101,125,o),
(93,177,c),
(15,177,l),
(24,87,o),
(93,-8,o),
(236,-8,cs)
);
}
);
width = 527;
}
);
unicode = 74;
}
{
glyphname = K;
kernLeft = I;
kernRight = K;
layers = (
{
anchors = (
{
name = bottom;
pos = (321,0);
},
{
name = ogonek;
pos = (646,2);
},
{
name = top;
pos = (321,662);
}
);
hints = (
{
place = (81, 75);
place = (81, 75);
type = Stem;
},
{
horizontal = 1;
place = (0, 21);
target = up;
type = BottomGhost;
},
{
horizontal = 1;
place = (662, -20);
target = down;
type = TopGhost;
}
);
layerId = UUID0;
shapes = (
{
closed = 1;
nodes = (
(156,0,l),
(156,217,l),
(293,345,l),
(552,0,l),
(646,0,l),
(348,396,l),
(630,662,l),
(524,662,l),
(156,317,l),
(156,662,l),
(81,662,l),
(81,0,l)
);
}
);
width = 641;
}
);
unicode = 75;
}
{
glyphname = L;
kernLeft = I;
kernRight = L;
layers = (
{
anchors = (
{
name = bottom;
pos = (287,0);
},
{
name = center;
pos = (267,331);
},
{
name = ogonek;
pos = (356,2);
},
{
name = top;
pos = (119,662);
},
{
name = topright;
pos = (406,464);
}
);
hints = (
{
place = (81, 75);
place = (81, 75);
type = Stem;
},
{
horizontal = 1;
place = (0, 72);
place = (0, 72);
type = Stem;
},
{
horizontal = 1;
place = (662, -20);
target = down;
type = TopGhost;
}
);
layerId = UUID0;
shapes = (
{
closed = 1;
nodes = (
(517,0,l),
(517,72,l),
(156,72,l),
(156,662,l),
(81,662,l),
(81,0,l)
);
}
);
width = 533;
}
);
unicode = 76;
}
{
glyphname = M;
kernLeft = I;
kernRight = I;
layers = (
{
anchors = (
{
name = bottom;
pos = (403,0);
},
{
name = ogonek;
pos = (735,2);
},
{
name = top;
pos = (403,662);
}
);
hints = (
{
place = (81, 75);
place = (81, 75);
type = Stem;
},
{
place = (650, 75);
place = (650, 75);
type = Stem;
},
{
horizontal = 1;
place = (0, 21);
target = up;
type = BottomGhost;
},
{
horizontal = 1;
place = (662, -20);
target = down;
type = TopGhost;
},
{
horizontal = 1;
place = (548, 114);
place = (548, 114);
type = Stem;
}
);
layerId = UUID0;
shapes = (
{
closed = 1;
nodes = (
(156,0,l),
(156,548,l),
(405,233,l),
(650,548,l),
(650,0,l),
(725,0,l),
(725,662,l),
(638,662,l),
(405,348,l),
(168,662,l),
(81,662,l),
(81,0,l)
);
}
);
width = 806;
}
);
unicode = 77;
}
{
glyphname = N;
kernLeft = I;
kernRight = I;
layers = (
{
anchors = (
{
name = bottom;
pos = (367,0);
},
{
name = ogonek;
pos = (662,2);
},
{
name = top;
pos = (367,662);
}
);
hints = (
{
place = (81, 75);
place = (81, 75);
type = Stem;
},
{
place = (577, 75);
place = (577, 75);
type = Stem;
},
{
horizontal = 1;
place = (0, 21);
target = up;
type = BottomGhost;
},
{
horizontal = 1;
place = (662, -20);
target = down;
type = TopGhost;
},
{
horizontal = 1;
place = (0, 105);
place = (0, 105);
type = Stem;
},
{
horizontal = 1;
place = (559, 103);
place = (559, 103);
type = Stem;
}
);
layerId = UUID0;
shapes = (
{
closed = 1;
nodes = (
(156,0,l),
(156,559,l),
(565,0,l),
(652,0,l),
(652,662,l),
(577,662,l),
(577,105,l),
(168,662,l),
(81,662,l),
(81,0,l)
);
}
);
width = 733;
}
);
unicode = 78;
}
{
glyphname = O;
kernLeft = O;
kernRight = O;
layers = (
{
anchors = (
{
name = bottom;
pos = (375,0);
},
{
name = center;
pos = (375,331);
},
{
name = ogonek;
pos = (455,0);
},
{
name = top;
pos = (375,662);
},
{
name = topleft;
pos = (20,662);
},
{
name = topright;
pos = (534,662);
}
);
hints = (
{
place = (39,75);
type = Stem;
},
{
place = (636,75);
type = Stem;
},
{
horizontal = 1;
place = (-8,73);
type = Stem;
},
{
horizontal = 1;
place = (597,73);
type = Stem;
}
);
layerId = UUID0;
shapes = (
{
closed = 1;
nodes = (
(576,-8,o),
(711,143,o),
(711,331,cs),
(711,519,o),
(576,670,o),
(375,670,cs),
(174,670,o),
(39,519,o),
(39,331,cs),
(39,143,o),
(174,-8,o),
(375,-8,cs)
);
},
{
closed = 1;
nodes = (
(214,65,o),
(114,182,o),
(114,331,cs),
(114,480,o),
(214,597,o),
(375,597,cs),
(536,597,o),
(636,480,o),
(636,331,cs),
(636,182,o),
(536,65,o),
(375,65,cs)
);
}
);
width = 750;
}
);
unicode = 79;
}
{
glyphname = P;
kernLeft = I;
kernRight = P;
layers = (
{
anchors = (
{
name = bottom;
pos = (314,0);
},
{
name = top;
pos = (314,662);
}
);
hints = (
{
place = (81,75);
type = Stem;
},
{
place = (532,75);
type = Stem;
},
{
horizontal = 1;
place = (0,21);
target = up;
type = BottomGhost;
},
{
horizontal = 1;
place = (236,70);
type = Stem;
},
{
horizontal = 1;
place = (591,71);
type = Stem;
}
);
layerId = UUID0;
shapes = (
{
closed = 1;
nodes = (
(156,0,l),
(156,236,l),
(379,236,ls),
(520,236,o),
(607,318,o),
(607,449,cs),
(607,579,o),
(520,662,o),
(379,662,cs),
(81,662,l),
(81,0,l)
);
},
{
closed = 1;
nodes = (
(156,591,l),
(374,591,ls),
(478,591,o),
(532,537,o),
(532,449,cs),
(532,360,o),
(478,306,o),
(374,306,cs),
(156,306,l)
);
}
);
width = 628;
}
);
unicode = 80;
}
{
glyphname = Q;
kernLeft = O;
kernRight = O;
layers = (
{
anchors = (
{
name = bottom;
pos = (375,-157);
},
{
name = top;
pos = (375,662);
}
);
hints = (
{
place = (39, 75);
place = (39, 75);
type = Stem;
},
{
place = (636, 75);
place = (636, 75);
type = Stem;
},
{
horizontal = 1;
place = (-157, 64);
place = (-157, 64);
type = Stem;
},
{
horizontal = 1;
place = (-2, 67);
place = (-2, 67);
type = Stem;
},
{
horizontal = 1;
place = (597, 73);
place = (597, 73);
type = Stem;
}
);
layerId = UUID0;
shapes = (
{
closed = 1;
nodes = (
(660,-157,o),
(711,-139,o),
(758,-102,c),
(718,-48,l),
(683,-76,o),
(645,-93,o),
(597,-93,cs),
(505,-93,o),
(457,-39,o),
(437,-2,c),
(601,25,o),
(711,163,o),
(711,331,cs),
(711,519,o),
(576,670,o),
(375,670,cs),
(174,670,o),
(39,519,o),
(39,331,cs),
(39,147,o),
(168,0,o),
(361,-7,c),
(404,-96,o),
(497,-157,o),
(596,-157,cs)
);
},
{
closed = 1;
nodes = (
(214,65,o),
(114,182,o),
(114,331,cs),
(114,480,o),
(214,597,o),
(375,597,cs),
(536,597,o),
(636,480,o),
(636,331,cs),
(636,182,o),
(536,65,o),
(375,65,cs)
);
}
);
width = 750;
}
);
unicode = 81;
}
{
glyphname = R;
kernLeft = I;
kernRight = R;
layers = (
{
anchors = (
{
name = bottom;
pos = (335,0);
},
{
name = ogonek;
pos = (645,2);
},
{
name = top;
pos = (335,662);
}
);
hints = (
{
place = (81, 75);
place = (81, 75);
type = Stem;
},
{
place = (546, 75);
place = (546, 75);
type = Stem;
},
{
horizontal = 1;
place = (0, 21);
target = up;
type = BottomGhost;
},
{
horizontal = 1;
place = (254, 71);
place = (254, 71);
type = Stem;
},
{
horizontal = 1;
place = (591, 71);
place = (591, 71);
type = Stem;
}
);
layerId = UUID0;
shapes = (
{
closed = 1;
nodes = (
(156,0,l),
(156,254,l),
(386,254,l),
(546,0,l),
(635,0,l),
(461,267,l),
(535,284,o),
(621,327,o),
(621,455,cs),
(621,581,o),
(534,662,o),
(398,662,cs),
(81,662,l),
(81,0,l)
);
},
{
closed = 1;
nodes = (
(156,591,l),
(389,591,ls),
(483,591,o),
(546,539,o),
(546,455,cs),
(546,352,o),
(456,325,o),
(385,325,cs),
(156,325,l)
);
}
);
width = 669;
}
);
unicode = 82;
}
{
glyphname = S;
kernLeft = S;
kernRight = S;
layers = (
{
anchors = (
{
name = bottom;
pos = (308,0);
},
{
name = ogonek;
pos = (413,0);
},
{
name = top;
pos = (308,662);
}
);
hints = (
{
place = (52,73);
type = Stem;
},
{
place = (505,75);
type = Stem;
},
{
horizontal = 1;
place = (-8,71);
type = Stem;
},
{
horizontal = 1;
place = (298,75);
type = Stem;
},
{
horizontal = 1;
place = (600,70);
type = Stem;
}
);
layerId = UUID0;
shapes = (
{
closed = 1;
nodes = (
(481,-8,o),
(580,60,o),
(580,183,cs),
(580,414,o),
(125,334,o),
(125,488,cs),
(125,532,o),
(151,600,o),
(301,600,cs),
(422,600,o),
(478,547,o),
(486,481,c),
(563,481,l),
(557,580,o),
(477,670,o),
(301,670,cs),
(135,670,o),
(52,595,o),
(52,487,cs),
(52,260,o),
(505,342,o),
(505,180,cs),
(505,102,o),
(435,63,o),
(323,63,cs),
(208,63,o),
(115,102,o),
(110,198,c),
(32,198,l),
(42,79,o),
(122,-8,o),
(318,-8,cs)
);
}
);
width = 615;
}
);
unicode = 83;
}
{
glyphname = T;
kernLeft = T;
kernRight = T;
layers = (
{
anchors = (
{
name = bottom;
pos = (283,0);
},
{
name = center;
pos = (283,331);
},
{
name = ogonek;
pos = (330,2);
},
{
name = top;
pos = (283,662);
}
);
hints = (
{
place = (245, 75);
place = (245, 75);
type = Stem;
},
{
horizontal = 1;
place = (0, 21);
target = up;
type = BottomGhost;
},
{
horizontal = 1;
place = (590, 72);
place = (590, 72);
type = Stem;
}
);
layerId = UUID0;
shapes = (
{
closed = 1;
nodes = (
(320,0,l),
(320,591,l),
(551,591,l),
(551,662,l),
(14,662,l),
(14,591,l),
(245,591,l),
(245,0,l)
);
}
);
width = 565;
}
);
unicode = 84;
}
{
glyphname = U;
kernLeft = U;
kernRight = U;
layers = (
{
anchors = (
{
name = bottom;
pos = (355,0);
},
{
name = ogonek;
pos = (434,10);
},
{
name = top;
pos = (355,662);
},
{
name = topright;
pos = (689,662);
}
);
hints = (
{
place = (73, 75);
place = (73, 75);
type = Stem;
},
{
place = (561, 75);
place = (561, 75);
type = Stem;
},
{
horizontal = 1;
place = (-8, 73);
place = (-8, 73);
type = Stem;
},
{
horizontal = 1;
place = (662, -20);
target = down;
type = TopGhost;
}
);
layerId = UUID0;
shapes = (
{
closed = 1;
nodes = (
(520,-8,o),
(636,110,o),
(636,285,cs),
(636,662,l),
(561,662,l),
(561,283,ls),
(561,129,o),
(459,65,o),
(354,65,cs),
(249,65,o),
(148,129,o),
(148,283,cs),
(148,662,l),
(73,662,l),
(73,285,ls),
(73,109,o),
(189,-8,o),
(354,-8,cs)
);
}
);
width = 709;
}
);
unicode = 85;
}
{
glyphname = V;
kernLeft = V;
kernRight = V;
layers = (
{
anchors = (
{
name = bottom;
pos = (314,0);
},
{
name = ogonek;
pos = (367,2);
},
{
name = top;
pos = (314,662);
}
);
hints = (
{
place = (3, 622);
place = (3, 622);
type = Stem;
},
{
horizontal = 1;
place = (0, 21);
target = up;
type = BottomGhost;
},
{
horizontal = 1;
place = (662, -20);
target = down;
type = TopGhost;
},
{
horizontal = 1;
place = (0, 85);
place = (0, 85);
type = Stem;
}
);
layerId = UUID0;
shapes = (
{
closed = 1;
nodes = (
(357,0,l),
(625,662,l),
(543,662,l),
(314,85,l),
(85,662,l),
(3,662,l),
(271,0,l)
);
}
);
width = 628;
}
);
unicode = 86;
}
{
glyphname = W;
kernLeft = V;
kernRight = V;
layers = (
{
anchors = (
{
name = bottom;
pos = (479,0);
},
{
name = top;
pos = (479,662);
}
);
hints = (
{
place = (9,940);
type = Stem;
},
{
horizontal = 1;
place = (0,21);
target = up;
type = BottomGhost;
},
{
horizontal = 1;
place = (556,106);
type = Stem;
},
{
horizontal = 1;
place = (0,106);
type = Stem;
},
{
horizontal = 1;
place = (662,-20);
target = down;
type = TopGhost;
}
);
layerId = UUID0;
shapes = (
{
closed = 1;
nodes = (
(300,0,l),
(479,556,l),
(658,0,l),
(743,0,l),
(949,662,l),
(870,662,l),
(700,106,l),
(522,662,l),
(436,662,l),
(258,106,l),
(88,662,l),
(9,662,l),
(215,0,l)
);
}
);
width = 958;
}
);
unicode = 87;
}
{
glyphname = X;
kernLeft = X;
kernRight = X;
layers = (
{
anchors = (
{
name = bottom;
pos = (307,0);
},
{
name = top;
pos = (307,662);
}
);
hints = (
{
place = (-3,619);
type = Stem;
},
{
horizontal = 1;
place = (0,21);
target = up;
type = BottomGhost;
},
{
horizontal = 1;
place = (662,-20);
target = down;
type = TopGhost;
}
);
layerId = UUID0;
shapes = (
{
closed = 1;
nodes = (
(92,0,l),
(306,284,l),
(521,0,l),
(616,0,l),
(352,342,l),
(598,662,l),
(503,662,l),
(306,402,l),
(110,662,l),
(15,662,l),
(261,342,l),
(-3,0,l)
);
}
);
width = 613;
}
);
unicode = 88;
}
{
glyphname = Y;
kernLeft = Y;
kernRight = Y;
layers = (
{
anchors = (
{
name = bottom;
pos = (319,0);
},
{
name = ogonek;
pos = (366,0);
},
{
name = top;
pos = (319,662);
},
{
name = topleft;
pos = (24,662);
}
);
hints = (
{
place = (277, 75);
place = (277, 75);
type = Stem;
},
{
horizontal = 1;
place = (0, 21);
target = up;
type = BottomGhost;
},
{
horizontal = 1;
place = (662, -20);
target = down;
type = TopGhost;
}
);
layerId = UUID0;
shapes = (
{
closed = 1;
nodes = (
(356,0,l),
(356,262,l),
(633,662,l),
(542,662,l),
(318,340,l),
(94,662,l),
(3,662,l),
(281,262,l),
(281,0,l)
);
}
);
width = 636;
}
);
unicode = 89;
}
{
glyphname = Z;
kernLeft = Z;
kernRight = Z;
layers = (
{
anchors = (
{
name = bottom;
pos = (292,0);
},
{
name = center;
pos = (292,331);
},
{
name = ogonek;
pos = (563,2);
},
{
name = top;
pos = (292,662);
}
);
hints = (
{
place = (29, 524);
place = (29, 524);
type = Stem;
},
{
horizontal = 1;
place = (0, 70);
place = (0, 70);
type = Stem;
},
{
horizontal = 1;
place = (592, 70);
place = (592, 70);
type = Stem;
}
);
layerId = UUID0;
shapes = (
{
closed = 1;
nodes = (
(553,0,l),
(553,70,l),
(121,70,l),
(553,590,l),
(553,662,l),
(35,662,l),
(35,592,l),
(461,592,l),
(29,71,l),
(29,0,l)
);
}
);
width = 584;
}
);
unicode = 90;
}
{
glyphname = bracketleft;
layers = (
{
hints = (
{
place = (66,66);
type = Stem;
},
{
horizontal = 1;
place = (-133,62);
type = Stem;
},
{
horizontal = 1;
place = (617,62);
type = Stem;
}
);
layerId = UUID0;
shapes = (
{
closed = 1;
nodes = (
(253,-133,l),
(253,-71,l),
(132,-71,l),
(132,617,l),
(253,617,l),
(253,679,l),
(66,679,l),
(66,-133,l)
);
}
);
width = 280;
}
);
unicode = 91;
}
{
glyphname = backslash;
layers = (
{
hints = (
{
place = (36,299);
type = Stem;
},
{
horizontal = 1;
place = (-32,712);
type = Stem;
}
);
layerId = UUID0;
shapes = (
{
closed = 1;
nodes = (
(335,-32,l),
(106,680,l),
(36,680,l),
(265,-32,l)
);
}
);
width = 371;
}
);
unicode = 92;
}
{
glyphname = bracketright;
layers = (
{
hints = (
{
place = (148, 66);
place = (148, 66);
type = Stem;
},
{
horizontal = 1;
place = (-133, 62);
place = (-133, 62);
type = Stem;
},
{
horizontal = 1;
place = (617, 62);
place = (617, 62);
type = Stem;
}
);
layerId = UUID0;
shapes = (
{
closed = 1;
nodes = (
(214,-133,l),
(214,679,l),
(27,679,l),
(27,617,l),
(148,617,l),
(148,-71,l),
(27,-71,l),
(27,-133,l)
);
}
);
width = 280;
}
);
unicode = 93;
}
{
glyphname = asciicircum;
layers = (
{
hints = (
{
place = (75, 359);
place = (75, 359);
type = Stem;
},
{
horizontal = 1;
place = (668, -20);
target = down;
type = TopGhost;
}
);
layerId = UUID0;
shapes = (
{
closed = 1;
nodes = (
(145,355,l),
(255,570,l),
(364,355,l),
(434,355,l),
(285,668,l),
(224,668,l),
(75,355,l)
);
}
);
width = 509;
}
);
unicode = 94;
}
{
glyphname = underscore;
layers = (
{
hints = (
{
place = (50, 500);
place = (50, 500);
type = Stem;
},
{
horizontal = 1;
place = (-128, 55);
place = (-128, 55);
type = Stem;
}
);
layerId = UUID0;
shapes = (
{
closed = 1;
nodes = (
(550,-128,l),
(550,-73,l),
(50,-73,l),
(50,-128,l)
);
}
);
width = 600;
}
);
unicode = 95;
}
{
glyphname = grave;
layers = (
{
hints = (
{
place = (93,168);
type = Stem;
},
{
horizontal = 1;
place = (570,105);
type = Stem;
}
);
layerId = UUID0;
shapes = (
{
closed = 1;
nodes = (
(261,570,l),
(200,675,l),
(93,675,l),
(200,570,l)
);
}
);
width = 340;
}
);
unicode = 96;
}
{
glyphname = a;
kernLeft = o;
kernRight = a;
layers = (
{
anchors = (
{
name = bottom;
pos = (298,0);
},
{
name = ogonek;
pos = (540,0);
},
{
name = top;
pos = (298,500);
}
);
hints = (
{
place = (34, 75);
place = (34, 75);
type = Stem;
},
{
place = (455, 75);
place = (455, 75);
type = Stem;
},
{
horizontal = 1;
place = (-8, 68);
place = (-8, 68);
type = Stem;
},
{
horizontal = 1;
place = (440, 68);
place = (440, 68);
type = Stem;
},
{
horizontal = 1;
place = (0, 21);
target = up;
type = BottomGhost;
},
{
horizontal = 1;
place = (500, -20);
target = down;
type = TopGhost;
}
);
layerId = UUID0;
shapes = (
{
closed = 1;
nodes = (
(359,-8,o),
(418,26,o),
(455,80,cs),
(455,0,l),
(530,0,l),
(530,500,l),
(455,500,l),
(455,419,l),
(418,473,o),
(359,508,o),
(276,508,cs),
(130,508,o),
(34,393,o),
(34,250,cs),
(34,107,o),
(130,-8,o),
(276,-8,cs)
);
},
{
closed = 1;
nodes = (
(175,60,o),
(109,147,o),
(109,250,cs),
(109,353,o),
(175,440,o),
(286,440,cs),
(397,440,o),
(459,353,o),
(459,250,cs),
(459,147,o),
(397,60,o),
(286,60,cs)
);
}
);
width = 595;
}
);
metricLeft = o;
unicode = 97;
}
{
glyphname = c;
kernLeft = o;
kernRight = c;
layers = (
{
anchors = (
{
name = bottom;
pos = (272,0);
},
{
name = ogonek;
pos = (352,0);
},
{
name = top;
pos = (272,500);
}
);
hints = (
{
place = (34, 75);
place = (34, 75);
type = Stem;
},
{
horizontal = 1;
place = (-8, 68);
place = (-8, 68);
type = Stem;
},
{
horizontal = 1;
place = (440, 68);
place = (440, 68);
type = Stem;
}
);
layerId = UUID0;
shapes = (
{
closed = 1;
nodes = (
(398,-8,o),
(487,60,o),
(516,157,c),
(435,157,l),
(412,100,o),
(361,60,o),
(290,60,cs),
(179,60,o),
(109,147,o),
(109,250,cs),
(109,353,o),
(179,440,o),
(290,440,cs),
(361,440,o),
(412,400,o),
(435,343,c),
(516,343,l),
(487,440,o),
(398,508,o),
(280,508,cs),
(130,508,o),
(34,393,o),
(34,250,cs),
(34,107,o),
(130,-8,o),
(280,-8,cs)
);
}
);
width = 544;
}
);
metricLeft = o;
unicode = 99;
}
{
glyphname = d;
kernLeft = o;
kernRight = l;
layers = (
{
anchors = (
{
name = bottom;
pos = (298,0);
},
{
name = center;
pos = (298,250);
},
{
name = top;
pos = (282,500);
},
{
name = topright;
pos = (575,500);
}
);
hints = (
{
place = (34, 75);
place = (34, 75);
type = Stem;
},
{
place = (455, 75);
place = (455, 75);
type = Stem;
},
{
horizontal = 1;
place = (-8, 68);
place = (-8, 68);
type = Stem;
},
{
horizontal = 1;
place = (440, 68);
place = (440, 68);
type = Stem;
},
{
horizontal = 1;
place = (0, 21);
target = up;
type = BottomGhost;
}
);
layerId = UUID0;
shapes = (
{
closed = 1;
nodes = (
(359,-8,o),
(418,26,o),
(455,80,c),
(455,0,l),
(530,0,l),
(530,700,l),
(455,700,l),
(455,419,l),
(418,473,o),
(359,508,o),
(276,508,cs),
(130,508,o),
(34,393,o),
(34,250,cs),
(34,107,o),
(130,-8,o),
(276,-8,cs)
);
},
{
closed = 1;
nodes = (
(175,60,o),
(109,147,o),
(109,250,cs),
(109,353,o),
(175,440,o),
(286,440,cs),
(397,440,o),
(459,353,o),
(459,250,cs),
(459,147,o),
(397,60,o),
(286,60,cs)
);
}
);
width = 595;
}
);
metricRight = l;
unicode = 100;
}
{
glyphname = e;
kernLeft = o;
kernRight = e;
layers = (
{
anchors = (
{
name = bottom;
pos = (279,0);
},
{
name = ogonek;
pos = (399,0);
},
{
name = top;
pos = (279,500);
}
);
hints = (
{
place = (34,77);
type = Stem;
},
{
horizontal = 1;
place = (-8,68);
type = Stem;
},
{
horizontal = 1;
place = (220,70);
type = Stem;
},
{
horizontal = 1;
place = (440,68);
type = Stem;
}
);
layerId = UUID0;
shapes = (
{
closed = 1;
nodes = (
(406,-8,o),
(480,54,o),
(515,144,c),
(433,144,l),
(406,94,o),
(358,60,o),
(288,60,cs),
(187,60,o),
(122,131,o),
(111,220,c),
(530,220,l),
(530,250,ls),
(530,393,o),
(435,508,o),
(282,508,cs),
(129,508,o),
(34,393,o),
(34,250,cs),
(34,107,o),
(134,-8,o),
(287,-8,cs)
);
},
{
closed = 1;
nodes = (
(126,375,o),
(186,440,o),
(282,440,cs),
(378,440,o),
(438,375,o),
(452,290,c),
(112,290,l)
);
}
);
width = 557;
}
);
metricLeft = o;
unicode = 101;
}
{
glyphname = f;
kernLeft = f;
kernRight = f;
layers = (
{
anchors = (
{
name = bottom;
pos = (154,0);
},
{
name = top;
pos = (154,700);
}
);
hints = (
{
place = (99, 75);
place = (99, 75);
type = Stem;
},
{
horizontal = 1;
place = (0, 21);
target = up;
type = BottomGhost;
},
{
horizontal = 1;
place = (434, 66);
place = (434, 66);
type = Stem;
},
{
horizontal = 1;
place = (637, 71);
place = (637, 71);
type = Stem;
}
);
layerId = UUID0;
shapes = (
{
closed = 1;
nodes = (
(174,0,l),
(174,434,l),
(290,434,l),
(290,500,l),
(174,500,l),
(174,538,ls),
(174,607,o),
(210,637,o),
(280,637,cs),
(290,637,l),
(290,708,l),
(284,708,ls),
(169,708,o),
(99,653,o),
(99,544,cs),
(99,500,l),
(13,500,l),
(13,434,l),
(99,434,l),
(99,0,l)
);
}
);
width = 307;
}
);
unicode = 102;
}
{
glyphname = g;
kernLeft = o;
kernRight = a;
layers = (
{
anchors = (
{
name = bottom;
pos = (298,-198);
},
{
name = top;
pos = (298,500);
}
);
hints = (
{
place = (34,75);
type = Stem;
},
{
place = (455,75);
type = Stem;
},
{
horizontal = 1;
place = (-206,68);
type = Stem;
},
{
horizontal = 1;
place = (0,68);
type = Stem;
},
{
horizontal = 1;
place = (500,-20);
target = down;
type = TopGhost;
},
{
horizontal = 1;
place = (440,68);
type = Stem;
}
);
layerId = UUID0;
shapes = (
{
closed = 1;
nodes = (
(444,-206,o),
(530,-128,o),
(530,15,cs),
(530,500,l),
(455,500,l),
(455,420,l),
(418,474,o),
(359,508,o),
(276,508,cs),
(130,508,o),
(34,397,o),
(34,254,cs),
(34,111,o),
(130,0,o),
(276,0,cs),
(359,0,o),
(418,35,o),
(455,89,c),
(455,20,ls),
(455,-83,o),
(405,-138,o),
(290,-138,cs),
(214,-138,o),
(164,-109,o),
(144,-60,c),
(61,-60,l),
(89,-147,o),
(168,-206,o),
(294,-206,cs)
);
},
{
closed = 1;
nodes = (
(175,68,o),
(109,151,o),
(109,254,cs),
(109,357,o),
(175,440,o),
(286,440,cs),
(395,440,o),
(459,357,o),
(459,254,cs),
(459,151,o),
(395,68,o),
(286,68,cs)
);
}
);
width = 595;
}
);
metricLeft = o;
metricRight = a;
unicode = 103;
}
{
glyphname = h;
kernLeft = h;
kernRight = n;
layers = (
{
anchors = (
{
name = bottom;
pos = (283,0);
},
{
name = center;
pos = (112,574);
},
{
name = ogonek;
pos = (516,0);
},
{
name = top;
pos = (102,700);
}
);
hints = (
{
place = (65,75);
type = Stem;
},
{
place = (431,75);
type = Stem;
},
{
horizontal = 1;
place = (0,21);
target = up;
type = BottomGhost;
},
{
horizontal = 1;
place = (440,68);
type = Stem;
}
);
layerId = UUID0;
shapes = (
{
closed = 1;
nodes = (
(140,0,l),
(140,288,ls),
(140,378,o),
(208,440,o),
(291,440,cs),
(373,440,o),
(431,380,o),
(431,289,cs),
(431,0,l),
(506,0,l),
(506,291,ls),
(506,433,o),
(409,508,o),
(306,508,cs),
(225,508,o),
(176,470,o),
(140,422,c),
(140,700,l),
(65,700,l),
(65,0,l)
);
}
);
width = 566;
}
);
unicode = 104;
}
{
glyphname = i;
kernLeft = i;
kernRight = i;
layers = (
{
anchors = (
{
name = bottom;
pos = (103,0);
}
);
hints = (
{
place = (65,75);
type = Stem;
},
{
place = (62,81);
type = Stem;
},
{
horizontal = 1;
place = (0,21);
target = up;
type = BottomGhost;
},
{
horizontal = 1;
place = (500,-20);
target = down;
type = TopGhost;
},
{
horizontal = 1;
place = (584,98);
type = Stem;
}
);
layerId = UUID0;
shapes = (
{
closed = 1;
nodes = (
(143,584,l),
(143,682,l),
(62,682,l),
(62,584,l)
);
},
{
closed = 1;
nodes = (
(140,0,l),
(140,500,l),
(65,500,l),
(65,0,l)
);
}
);
width = 205;
}
);
unicode = 105;
}
{
glyphname = k;
kernLeft = h;
kernRight = k;
layers = (
{
anchors = (
{
name = bottom;
pos = (251,0);
},
{
name = ogonek;
pos = (501,0);
},
{
name = top;
pos = (105,700);
}
);
hints = (
{
place = (65,75);
type = Stem;
},
{
horizontal = 1;
place = (0,21);
target = up;
type = BottomGhost;
},
{
horizontal = 1;
place = (500,-20);
target = down;
type = TopGhost;
}
);
layerId = UUID0;
shapes = (
{
closed = 1;
nodes = (
(140,0,l),
(140,158,l),
(234,251,l),
(409,0,l),
(501,0,l),
(285,303,l),
(486,500,l),
(381,500,l),
(140,252,l),
(140,700,l),
(65,700,l),
(65,0,l)
);
}
);
width = 502;
}
);
unicode = 107;
}
{
glyphname = l;
kernLeft = h;
kernRight = l;
layers = (
{
anchors = (
{
name = bottom;
pos = (103,0);
},
{
name = center;
pos = (103,350);
},
{
name = ogonek;
pos = (150,1);
},
{
name = top;
pos = (103,700);
},
{
name = topright;
pos = (185,499);
}
);
hints = (
{
place = (65,75);
type = Stem;
},
{
horizontal = 1;
place = (0,21);
target = up;
type = BottomGhost;
}
);
layerId = UUID0;
shapes = (
{
closed = 1;
nodes = (
(140,0,l),
(140,700,l),
(65,700,l),
(65,0,l)
);
}
);
width = 205;
}
);
unicode = 108;
}
{
glyphname = m;
kernLeft = n;
kernRight = n;
layers = (
{
anchors = (
{
name = bottom;
pos = (434,0);
},
{
name = ogonek;
pos = (818,0);
},
{
name = top;
pos = (434,500);
}
);
hints = (
{
place = (65, 75);
place = (65, 75);
type = Stem;
},
{
place = (399, 75);
place = (399, 75);
type = Stem;
},
{
place = (733, 75);
place = (733, 75);
type = Stem;
},
{
horizontal = 1;
place = (0, 21);
target = up;
type = BottomGhost;
},
{
horizontal = 1;
place = (440, 68);
place = (440, 68);
type = Stem;
},
{
horizontal = 1;
place = (500, -20);
target = down;
type = TopGhost;
}
);
layerId = UUID0;
shapes = (
{
closed = 1;
nodes = (
(140,0,l),
(140,299,ls),
(140,388,o),
(201,440,o),
(275,440,cs),
(345,440,o),
(399,384,o),
(399,300,cs),
(399,0,l),
(474,0,l),
(474,299,ls),
(474,388,o),
(535,440,o),
(609,440,cs),
(679,440,o),
(733,384,o),
(733,300,cs),
(733,0,l),
(808,0,l),
(808,302,ls),
(808,428,o),
(719,508,o),
(623,508,cs),
(524,508,o),
(471,441,o),
(451,407,c),
(419,471,o),
(358,508,o),
(292,508,cs),
(211,508,o),
(163,464,o),
(140,424,c),
(140,500,l),
(65,500,l),
(65,0,l)
);
}
);
width = 868;
}
);
metricLeft = n;
metricRight = n;
unicode = 109;
}
{
glyphname = o;
kernLeft = o;
kernRight = o;
layers = (
{
anchors = (
{
name = bottom;
pos = (282,0);
},
{
name = center;
pos = (282,250);
},
{
name = ogonek;
pos = (368,0);
},
{
name = top;
pos = (282,500);
},
{
name = topright;
pos = (544,500);
}
);
hints = (
{
place = (34, 75);
place = (34, 75);
type = Stem;
},
{
place = (455, 75);
place = (455, 75);
type = Stem;
},
{
horizontal = 1;
place = (-8, 68);
place = (-8, 68);
type = Stem;
},
{
horizontal = 1;
place = (440, 68);
place = (440, 68);
type = Stem;
}
);
layerId = UUID0;
shapes = (
{
closed = 1;
nodes = (
(435,-8,o),
(530,107,o),
(530,250,cs),
(530,393,o),
(435,508,o),
(282,508,cs),
(129,508,o),
(34,393,o),
(34,250,cs),
(34,107,o),
(129,-8,o),
(282,-8,cs)
);
},
{
closed = 1;
nodes = (
(171,60,o),
(109,147,o),
(109,250,cs),
(109,353,o),
(171,440,o),
(282,440,cs),
(393,440,o),
(455,353,o),
(455,250,cs),
(455,147,o),
(393,60,o),
(282,60,cs)
);
}
);
width = 564;
}
);
unicode = 111;
}
{
glyphname = q;
kernLeft = o;
kernRight = a;
layers = (
{
anchors = (
{
name = bottom;
pos = (298,0);
},
{
name = top;
pos = (298,500);
}
);
hints = (
{
place = (34,75);
type = Stem;
},
{
place = (455,75);
type = Stem;
},
{
horizontal = 1;
place = (-198,21);
target = up;
type = BottomGhost;
},
{
horizontal = 1;
place = (-8,68);
type = Stem;
},
{
horizontal = 1;
place = (440,68);
type = Stem;
},
{
horizontal = 1;
place = (500,-20);
target = down;
type = TopGhost;
}
);
layerId = UUID0;
shapes = (
{
closed = 1;
nodes = (
(530,-198,l),
(530,500,l),
(455,500,l),
(455,420,l),
(418,474,o),
(359,508,o),
(276,508,cs),
(130,508,o),
(34,393,o),
(34,250,cs),
(34,107,o),
(130,-8,o),
(276,-8,cs),
(359,-8,o),
(418,27,o),
(455,81,c),
(455,-198,l)
);
},
{
closed = 1;
nodes = (
(175,60,o),
(109,147,o),
(109,250,cs),
(109,353,o),
(175,440,o),
(286,440,cs),
(397,440,o),
(459,353,o),
(459,250,cs),
(459,147,o),
(397,60,o),
(286,60,cs)
);
}
);
width = 595;
}
);
metricLeft = o;
metricRight = a;
unicode = 113;
}
{
glyphname = r;
kernLeft = n;
kernRight = r;
layers = (
{
anchors = (
{
name = bottom;
pos = (103,0);
},
{
name = ogonek;
pos = (150,0);
},
{
name = top;
pos = (173,500);
}
);
hints = (
{
place = (65, 75);
place = (65, 75);
type = Stem;
},
{
horizontal = 1;
place = (0, 21);
target = up;
type = BottomGhost;
},
{
horizontal = 1;
place = (433, 75);
place = (433, 75);
type = Stem;
},
{
horizontal = 1;
place = (500, -20);
target = down;
type = TopGhost;
}
);
layerId = UUID0;
shapes = (
{
closed = 1;
nodes = (
(140,0,l),
(140,220,ls),
(140,330,o),
(208,433,o),
(320,433,cs),
(329,433,l),
(329,508,l),
(324,508,ls),
(200,508,o),
(150,411,o),
(140,377,c),
(140,500,l),
(65,500,l),
(65,0,l)
);
}
);
width = 345;
}
);
unicode = 114;
}
{
glyphname = s;
kernLeft = s;
kernRight = s;
layers = (
{
anchors = (
{
name = bottom;
pos = (241,0);
},
{
name = ogonek;
pos = (313,0);
},
{
name = top;
pos = (241,500);
}
);
hints = (
{
place = (43, 75);
place = (43, 75);
type = Stem;
},
{
place = (376, 75);
place = (376, 75);
type = Stem;
},
{
horizontal = 1;
place = (-8, 64);
place = (-8, 64);
type = Stem;
},
{
horizontal = 1;
place = (225, 60);
place = (225, 60);
type = Stem;
},
{
horizontal = 1;
place = (444, 64);
place = (444, 64);
type = Stem;
}
);
layerId = UUID0;
shapes = (
{
closed = 1;
nodes = (
(371,-8,o),
(451,45,o),
(451,142,cs),
(451,330,o),
(118,252,o),
(118,372,cs),
(118,421,o),
(159,444,o),
(237,444,cs),
(321,444,o),
(353,409,o),
(359,366,c),
(435,366,l),
(426,439,o),
(371,508,o),
(239,508,cs),
(110,508,o),
(43,455,o),
(43,365,cs),
(43,182,o),
(376,260,o),
(376,135,cs),
(376,67,o),
(289,56,o),
(248,56,cs),
(151,56,o),
(113,106,o),
(108,157,c),
(30,157,l),
(35,69,o),
(108,-8,o),
(247,-8,cs)
);
}
);
width = 482;
}
);
unicode = 115;
}
{
glyphname = t;
kernLeft = t;
kernRight = t;
layers = (
{
anchors = (
{
name = bottom;
pos = (156,0);
},
{
name = center;
pos = (163,250);
},
{
name = ogonek;
pos = (204,0);
},
{
name = top;
pos = (157,679);
},
{
name = topright;
pos = (306,500);
}
);
hints = (
{
place = (119,75);
type = Stem;
},
{
horizontal = 1;
place = (0,21);
target = up;
type = BottomGhost;
},
{
horizontal = 1;
place = (434,66);
type = Stem;
}
);
layerId = UUID0;
shapes = (
{
closed = 1;
nodes = (
(194,0,l),
(194,434,l),
(309,434,l),
(309,500,l),
(194,500,l),
(194,679,l),
(119,679,l),
(119,500,l),
(17,500,l),
(17,434,l),
(119,434,l),
(119,0,l)
);
}
);
width = 326;
}
);
unicode = 116;
}
{
glyphname = v;
kernLeft = v;
kernRight = v;
layers = (
{
anchors = (
{
name = bottom;
pos = (245,0);
},
{
name = ogonek;
pos = (299,0);
},
{
name = top;
pos = (245,500);
}
);
hints = (
{
place = (5, 479);
place = (5, 479);
type = Stem;
},
{
horizontal = 1;
place = (0, 21);
target = up;
type = BottomGhost;
},
{
horizontal = 1;
place = (500, -20);
target = down;
type = TopGhost;
},
{
horizontal = 1;
place = (0, 80);
place = (0, 80);
type = Stem;
}
);
layerId = UUID0;
shapes = (
{
closed = 1;
nodes = (
(289,0,l),
(484,500,l),
(402,500,l),
(245,80,l),
(87,500,l),
(5,500,l),
(201,0,l)
);
}
);
width = 489;
}
);
unicode = 118;
}
{
glyphname = w;
kernLeft = v;
kernRight = v;
layers = (
{
anchors = (
{
name = bottom;
pos = (373,0);
},
{
name = top;
pos = (373,500);
}
);
hints = (
{
place = (9, 736);
place = (9, 736);
type = Stem;
},
{
horizontal = 1;
place = (0, 21);
target = up;
type = BottomGhost;
},
{
horizontal = 1;
place = (500, -20);
target = down;
type = TopGhost;
},
{
horizontal = 1;
place = (0, 93);
place = (0, 93);
type = Stem;
},
{
horizontal = 1;
place = (399, 101);
place = (399, 101);
type = Stem;
}
);
layerId = UUID0;
shapes = (
{
closed = 1;
nodes = (
(248,0,l),
(373,399,l),
(498,0,l),
(584,0,l),
(741,500,l),
(661,500,l),
(541,93,l),
(414,500,l),
(332,500,l),
(205,93,l),
(85,500,l),
(5,500,l),
(162,0,l)
);
}
);
width = 746;
}
);
metricLeft = v;
metricRight = v;
unicode = 119;
}
{
glyphname = x;
kernLeft = x;
kernRight = x;
layers = (
{
anchors = (
{
name = bottom;
pos = (241,0);
},
{
name = top;
pos = (241,500);
}
);
hints = (
{
place = (4, 474);
place = (4, 474);
type = Stem;
},
{
horizontal = 1;
place = (0, 21);
target = up;
type = BottomGhost;
},
{
horizontal = 1;
place = (500, -20);
target = down;
type = TopGhost;
}
);
layerId = UUID0;
shapes = (
{
closed = 1;
nodes = (
(99,0,l),
(241,204,l),
(382,0,l),
(478,0,l),
(284,258,l),
(465,500,l),
(369,500,l),
(241,311,l),
(112,500,l),
(16,500,l),
(197,258,l),
(4,0,l)
);
}
);
width = 482;
}
);
unicode = 120;
}
{
glyphname = y;
kernLeft = y;
kernRight = y;
layers = (
{
anchors = (
{
name = bottom;
pos = (249,0);
},
{
name = ogonek;
pos = (208,-196);
},
{
name = top;
pos = (249,500);
}
);
hints = (
{
place = (4,490);
type = Stem;
},
{
horizontal = 1;
place = (-198,21);
target = up;
type = BottomGhost;
},
{
horizontal = 1;
place = (500,-20);
target = down;
type = TopGhost;
}
);
layerId = UUID0;
shapes = (
{
closed = 1;
nodes = (
(198,-198,l),
(494,500,l),
(412,500,l),
(248,90,l),
(87,500,l),
(4,500,l),
(208,7,l),
(117,-198,l)
);
}
);
width = 497;
}
);
unicode = 121;
}
{
glyphname = z;
kernLeft = z;
kernRight = z;
layers = (
{
anchors = (
{
name = bottom;
pos = (229,0);
},
{
name = center;
pos = (229,250);
},
{
name = ogonek;
pos = (435,0);
},
{
name = top;
pos = (229,500);
}
);
hints = (
{
place = (31, 394);
place = (31, 394);
type = Stem;
},
{
horizontal = 1;
place = (0, 70);
place = (0, 70);
type = Stem;
},
{
horizontal = 1;
place = (431, 69);
place = (431, 69);
type = Stem;
}
);
layerId = UUID0;
shapes = (
{
closed = 1;
nodes = (
(425,0,l),
(425,70,l),
(125,70,l),
(425,430,l),
(425,500,l),
(35,500,l),
(35,431,l),
(330,431,l),
(31,71,l),
(31,0,l)
);
}
);
width = 458;
}
);
unicode = 122;
}
{
glyphname = braceleft;
layers = (
{
hints = (
{
place = (100,66);
type = Stem;
},
{
horizontal = 1;
place = (-133,54);
type = Stem;
},
{
horizontal = 1;
place = (250,46);
type = Stem;
},
{
horizontal = 1;
place = (625,54);
type = Stem;
}
);
layerId = UUID0;
shapes = (
{
closed = 1;
nodes = (
(269,-79,l),
(189,-78,o),
(166,-58,o),
(166,12,cs),
(166,144,ls),
(166,219,o),
(133,255,o),
(96,273,c),
(133,291,o),
(166,327,o),
(166,402,cs),
(166,534,ls),
(166,604,o),
(189,624,o),
(269,625,c),
(269,679,l),
(174,679,o),
(100,670,o),
(100,535,cs),
(100,391,ls),
(100,325,o),
(52,296,o),
(21,296,c),
(21,250,l),
(52,250,o),
(100,221,o),
(100,155,cs),
(100,11,ls),
(100,-124,o),
(174,-133,o),
(269,-133,c)
);
}
);
width = 294;
}
);
unicode = 123;
}
{
glyphname = bar;
layers = (
{
hints = (
{
place = (65, 61);
place = (65, 61);
type = Stem;
},
{
horizontal = 1;
place = (-179, 927);
place = (-179, 927);
type = Stem;
}
);
layerId = UUID0;
shapes = (
{
closed = 1;
nodes = (
(126,-179,l),
(126,748,l),
(65,748,l),
(65,-179,l)
);
}
);
width = 191;
}
);
unicode = 124;
}
{
glyphname = braceright;
layers = (
{
hints = (
{
place = (128, 66);
place = (128, 66);
type = Stem;
},
{
horizontal = 1;
place = (-133, 54);
place = (-133, 54);
type = Stem;
},
{
horizontal = 1;
place = (250, 46);
place = (250, 46);
type = Stem;
},
{
horizontal = 1;
place = (625, 54);
place = (625, 54);
type = Stem;
}
);
layerId = UUID0;
shapes = (
{
closed = 1;
nodes = (
(120,-133,o),
(194,-124,o),
(194,11,cs),
(194,155,ls),
(194,221,o),
(242,250,o),
(273,250,c),
(273,296,l),
(242,296,o),
(194,325,o),
(194,391,cs),
(194,535,ls),
(194,670,o),
(120,679,o),
(25,679,c),
(25,625,l),
(105,624,o),
(128,604,o),
(128,534,cs),
(128,402,ls),
(128,327,o),
(161,291,o),
(198,273,c),
(161,255,o),
(128,219,o),
(128,144,cs),
(128,12,ls),
(128,-58,o),
(105,-78,o),
(25,-79,c),
(25,-133,l)
);
}
);
width = 294;
}
);
unicode = 125;
}
{
glyphname = asciitilde;
layers = (
{
hints = (
{
place = (48, 430);
place = (48, 430);
type = Stem;
},
{
horizontal = 1;
place = (226, 62);
place = (226, 62);
type = Stem;
},
{
horizontal = 1;
place = (286, 63);
place = (286, 63);
type = Stem;
}
);
layerId = UUID0;
shapes = (
{
closed = 1;
nodes = (
(79,215,l),
(85,232,o),
(93,286,o),
(155,286,cs),
(201,286,o),
(297,226,o),
(367,226,cs),
(454,226,o),
(471,311,o),
(478,360,c),
(446,360,l),
(441,343,o),
(431,288,o),
(371,288,cs),
(325,288,o),
(229,349,o),
(160,349,cs),
(72,349,o),
(54,264,o),
(48,215,c)
);
}
);
width = 524;
}
);
unicode = 126;
}
{
glyphname = cent;
layers = (
{
hints = (
{
place = (48, 75);
place = (48, 75);
type = Stem;
},
{
place = (280, 36);
place = (280, 36);
type = Stem;
},
{
horizontal = 1;
place = (-7, 67);
place = (-7, 67);
type = Stem;
},
{
horizontal = 1;
place = (440, 67);
place = (440, 67);
type = Stem;
}
);
layerId = UUID0;
shapes = (
{
closed = 1;
nodes = (
(316,-101,l),
(316,-7,l),
(423,1,o),
(503,66,o),
(530,157,c),
(449,157,l),
(427,103,o),
(381,65,o),
(316,60,c),
(316,440,l),
(381,435,o),
(427,397,o),
(449,343,c),
(530,343,l),
(503,434,o),
(423,499,o),
(316,507,c),
(316,595,l),
(280,595,l),
(280,508,l),
(138,501,o),
(48,388,o),
(48,250,cs),
(48,112,o),
(138,-1,o),
(280,-8,c),
(280,-101,l)
);
},
{
closed = 1;
nodes = (
(183,73,o),
(123,155,o),
(123,250,cs),
(123,345,o),
(183,427,o),
(280,439,c),
(280,61,l)
);
}
);
width = 574;
}
);
unicode = 162;
}
{
glyphname = sterling;
layers = (
{
hints = (
{
place = (128,73);
type = Stem;
},
{
horizontal = 1;
place = (0,70);
type = Stem;
},
{
horizontal = 1;
place = (319,58);
type = Stem;
},
{
horizontal = 1;
place = (599,71);
type = Stem;
}
);
layerId = UUID0;
shapes = (
{
closed = 1;
nodes = (
(504,0,l),
(504,70,l),
(201,70,l),
(201,319,l),
(349,319,l),
(349,377,l),
(201,377,l),
(201,446,ls),
(201,514,o),
(215,599,o),
(336,599,cs),
(411,599,o),
(446,560,o),
(460,518,c),
(531,518,l),
(514,597,o),
(459,670,o),
(333,670,cs),
(182,670,o),
(128,565,o),
(128,449,cs),
(128,377,l),
(57,377,l),
(57,319,l),
(128,319,l),
(128,70,l),
(48,61,l),
(48,0,l)
);
}
);
width = 575;
}
);
unicode = 163;
}
{
glyphname = currency;
layers = (
{
hints = (
{
place = (71,61);
type = Stem;
},
{
place = (436,60);
type = Stem;
},
{
horizontal = 1;
place = (111,61);
type = Stem;
},
{
horizontal = 1;
place = (476,60);
type = Stem;
}
);
layerId = UUID0;
shapes = (
{
closed = 1;
nodes = (
(157,153,l),
(193,126,o),
(236,111,o),
(284,111,cs),
(331,111,o),
(375,126,o),
(410,153,c),
(475,88,l),
(519,133,l),
(455,197,l),
(481,233,o),
(496,276,o),
(496,324,cs),
(496,371,o),
(481,415,o),
(455,450,c),
(519,515,l),
(475,560,l),
(410,495,l),
(375,521,o),
(331,536,o),
(284,536,cs),
(236,536,o),
(193,521,o),
(157,495,c),
(93,560,l),
(48,515,l),
(112,450,l),
(86,415,o),
(71,371,o),
(71,324,cs),
(71,276,o),
(86,233,o),
(112,197,c),
(48,133,l),
(93,88,l)
);
},
{
closed = 1;
nodes = (
(200,172,o),
(132,240,o),
(132,324,cs),
(132,408,o),
(200,476,o),
(284,476,cs),
(368,476,o),
(436,408,o),
(436,324,cs),
(436,240,o),
(368,172,o),
(284,172,cs)
);
}
);
width = 567;
}
);
unicode = 164;
}
{
glyphname = yen;
layers = (
{
hints = (
{
place = (291, 75);
place = (291, 75);
type = Stem;
},
{
horizontal = 1;
place = (125, 65);
place = (125, 65);
type = Stem;
},
{
horizontal = 1;
place = (289, 65);
place = (289, 65);
type = Stem;
},
{
horizontal = 1;
place = (662, -20);
target = down;
type = TopGhost;
},
{
horizontal = 1;
place = (0, 190);
place = (0, 190);
type = Stem;
}
);
layerId = UUID0;
shapes = (
{
closed = 1;
nodes = (
(366,0,l),
(366,125,l),
(559,125,l),
(559,190,l),
(366,190,l),
(366,262,l),
(383,289,l),
(559,289,l),
(559,354,l),
(424,354,l),
(620,662,l),
(529,662,l),
(328,340,l),
(128,662,l),
(37,662,l),
(232,354,l),
(98,354,l),
(98,289,l),
(274,289,l),
(291,262,l),
(291,190,l),
(98,190,l),
(98,125,l),
(291,125,l),
(291,0,l)
);
}
);
width = 657;
}
);
unicode = 165;
}
{
glyphname = brokenbar;
layers = (
{
hints = (
{
place = (65, 61);
place = (65, 61);
type = Stem;
},
{
horizontal = 1;
place = (-179, 927);
place = (-179, 927);
type = Stem;
}
);
layerId = UUID0;
shapes = (
{
closed = 1;
nodes = (
(126,393,l),
(126,748,l),
(65,748,l),
(65,393,l)
);
},
{
closed = 1;
nodes = (
(65,177,l),
(65,-179,l),
(126,-179,l),
(126,177,l)
);
}
);
width = 191;
}
);
unicode = 166;
}
{
glyphname = section;
layers = (
{
hints = (
{
place = (47, 73);
place = (47, 73);
type = Stem;
},
{
place = (362, 73);
place = (362, 73);
type = Stem;
},
{
place = (86, 73);
place = (86, 73);
type = Stem;
},
{
place = (401, 73);
place = (401, 73);
type = Stem;
},
{
horizontal = 1;
place = (-178, 67);
place = (-178, 67);
type = Stem;
},
{
horizontal = 1;
place = (602, 67);
place = (602, 67);
type = Stem;
}
);
layerId = UUID0;
shapes = (
{
closed = 1;
nodes = (
(322,-178,o),
(435,-150,o),
(435,-25,cs),
(435,15,o),
(420,47,o),
(396,74,c),
(446,94,o),
(474,132,o),
(474,193,cs),
(474,352,o),
(159,398,o),
(159,524,cs),
(159,575,o),
(203,602,o),
(264,602,cs),
(338,602,o),
(383,556,o),
(391,510,c),
(460,510,l),
(452,596,o),
(377,669,o),
(267,669,cs),
(195,669,o),
(86,641,o),
(86,516,cs),
(86,476,o),
(101,444,o),
(124,416,c),
(75,396,o),
(47,358,o),
(47,298,cs),
(47,139,o),
(362,93,o),
(362,-33,cs),
(362,-84,o),
(314,-111,o),
(253,-111,cs),
(179,-111,o),
(130,-65,o),
(122,-19,c),
(53,-19,l),
(61,-105,o),
(140,-178,o),
(250,-178,cs)
);
},
{
closed = 1;
nodes = (
(267,183,o),
(120,222,o),
(120,316,cs),
(120,348,o),
(135,369,o),
(161,382,c),
(254,308,o),
(401,268,o),
(401,175,cs),
(401,142,o),
(385,121,o),
(360,109,c)
);
}
);
width = 519;
}
);
unicode = 167;
}
{
glyphname = dieresis;
layers = (
{
hints = (
{
place = (74,89);
type = Stem;
},
{
place = (231,89);
type = Stem;
},
{
horizontal = 1;
place = (579,83);
type = Stem;
}
);
layerId = UUID0;
shapes = (
{
closed = 1;
nodes = (
(89,579,l),
(89,662,l),
(0,662,l),
(0,579,l)
);
},
{
closed = 1;
nodes = (
(246,579,l),
(246,662,l),
(157,662,l),
(157,579,l)
);
}
);
width = 246;
}
);
unicode = 168;
}
{
glyphname = copyright;
layers = (
{
hints = (
{
place = (47, 49);
place = (47, 49);
type = Stem;
},
{
place = (202, 68);
place = (202, 68);
type = Stem;
},
{
place = (683, 49);
place = (683, 49);
type = Stem;
},
{
horizontal = 1;
place = (-13, 49);
place = (-13, 49);
type = Stem;
},
{
horizontal = 1;
place = (133, 64);
place = (133, 64);
type = Stem;
},
{
horizontal = 1;
place = (461, 63);
place = (461, 63);
type = Stem;
},
{
horizontal = 1;
place = (623, 49);
place = (623, 49);
type = Stem;
}
);
layerId = UUID0;
shapes = (
{
closed = 1;
nodes = (
(578,-13,o),
(732,140,o),
(732,329,cs),
(732,519,o),
(578,672,o),
(389,672,cs),
(200,672,o),
(47,519,o),
(47,329,cs),
(47,140,o),
(200,-13,o),
(389,-13,cs)
);
},
{
closed = 1;
nodes = (
(227,36,o),
(96,168,o),
(96,329,cs),
(96,491,o),
(227,623,o),
(389,623,cs),
(551,623,o),
(683,491,o),
(683,329,cs),
(683,168,o),
(551,36,o),
(389,36,cs)
);
},
{
closed = 1;
nodes = (
(480,133,o),
(554,179,o),
(569,276,c),
(502,276,l),
(493,227,o),
(452,197,o),
(394,197,cs),
(317,197,o),
(270,251,o),
(270,329,cs),
(270,407,o),
(317,461,o),
(394,461,cs),
(452,461,o),
(493,431,o),
(502,382,c),
(569,382,l),
(554,478,o),
(480,524,o),
(389,524,cs),
(273,524,o),
(202,442,o),
(202,329,cs),
(202,216,o),
(273,133,o),
(389,133,cs)
);
}
);
width = 779;
}
);
unicode = 169;
}
{
glyphname = ordfeminine;
layers = (
{
hints = (
{
place = (37,52);
type = Stem;
},
{
place = (262,52);
type = Stem;
},
{
horizontal = 1;
place = (392,48);
type = Stem;
},
{
horizontal = 1;
place = (618,48);
type = Stem;
},
{
horizontal = 1;
place = (662,-20);
target = down;
type = TopGhost;
}
);
layerId = UUID0;
shapes = (
{
closed = 1;
nodes = (
(211,392,o),
(242,410,o),
(262,439,c),
(262,396,l),
(314,396,l),
(314,662,l),
(262,662,l),
(262,619,l),
(242,647,o),
(211,666,o),
(167,666,cs),
(87,666,o),
(37,605,o),
(37,529,cs),
(37,453,o),
(87,392,o),
(167,392,cs)
);
},
{
closed = 1;
nodes = (
(119,440,o),
(89,477,o),
(89,529,cs),
(89,580,o),
(119,618,o),
(177,618,cs),
(230,618,o),
(263,580,o),
(263,529,cs),
(263,478,o),
(230,440,o),
(177,440,cs)
);
}
);
width = 371;
}
);
unicode = 170;
}
{
glyphname = guillemetleft;
kernLeft = guilsinglleft;
kernRight = guilsinglleft;
layers = (
{
hints = (
{
place = (39,403);
type = Stem;
},
{
horizontal = 1;
place = (57,404);
type = Stem;
}
);
layerId = UUID0;
shapes = (
{
closed = 1;
nodes = (
(258,57,l),
(121,259,l),
(258,461,l),
(169,461,l),
(39,259,l),
(169,57,l)
);
},
{
closed = 1;
nodes = (
(442,57,l),
(305,259,l),
(442,461,l),
(353,461,l),
(223,259,l),
(353,57,l)
);
}
);
width = 487;
}
);
unicode = 171;
}
{
glyphname = logicalnot;
layers = (
{
hints = (
{
place = (457, 72);
place = (457, 72);
type = Stem;
},
{
horizontal = 1;
place = (321, 68);
place = (321, 68);
type = Stem;
}
);
layerId = UUID0;
shapes = (
{
closed = 1;
nodes = (
(529,186,l),
(529,389,l),
(62,389,l),
(62,321,l),
(457,321,l),
(457,186,l)
);
}
);
width = 593;
}
);
unicode = 172;
}
{
glyphname = registered;
layers = (
{
hints = (
{
place = (47,49);
type = Stem;
},
{
place = (240,70);
type = Stem;
},
{
place = (489,69);
type = Stem;
},
{
place = (683,49);
type = Stem;
},
{
place = (484,69);
type = Stem;
},
{
horizontal = 1;
place = (-13,49);
type = Stem;
},
{
horizontal = 1;
place = (278,60);
type = Stem;
},
{
horizontal = 1;
place = (461,59);
type = Stem;
},
{
horizontal = 1;
place = (623,49);
type = Stem;
}
);
layerId = UUID0;
shapes = (
{
closed = 1;
nodes = (
(578,-13,o),
(732,140,o),
(732,329,cs),
(732,519,o),
(578,672,o),
(389,672,cs),
(200,672,o),
(47,519,o),
(47,329,cs),
(47,140,o),
(200,-13,o),
(389,-13,cs)
);
},
{
closed = 1;
nodes = (
(227,36,o),
(96,168,o),
(96,329,cs),
(96,491,o),
(227,623,o),
(389,623,cs),
(551,623,o),
(683,491,o),
(683,329,cs),
(683,168,o),
(551,36,o),
(389,36,cs)
);
},
{
closed = 1;
nodes = (
(310,138,l),
(310,278,l),
(407,278,ls),
(482,278,o),
(484,213,o),
(484,176,cs),
(484,138,l),
(553,138,l),
(553,185,ls),
(553,224,o),
(540,293,o),
(483,309,c),
(530,324,o),
(558,362,o),
(558,407,cs),
(558,474,o),
(510,520,o),
(402,520,cs),
(240,520,l),
(240,138,l)
);
},
{
closed = 1;
nodes = (
(310,461,l),
(395,461,ls),
(466,461,o),
(489,437,o),
(489,400,cs),
(489,360,o),
(452,338,o),
(397,338,cs),
(310,338,l)
);
}
);
width = 779;
}
);
unicode = 174;
}
{
glyphname = macron;
layers = (
{
hints = (
{
place = (57,264);
type = Stem;
},
{
horizontal = 1;
place = (582,60);
type = Stem;
}
);
layerId = UUID0;
shapes = (
{
closed = 1;
nodes = (
(321,582,l),
(321,642,l),
(57,642,l),
(57,582,l)
);
}
);
width = 382;
}
);
unicode = 175;
}
{
glyphname = degree;
layers = (
{
hints = (
{
place = (36, 57);
place = (36, 57);
type = Stem;
},
{
place = (240, 57);
place = (240, 57);
type = Stem;
},
{
horizontal = 1;
place = (406, 57);
place = (406, 57);
type = Stem;
},
{
horizontal = 1;
place = (610, 57);
place = (610, 57);
type = Stem;
}
);
layerId = UUID0;
shapes = (
{
closed = 1;
nodes = (
(238,406,o),
(297,464,o),
(297,536,cs),
(297,608,o),
(238,667,o),
(166,667,cs),
(94,667,o),
(36,608,o),
(36,536,cs),
(36,464,o),
(94,406,o),
(166,406,cs)
);
},
{
closed = 1;
nodes = (
(126,463,o),
(93,496,o),
(93,536,cs),
(93,577,o),
(126,610,o),
(166,610,cs),
(207,610,o),
(240,577,o),
(240,536,cs),
(240,496,o),
(207,463,o),
(166,463,cs)
);
}
);
width = 333;
}
);
unicode = 176;
}
{
glyphname = plusminus;
layers = (
{
hints = (
{
place = (242,65);
type = Stem;
},
{
horizontal = 1;
place = (276,65);
type = Stem;
}
);
layerId = UUID0;
shapes = (
{
closed = 1;
nodes = (
(307,122,l),
(307,276,l),
(500,276,l),
(500,341,l),
(307,341,l),
(307,495,l),
(242,495,l),
(242,341,l),
(50,341,l),
(50,276,l),
(242,276,l),
(242,122,l)
);
},
{
closed = 1;
nodes = (
(500,0,l),
(500,62,l),
(50,62,l),
(50,0,l)
);
}
);
width = 550;
}
);
unicode = 177;
}
{
glyphname = twosuperior;
layers = (
{
background = {
shapes = (
{
closed = 1;
nodes = (
(301,300,l),
(301,352,l),
(116,352,l),
(149,410,o),
(301,446,o),
(301,556,cs),
(301,618,o),
(255,665,o),
(175,665,cs),
(108,665,o),
(55,614,o),
(46,548,c),
(102,548,l),
(109,584,o),
(138,612,o),
(179,612,cs),
(218,612,o),
(246,591,o),
(246,555,cs),
(246,473,o),
(52,435,o),
(52,329,cs),
(52,300,l)
);
}
);
};
hints = (
{
place = (52, 64);
place = (52, 64);
type = Stem;
},
{
place = (246, 55);
place = (246, 55);
type = Stem;
},
{
horizontal = 1;
place = (300, 52);
place = (300, 52);
type = Stem;
},
{
horizontal = 1;
place = (612, 53);
place = (612, 53);
type = Stem;
}
);
layerId = UUID0;
shapes = (
{
ref = two.sups;
}
);
width = 357;
}
);
unicode = 178;
}
{
glyphname = threesuperior;
layers = (
{
background = {
shapes = (
{
closed = 1;
nodes = (
(233,296,o),
(295,334,o),
(295,400,cs),
(295,446,o),
(275,474,o),
(233,492,c),
(256,503,o),
(284,526,o),
(284,574,cs),
(284,633,o),
(233,666,o),
(167,666,cs),
(95,666,o),
(53,613,o),
(47,563,c),
(101,563,l),
(106,590,o),
(130,614,o),
(168,614,cs),
(208,614,o),
(229,592,o),
(229,564,cs),
(229,535,o),
(201,514,o),
(169,514,cs),
(126,514,l),
(126,467,l),
(173,467,ls),
(218,467,o),
(240,437,o),
(240,406,cs),
(240,375,o),
(214,347,o),
(170,347,cs),
(132,347,o),
(99,375,o),
(93,407,c),
(38,407,l),
(44,344,o),
(101,296,o),
(170,296,cs)
);
}
);
};
hints = (
{
place = (240, 55);
place = (240, 55);
type = Stem;
},
{
place = (229, 55);
place = (229, 55);
type = Stem;
},
{
horizontal = 1;
place = (296, 51);
place = (296, 51);
type = Stem;
},
{
horizontal = 1;
place = (467, 47);
place = (467, 47);
type = Stem;
},
{
horizontal = 1;
place = (614, 52);
place = (614, 52);
type = Stem;
}
);
layerId = UUID0;
shapes = (
{
ref = three.sups;
}
);
width = 366;
}
);
unicode = 179;
}
{
glyphname = acute;
layers = (
{
hints = (
{
place = (86, 168);
place = (86, 168);
type = Stem;
},
{
horizontal = 1;
place = (570, 105);
place = (570, 105);
type = Stem;
}
);
layerId = UUID0;
shapes = (
{
closed = 1;
nodes = (
(147,570,l),
(254,675,l),
(147,675,l),
(86,570,l)
);
}
);
width = 349;
}
);
unicode = 180;
}
{
glyphname = micro;
layers = (
{
hints = (
{
place = (72,75);
type = Stem;
},
{
place = (438,75);
type = Stem;
},
{
horizontal = 1;
place = (-198,21);
target = up;
type = BottomGhost;
},
{
horizontal = 1;
place = (-8,68);
type = Stem;
},
{
horizontal = 1;
place = (500,-20);
target = down;
type = TopGhost;
},
{
horizontal = 1;
place = (0,21);
target = up;
type = BottomGhost;
}
);
layerId = UUID0;
shapes = (
{
closed = 1;
nodes = (
(147,-198,l),
(147,46,l),
(180,10,o),
(225,-8,o),
(276,-8,cs),
(357,-8,o),
(402,30,o),
(438,78,c),
(438,0,l),
(513,0,l),
(513,500,l),
(438,500,l),
(438,212,ls),
(438,122,o),
(370,60,o),
(287,60,cs),
(205,60,o),
(147,120,o),
(147,211,cs),
(147,500,l),
(72,500,l),
(72,-198,l)
);
}
);
width = 564;
}
);
unicode = 181;
}
{
glyphname = paragraph;
layers = (
{
hints = (
{
place = (276,59);
type = Stem;
},
{
place = (407,59);
type = Stem;
},
{
horizontal = 1;
place = (616,54);
type = Stem;
}
);
layerId = UUID0;
shapes = (
{
closed = 1;
nodes = (
(335,-141,l),
(335,616,l),
(407,616,l),
(407,-141,l),
(466,-141,l),
(466,616,l),
(509,616,l),
(509,670,l),
(203,670,ls),
(110,670,o),
(36,595,o),
(36,502,cs),
(36,409,o),
(110,335,o),
(203,335,cs),
(276,335,l),
(276,-141,l)
);
}
);
width = 565;
}
);
unicode = 182;
}
{
glyphname = periodcentered;
layers = (
{
hints = (
{
place = (53, 97);
place = (53, 97);
type = Stem;
},
{
horizontal = 1;
place = (242, 102);
place = (242, 102);
type = Stem;
}
);
layerId = UUID0;
shapes = (
{
closed = 1;
nodes = (
(150,242,l),
(150,344,l),
(53,344,l),
(53,242,l)
);
}
);
width = 203;
}
);
unicode = 183;
}
{
glyphname = cedilla;
layers = (
{
hints = (
{
place = (192, 73);
place = (192, 73);
type = Stem;
},
{
horizontal = 1;
place = (-210, 44);
place = (-210, 44);
type = Stem;
},
{
horizontal = 1;
place = (-97, 45);
place = (-97, 45);
type = Stem;
}
);
layerId = UUID0;
shapes = (
{
closed = 1;
nodes = (
(212,-206,o),
(265,-181,o),
(265,-125,cs),
(265,-77,o),
(223,-48,o),
(173,-48,cs),
(166,-48,o),
(157,-49,o),
(151,-50,c),
(195,27,l),
(152,27,l),
(83,-81,l),
(104,-98,l),
(114,-95,o),
(127,-93,o),
(139,-93,cs),
(167,-93,o),
(192,-106,o),
(192,-126,cs),
(192,-153,o),
(167,-162,o),
(137,-162,cs),
(101,-162,o),
(73,-147,o),
(52,-132,c),
(33,-165,l),
(58,-186,o),
(100,-206,o),
(151,-206,cs)
);
}
);
width = 300;
}
);
unicode = 184;
}
{
glyphname = onesuperior;
layers = (
{
background = {
shapes = (
{
closed = 1;
nodes = (
(321,301,l),
(321,662,l),
(193,662,l),
(193,610,l),
(266,610,l),
(266,301,l)
);
}
);
};
hints = (
{
place = (99,55);
type = Stem;
},
{
horizontal = 1;
place = (610,52);
type = Stem;
}
);
layerId = UUID0;
shapes = (
{
alignment = -1;
ref = one.sups;
}
);
width = 319;
}
);
metricLeft = "=one-80";
metricRight = "=one-80";
unicode = 185;
}
{
glyphname = ordmasculine;
layers = (
{
hints = (
{
place = (37, 52);
place = (37, 52);
type = Stem;
},
{
place = (253, 52);
place = (253, 52);
type = Stem;
},
{
horizontal = 1;
place = (392, 48);
place = (392, 48);
type = Stem;
},
{
horizontal = 1;
place = (618, 48);
place = (618, 48);
type = Stem;
}
);
layerId = UUID0;
shapes = (
{
closed = 1;
nodes = (
(252,392,o),
(305,451,o),
(305,529,cs),
(305,607,o),
(252,666,o),
(171,666,cs),
(90,666,o),
(37,607,o),
(37,529,cs),
(37,451,o),
(90,392,o),
(171,392,cs)
);
},
{
closed = 1;
nodes = (
(124,452,o),
(100,488,o),
(100,529,cs),
(100,570,o),
(124,606,o),
(171,606,cs),
(218,606,o),
(242,570,o),
(242,529,cs),
(242,486,o),
(215,452,o),
(171,452,cs)
);
}
);
width = 342;
}
);
unicode = 186;
}
{
glyphname = guillemetright;
kernLeft = guilsinglright;
kernRight = guilsinglright;
layers = (
{
hints = (
{
place = (45,403);
type = Stem;
},
{
horizontal = 1;
place = (57,404);
type = Stem;
}
);
layerId = UUID0;
shapes = (
{
closed = 1;
nodes = (
(134,57,l),
(264,259,l),
(134,461,l),
(45,461,l),
(182,259,l),
(45,57,l)
);
},
{
closed = 1;
nodes = (
(318,57,l),
(448,259,l),
(318,461,l),
(229,461,l),
(366,259,l),
(229,57,l)
);
}
);
width = 487;
}
);
unicode = 187;
}
{
glyphname = onequarter;
layers = (
{
background = {
shapes = (
{
closed = 1;
nodes = (
(594,0,l),
(594,88,l),
(640,88,l),
(640,137,l),
(594,137,l),
(594,361,l),
(523,361,l),
(374,137,l),
(374,88,l),
(539,88,l),
(539,0,l)
);
},
{
closed = 1;
nodes = (
(539,301,l),
(539,137,l),
(430,137,l)
);
}
);
};
hints = (
{
place = (569,55);
type = Stem;
},
{
horizontal = 1;
place = (88,49);
type = Stem;
},
{
horizontal = 1;
place = (301,60);
type = Stem;
},
{
horizontal = 1;
place = (0,137);
type = Stem;
}
);
layerId = UUID0;
shapes = (
{
ref = one.numr;
},
{
alignment = -1;
pos = (119,0);
ref = fraction;
},
{
alignment = -1;
pos = (360,-5);
ref = four.dnom;
}
);
width = 729;
}
);
unicode = 188;
}
{
glyphname = Aring;
kernLeft = A;
kernRight = A;
layers = (
{
background = {
shapes = (
{
closed = 1;
nodes = (
(279,651,l),
(256,667,o),
(241,694,o),
(241,724,cs),
(241,774,o),
(281,814,o),
(330,814,cs),
(381,814,o),
(421,774,o),
(421,724,cs),
(421,694,o),
(406,667,o),
(382,651,c),
(659,0,l),
(576,0,l),
(495,192,l),
(167,192,l),
(86,0,l),
(3,0,l)
);
},
{
closed = 1;
nodes = (
(466,261,l),
(331,584,l),
(196,261,l)
);
},
{
closed = 1;
nodes = (
(355,680,o),
(375,700,o),
(375,724,cs),
(375,749,o),
(355,769,o),
(330,769,cs),
(307,769,o),
(287,749,o),
(287,724,cs),
(287,700,o),
(307,680,o),
(330,680,cs)
);
}
);
};
hints = (
{
place = (241, 46);
place = (241, 46);
type = Stem;
},
{
place = (375, 46);
place = (375, 46);
type = Stem;
},
{
horizontal = 1;
place = (0, 21);
target = up;
type = BottomGhost;
},
{
horizontal = 1;
place = (192, 69);
place = (192, 69);
type = Stem;
},
{
horizontal = 1;
place = (769, 45);
place = (769, 45);
type = Stem;
}
);
layerId = UUID0;
shapes = (
{
ref = A;
},
{
pos = (241,0);
ref = ringcomb.case;
}
);
width = 662;
}
);
unicode = 197;
}
{
glyphname = AE;
kernLeft = A;
kernRight = E;
layers = (
{
anchors = (
{
name = bottom;
pos = (511,0);
},
{
name = ogonek;
pos = (993,2);
},
{
name = top;
pos = (711,662);
}
);
hints = (
{
place = (521, 75);
place = (521, 75);
type = Stem;
},
{
horizontal = 1;
place = (0, 72);
place = (0, 72);
type = Stem;
},
{
horizontal = 1;
place = (185, 69);
place = (185, 69);
type = Stem;
},
{
horizontal = 1;
place = (295, 73);
place = (295, 73);
type = Stem;
},
{
horizontal = 1;
place = (590, 72);
place = (590, 72);
type = Stem;
}
);
layerId = UUID0;
shapes = (
{
closed = 1;
nodes = (
(87,0,l),
(212,185,l),
(521,185,l),
(521,0,l),
(983,0,l),
(983,72,l),
(596,72,l),
(596,295,l),
(939,295,l),
(939,368,l),
(596,368,l),
(596,590,l),
(983,590,l),
(983,662,l),
(450,662,l),
(-3,0,l)
);
},
{
closed = 1;
nodes = (
(487,590,l),
(521,590,l),
(521,254,l),
(259,254,l)
);
}
);
width = 1022;
}
);
unicode = 198;
}
{
glyphname = Ccedilla;
kernLeft = O;
kernRight = C;
layers = (
{
anchors = (
{
name = bottom;
pos = (345,0);
},
{
name = top;
pos = (345,662);
}
);
background = {
shapes = (
{
closed = 1;
nodes = (
(410,-210,o),
(463,-185,o),
(463,-129,cs),
(463,-81,o),
(421,-52,o),
(371,-52,cs),
(364,-52,o),
(355,-53,o),
(349,-54,c),
(375,-8,l),
(517,-2,o),
(618,81,o),
(659,198,c),
(580,198,l),
(546,117,o),
(474,65,o),
(365,65,cs),
(204,65,o),
(114,182,o),
(114,331,cs),
(114,480,o),
(204,597,o),
(365,597,cs),
(474,597,o),
(546,545,o),
(580,464,c),
(659,464,l),
(617,585,o),
(509,670,o),
(359,670,cs),
(160,670,o),
(39,519,o),
(39,331,cs),
(39,152,o),
(148,6,o),
(331,-7,c),
(281,-85,l),
(302,-102,l),
(312,-99,o),
(325,-97,o),
(337,-97,cs),
(365,-97,o),
(390,-110,o),
(390,-130,cs),
(390,-157,o),
(365,-166,o),
(335,-166,cs),
(299,-166,o),
(271,-151,o),
(250,-136,c),
(231,-169,l),
(256,-190,o),
(298,-210,o),
(349,-210,cs)
);
}
);
};
hints = (
{
place = (39,75);
type = Stem;
},
{
place = (390,73);
type = Stem;
},
{
horizontal = 1;
place = (-210,44);
type = Stem;
},
{
horizontal = 1;
place = (-97,45);
type = Stem;
},
{
horizontal = 1;
place = (-7,72);
type = Stem;
},
{
horizontal = 1;
place = (597,73);
type = Stem;
},
{
place = (39,75);
type = Stem;
},
{
horizontal = 1;
place = (-8,73);
type = Stem;
},
{
horizontal = 1;
place = (597,73);
type = Stem;
},
{
place = (389,73);
type = Stem;
},
{
horizontal = 1;
place = (-210,44);
type = Stem;
},
{
horizontal = 1;
place = (-97,45);
type = Stem;
}
);
layerId = UUID0;
shapes = (
{
closed = 1;
nodes = (
(204,65,o),
(114,182,o),
(114,331,cs),
(114,480,o),
(204,597,o),
(365,597,cs),
(474,597,o),
(546,545,o),
(580,464,c),
(659,464,l),
(617,585,o),
(509,670,o),
(359,670,cs),
(160,670,o),
(39,519,o),
(39,331,cs),
(39,153,o),
(147,8,o),
(327,-7,c),
(280,-81,l),
(301,-98,l),
(311,-95,o),
(324,-93,o),
(336,-93,cs),
(364,-93,o),
(389,-106,o),
(389,-126,cs),
(389,-153,o),
(364,-162,o),
(334,-162,cs),
(298,-162,o),
(270,-147,o),
(249,-132,c),
(230,-165,l),
(255,-186,o),
(297,-206,o),
(348,-206,cs),
(409,-206,o),
(462,-181,o),
(462,-125,cs),
(462,-77,o),
(420,-48,o),
(370,-48,cs),
(363,-48,o),
(354,-49,o),
(348,-50,c),
(372,-8,l),
(515,-3,o),
(618,81,o),
(659,198,c),
(580,198,l),
(546,117,o),
(474,65,o),
(365,65,cs)
);
}
);
width = 690;
}
);
unicode = 199;
}
{
glyphname = Eth;
kernLeft = I;
kernRight = O;
layers = (
{
background = {
shapes = (
{
closed = 1;
nodes = (
(368,0,ls),
(526,0,o),
(672,124,o),
(672,331,cs),
(672,538,o),
(526,662,o),
(368,662,cs),
(89,662,l),
(89,363,l),
(7,363,l),
(7,298,l),
(89,298,l),
(89,0,l)
);
},
{
closed = 1;
nodes = (
(164,298,l),
(355,298,l),
(355,363,l),
(164,363,l),
(164,591,l),
(365,591,ls),
(506,591,o),
(597,473,o),
(597,331,cs),
(597,189,o),
(506,71,o),
(365,71,cs),
(164,71,l)
);
}
);
};
hints = (
{
place = (89, 75);
place = (89, 75);
type = Stem;
},
{
place = (597, 75);
place = (597, 75);
type = Stem;
},
{
horizontal = 1;
place = (0, 71);
place = (0, 71);
type = Stem;
},
{
horizontal = 1;
place = (298, 65);
place = (298, 65);
type = Stem;
},
{
horizontal = 1;
place = (591, 71);
place = (591, 71);
type = Stem;
}
);
layerId = UUID0;
shapes = (
{
closed = 1;
nodes = (
(7,363,l),
(7,298,l),
(355,298,l),
(355,363,l)
);
},
{
ref = D;
}
);
width = 703;
}
);
metricRight = O;
unicode = 208;
}
{
glyphname = multiply;
layers = (
{
hints = (
{
place = (72,406);
type = Stem;
},
{
horizontal = 1;
place = (54,406);
type = Stem;
}
);
layerId = UUID0;
shapes = (
{
closed = 1;
nodes = (
(275,208,l),
(429,54,l),
(478,104,l),
(325,257,l),
(478,411,l),
(429,460,l),
(275,307,l),
(122,460,l),
(72,411,l),
(226,257,l),
(72,104,l),
(122,54,l)
);
}
);
width = 550;
}
);
unicode = 215;
}
{
glyphname = Oslash;
kernLeft = O;
kernRight = O;
layers = (
{
anchors = (
{
name = bottom;
pos = (375,0);
},
{
name = top;
pos = (375,662);
}
);
background = {
shapes = (
{
closed = 1;
nodes = (
(166,61,l),
(222,18,o),
(293,-8,o),
(375,-8,cs),
(576,-8,o),
(711,143,o),
(711,331,cs),
(711,427,o),
(677,513,o),
(616,574,c),
(684,652,l),
(652,680,l),
(585,602,l),
(529,645,o),
(458,670,o),
(375,670,cs),
(174,670,o),
(39,519,o),
(39,331,cs),
(39,236,o),
(74,150,o),
(135,88,c),
(67,11,l),
(98,-17,l)
);
},
{
closed = 1;
nodes = (
(139,191,o),
(114,257,o),
(114,331,cs),
(114,480,o),
(214,597,o),
(375,597,cs),
(440,597,o),
(494,579,o),
(536,547,c),
(183,144,l)
);
},
{
closed = 1;
nodes = (
(311,65,o),
(257,84,o),
(214,116,c),
(568,519,l),
(612,471,o),
(636,405,o),
(636,331,cs),
(636,182,o),
(536,65,o),
(375,65,cs)
);
}
);
};
hints = (
{
place = (39, 75);
place = (39, 75);
type = Stem;
},
{
place = (636, 75);
place = (636, 75);
type = Stem;
},
{
horizontal = 1;
place = (-8, 73);
place = (-8, 73);
type = Stem;
},
{
horizontal = 1;
place = (670, -20);
target = down;
type = TopGhost;
},
{
horizontal = 1;
place = (-8, 21);
target = up;
type = BottomGhost;
},
{
horizontal = 1;
place = (597, 73);
place = (597, 73);
type = Stem;
}
);
layerId = UUID0;
shapes = (
{
closed = 1;
nodes = (
(196,-40,l),
(622,700,l),
(548,700,l),
(122,-40,l)
);
},
{
ref = O;
}
);
width = 750;
},
{
anchors = (
{
name = bottom;
pos = (375,0);
},
{
name = top;
pos = (375,662);
}
);
associatedMasterId = UUID0;
background = {
shapes = (
{
closed = 1;
nodes = (
(166,61,l),
(222,18,o),
(293,-8,o),
(375,-8,cs),
(576,-8,o),
(711,143,o),
(711,331,cs),
(711,427,o),
(677,513,o),
(616,574,c),
(684,652,l),
(652,680,l),
(585,602,l),
(529,645,o),
(458,670,o),
(375,670,cs),
(174,670,o),
(39,519,o),
(39,331,cs),
(39,236,o),
(74,150,o),
(135,88,c),
(67,11,l),
(98,-17,l)
);
},
{
closed = 1;
nodes = (
(139,191,o),
(114,257,o),
(114,331,cs),
(114,480,o),
(214,597,o),
(375,597,cs),
(440,597,o),
(494,579,o),
(536,547,c),
(183,144,l)
);
},
{
closed = 1;
nodes = (
(311,65,o),
(257,84,o),
(214,116,c),
(568,519,l),
(612,471,o),
(636,405,o),
(636,331,cs),
(636,182,o),
(536,65,o),
(375,65,cs)
);
}
);
};
hints = (
{
place = (39, 75);
place = (39, 75);
type = Stem;
},
{
place = (636, 75);
place = (636, 75);
type = Stem;
},
{
horizontal = 1;
place = (-8, 73);
place = (-8, 73);
type = Stem;
},
{
horizontal = 1;
place = (670, -20);
target = down;
type = TopGhost;
},
{
horizontal = 1;
place = (-8, 21);
target = up;
type = BottomGhost;
},
{
horizontal = 1;
place = (597, 73);
place = (597, 73);
type = Stem;
}
);
layerId = "91C754C4-DB8E-4547-856E-55DFAF617438";
name = "May 28 20, 14:51";
shapes = (
{
closed = 1;
nodes = (
(692,644,l),
(640,690,l),
(56,18,l),
(108,-28,l)
);
},
{
ref = O;
}
);
width = 750;
}
);
metricLeft = O;
metricRight = O;
unicode = 216;
}
{
glyphname = Thorn;
kernLeft = I;
kernRight = P;
layers = (
{
hints = (
{
place = (81,75);
type = Stem;
},
{
place = (532,75);
type = Stem;
},
{
horizontal = 1;
place = (0,21);
target = up;
type = BottomGhost;
},
{
horizontal = 1;
place = (139,70);
type = Stem;
},
{
horizontal = 1;
place = (494,71);
type = Stem;
},
{
horizontal = 1;
place = (494,168);
type = Stem;
}
);
layerId = UUID0;
shapes = (
{
closed = 1;
nodes = (
(156,0,l),
(156,139,l),
(379,139,ls),
(520,139,o),
(607,221,o),
(607,352,cs),
(607,482,o),
(520,565,o),
(379,565,cs),
(156,565,l),
(156,662,l),
(81,662,l),
(81,0,l)
);
},
{
closed = 1;
nodes = (
(156,494,l),
(374,494,ls),
(478,494,o),
(532,440,o),
(532,352,cs),
(532,263,o),
(478,209,o),
(374,209,cs),
(156,209,l)
);
}
);
width = 628;
}
);
metricRight = P;
unicode = 222;
}
{
glyphname = germandbls;
kernLeft = I;
kernRight = S;
layers = (
{
hints = (
{
place = (65, 75);
place = (65, 75);
type = Stem;
},
{
place = (447, 76);
place = (447, 76);
type = Stem;
},
{
place = (414, 75);
place = (414, 75);
type = Stem;
},
{
horizontal = 1;
place = (0, 66);
place = (0, 66);
type = Stem;
},
{
horizontal = 1;
place = (304, 55);
place = (304, 55);
type = Stem;
},
{
horizontal = 1;
place = (603, 67);
place = (603, 67);
type = Stem;
}
);
layerId = UUID0;
shapes = (
{
closed = 1;
nodes = (
(140,0,l),
(140,510,ls),
(140,613,o),
(198,641,o),
(278,641,cs),
(370,641,o),
(414,592,o),
(414,509,cs),
(414,427,o),
(343,379,o),
(253,379,c),
(253,324,l),
(377,324,o),
(447,268,o),
(447,186,cs),
(447,103,o),
(385,66,o),
(294,66,cs),
(205,66,l),
(205,0,l),
(293,0,ls),
(435,0,o),
(523,63,o),
(523,175,cs),
(523,294,o),
(439,343,o),
(381,357,c),
(431,374,o),
(489,415,o),
(489,518,cs),
(489,654,o),
(389,708,o),
(279,708,cs),
(145,708,o),
(65,635,o),
(65,514,cs),
(65,0,l)
);
}
);
width = 557;
}
);
unicode = 223;
}
{
glyphname = ae;
kernLeft = o;
kernRight = e;
layers = (
{
anchors = (
{
name = bottom;
pos = (489,0);
},
{
name = ogonek;
pos = (814,0);
},
{
name = top;
pos = (489,500);
}
);
hints = (
{
place = (34,75);
type = Stem;
},
{
place = (455,75);
type = Stem;
},
{
place = (459,72);
type = Stem;
},
{
horizontal = 1;
place = (-8,68);
type = Stem;
},
{
horizontal = 1;
place = (220,70);
type = Stem;
},
{
horizontal = 1;
place = (440,68);
type = Stem;
},
{
horizontal = 1;
place = (500,-20);
target = down;
type = TopGhost;
},
{
horizontal = 1;
place = (0,21);
target = up;
type = BottomGhost;
}
);
layerId = UUID0;
shapes = (
{
closed = 1;
nodes = (
(359,-8,o),
(418,26,o),
(455,80,c),
(455,0,l),
(530,0,l),
(530,71,l),
(566,22,o),
(623,-8,o),
(702,-8,cs),
(819,-8,o),
(905,60,o),
(937,157,c),
(857,157,l),
(831,100,o),
(782,60,o),
(708,60,cs),
(605,60,o),
(542,131,o),
(531,220,c),
(950,220,l),
(950,250,ls),
(950,393,o),
(855,508,o),
(702,508,cs),
(623,508,o),
(566,477,o),
(530,428,c),
(530,500,l),
(455,500,l),
(455,419,l),
(418,473,o),
(359,508,o),
(276,508,cs),
(130,508,o),
(34,393,o),
(34,250,cs),
(34,107,o),
(130,-8,o),
(276,-8,cs)
);
},
{
closed = 1;
nodes = (
(175,60,o),
(109,147,o),
(109,250,cs),
(109,353,o),
(175,440,o),
(286,440,cs),
(397,440,o),
(459,353,o),
(459,250,cs),
(459,147,o),
(397,60,o),
(286,60,cs)
);
},
{
closed = 1;
nodes = (
(546,375,o),
(606,440,o),
(702,440,cs),
(798,440,o),
(858,375,o),
(872,290,c),
(532,290,l)
);
}
);
width = 977;
}
);
unicode = 230;
}
{
glyphname = ccedilla;
kernLeft = o;
kernRight = c;
layers = (
{
anchors = (
{
name = bottom;
pos = (272,0);
},
{
name = top;
pos = (272,500);
}
);
hints = (
{
place = (34,75);
type = Stem;
},
{
place = (314,73);
type = Stem;
},
{
horizontal = 1;
place = (-210,44);
type = Stem;
},
{
horizontal = 1;
place = (-97,45);
type = Stem;
},
{
horizontal = 1;
place = (-6,66);
type = Stem;
},
{
horizontal = 1;
place = (440,68);
type = Stem;
},
{
place = (34,75);
type = Stem;
},
{
horizontal = 1;
place = (-8,68);
type = Stem;
},
{
horizontal = 1;
place = (440,68);
type = Stem;
},
{
place = (316,73);
type = Stem;
},
{
horizontal = 1;
place = (-210,44);
type = Stem;
},
{
horizontal = 1;
place = (-97,45);
type = Stem;
}
);
layerId = UUID0;
shapes = (
{
closed = 1;
nodes = (
(179,60,o),
(109,147,o),
(109,250,cs),
(109,353,o),
(179,440,o),
(290,440,cs),
(361,440,o),
(412,400,o),
(435,343,c),
(516,343,l),
(487,440,o),
(398,508,o),
(280,508,cs),
(130,508,o),
(34,393,o),
(34,250,cs),
(34,115,o),
(119,5,o),
(254,-7,c),
(207,-81,l),
(228,-98,l),
(238,-95,o),
(251,-93,o),
(263,-93,cs),
(291,-93,o),
(316,-106,o),
(316,-126,cs),
(316,-153,o),
(291,-162,o),
(261,-162,cs),
(225,-162,o),
(197,-147,o),
(176,-132,c),
(157,-165,l),
(182,-186,o),
(224,-206,o),
(275,-206,cs),
(336,-206,o),
(389,-181,o),
(389,-125,cs),
(389,-77,o),
(347,-48,o),
(297,-48,cs),
(290,-48,o),
(281,-49,o),
(275,-50,c),
(299,-7,l),
(408,0,o),
(489,65,o),
(516,157,c),
(435,157,l),
(412,100,o),
(361,60,o),
(290,60,cs)
);
}
);
width = 544;
}
);
unicode = 231;
}
{
glyphname = eth;
kernLeft = o;
kernRight = o;
layers = (
{
hints = (
{
place = (34, 75);
place = (34, 75);
type = Stem;
},
{
place = (455, 75);
place = (455, 75);
type = Stem;
},
{
horizontal = 1;
place = (-8, 67);
place = (-8, 67);
type = Stem;
},
{
horizontal = 1;
place = (447, 67);
place = (447, 67);
type = Stem;
},
{
horizontal = 1;
place = (668, -20);
target = down;
type = TopGhost;
}
);
layerId = UUID0;
shapes = (
{
closed = 1;
nodes = (
(440,-8,o),
(530,128,o),
(530,269,cs),
(530,441,o),
(449,540,o),
(342,625,c),
(407,668,l),
(375,706,l),
(300,656,l),
(267,678,o),
(232,698,o),
(196,715,c),
(169,644,l),
(191,634,o),
(212,623,o),
(233,611,c),
(190,583,l),
(222,545,l),
(278,582,l),
(323,551,o),
(378,516,o),
(409,455,c),
(375,492,o),
(326,514,o),
(263,514,cs),
(122,514,o),
(34,397,o),
(34,253,cs),
(34,112,o),
(121,-8,o),
(286,-8,cs)
);
},
{
closed = 1;
nodes = (
(171,59,o),
(109,151,o),
(109,253,cs),
(109,358,o),
(167,447,o),
(274,447,cs),
(385,447,o),
(455,355,o),
(455,253,cs),
(455,151,o),
(393,59,o),
(282,59,cs)
);
}
);
width = 563;
}
);
unicode = 240;
}
{
glyphname = divide;
layers = (
{
hints = (
{
place = (231,88);
type = Stem;
},
{
horizontal = 1;
place = (17,93);
type = Stem;
},
{
horizontal = 1;
place = (200,69);
type = Stem;
},
{
horizontal = 1;
place = (359,93);
type = Stem;
}
);
layerId = UUID0;
shapes = (
{
closed = 1;
nodes = (
(319,359,l),
(319,452,l),
(231,452,l),
(231,359,l)
);
},
{
closed = 1;
nodes = (
(512,200,l),
(512,269,l),
(38,269,l),
(38,200,l)
);
},
{
closed = 1;
nodes = (
(319,17,l),
(319,110,l),
(231,110,l),
(231,17,l)
);
}
);
width = 550;
}
);
unicode = 247;
}
{
glyphname = oslash;
kernLeft = o;
kernRight = o;
layers = (
{
anchors = (
{
name = top;
pos = (312,500);
}
);
background = {
shapes = (
{
closed = 1;
nodes = (
(492,544,l),
(44,29,l),
(96,-17,l),
(532,484,l)
);
}
);
};
hints = (
{
place = (34,75);
type = Stem;
},
{
place = (455,75);
type = Stem;
},
{
horizontal = 1;
place = (-8,68);
type = Stem;
},
{
horizontal = 1;
place = (440,68);
type = Stem;
}
);
layerId = UUID0;
shapes = (
{
closed = 1;
nodes = (
(170,-16,l),
(481,525,l),
(407,525,l),
(96,-16,l)
);
},
{
ref = o;
}
);
width = 564;
},
{
anchors = (
{
name = top;
pos = (282,500);
}
);
associatedMasterId = UUID0;
background = {
shapes = (
{
closed = 1;
nodes = (
(492,544,l),
(44,29,l),
(96,-17,l),
(532,484,l)
);
}
);
};
hints = (
{
place = (34,75);
type = Stem;
},
{
place = (455,75);
type = Stem;
},
{
horizontal = 1;
place = (-8,68);
type = Stem;
},
{
horizontal = 1;
place = (440,68);
type = Stem;
}
);
layerId = "068D1C05-8420-4C2B-88FF-E6DDAC46A502";
name = "May 28 20, 12:46";
shapes = (
{
closed = 1;
nodes = (
(519,493,l),
(493,516,l),
(46,6,l),
(72,-17,l)
);
},
{
closed = 1;
nodes = (
(468,516,l),
(44,29,l),
(96,-17,l),
(520,470,l)
);
},
{
ref = o;
}
);
width = 564;
},
{
anchors = (
{
name = top;
pos = (282,500);
}
);
associatedMasterId = UUID0;
background = {
shapes = (
{
closed = 1;
nodes = (
(492,544,l),
(44,29,l),
(96,-17,l),
(532,484,l)
);
}
);
};
hints = (
{
place = (34,75);
type = Stem;
},
{
place = (455,75);
type = Stem;
},
{
horizontal = 1;
place = (-8,68);
type = Stem;
},
{
horizontal = 1;
place = (440,68);
type = Stem;
}
);
layerId = "DF26A780-3308-4AD9-A06B-7EBFD48EF95C";
name = "May 28 20, 15:49";
shapes = (
{
closed = 1;
nodes = (
(468,516,l),
(44,29,l),
(96,-17,l),
(520,470,l)
);
},
{
ref = o;
}
);
width = 564;
}
);
metricLeft = o;
metricRight = o;
unicode = 248;
}
{
glyphname = thorn;
kernLeft = h;
kernRight = o;
layers = (
{
hints = (
{
place = (65,75);
type = Stem;
},
{
place = (486,75);
type = Stem;
},
{
horizontal = 1;
place = (-198,21);
target = up;
type = BottomGhost;
},
{
horizontal = 1;
place = (-8,68);
type = Stem;
},
{
horizontal = 1;
place = (440,68);
type = Stem;
}
);
layerId = UUID0;
shapes = (
{
closed = 1;
nodes = (
(140,-198,l),
(140,80,l),
(177,26,o),
(236,-8,o),
(319,-8,cs),
(465,-8,o),
(561,107,o),
(561,250,cs),
(561,393,o),
(465,508,o),
(319,508,cs),
(236,508,o),
(177,473,o),
(140,419,c),
(140,700,l),
(65,700,l),
(65,-198,l)
);
},
{
closed = 1;
nodes = (
(198,60,o),
(136,147,o),
(136,250,cs),
(136,353,o),
(198,440,o),
(309,440,cs),
(420,440,o),
(486,353,o),
(486,250,cs),
(486,147,o),
(420,60,o),
(309,60,cs)
);
}
);
width = 594;
}
);
unicode = 254;
}
{
glyphname = dcroat;
kernLeft = o;
kernRight = l;
layers = (
{
layerId = UUID0;
shapes = (
{
closed = 1;
nodes = (
(580,550,l),
(580,616,l),
(335,616,l),
(335,550,l)
);
},
{
ref = d;
}
);
width = 595;
}
);
unicode = 273;
}
{
glyphname = eogonek;
kernLeft = o;
kernRight = e;
layers = (
{
layerId = UUID0;
shapes = (
{
closed = 1;
nodes = (
(217,-178,o),
(265,-206,o),
(314,-206,cs),
(342,-206,o),
(370,-198,o),
(390,-182,c),
(390,-143,l),
(380,-150,o),
(367,-154,o),
(354,-154,cs),
(324,-154,o),
(294,-136,o),
(294,-104,cs),
(294,-49,o),
(361,-7,o),
(397,14,c),
(333,10,l),
(286,-14,o),
(217,-49,o),
(217,-123,cs)
);
},
{
ref = e;
}
);
width = 557;
},
{
anchors = (
{
name = _ogonek;
pos = (399,0);
}
);
associatedMasterId = UUID0;
layerId = "9E28A355-A57E-4EB1-8C92-7E732BA77033";
name = "Jun 9 20, 15:04";
shapes = (
{
ref = e;
},
{
pos = (217,-2);
ref = ogonekcomb;
}
);
visible = 1;
width = 557;
}
);
unicode = 281;
}
{
glyphname = Hbar;
kernLeft = I;
kernRight = I;
layers = (
{
anchors = (
{
name = _center;
pos = (349,504);
}
);
layerId = UUID0;
shapes = (
{
closed = 1;
nodes = (
(662,468,l),
(662,538,l),
(35,538,l),
(35,468,l)
);
},
{
ref = H;
}
);
width = 697;
}
);
unicode = 294;
}
{
glyphname = hbar;
kernLeft = h;
kernRight = n;
layers = (
{
anchors = (
{
name = _center;
pos = (192,591);
}
);
layerId = UUID0;
shapes = (
{
closed = 1;
nodes = (
(260,546,l),
(260,616,l),
(15,616,l),
(15,546,l)
);
},
{
ref = h;
}
);
width = 566;
}
);
unicode = 295;
}
{
glyphname = idotless;
kernLeft = i;
kernRight = i;
layers = (
{
anchors = (
{
name = bottom;
pos = (103,0);
},
{
name = ogonek;
pos = (149,0);
},
{
name = top;
pos = (103,500);
}
);
hints = (
{
place = (65,75);
type = Stem;
},
{
horizontal = 1;
place = (0,21);
target = up;
type = BottomGhost;
},
{
horizontal = 1;
place = (500,-20);
target = down;
type = TopGhost;
}
);
layerId = UUID0;
shapes = (
{
closed = 1;
nodes = (
(140,0,l),
(140,500,l),
(65,500,l),
(65,0,l)
);
}
);
width = 205;
}
);
unicode = 305;
}
{
glyphname = Lslash;
kernLeft = I;
kernRight = L;
layers = (
{
layerId = UUID0;
shapes = (
{
closed = 1;
nodes = (
(7,328,l),
(7,255,l),
(341,429,l),
(341,502,l)
);
},
{
ref = L;
}
);
width = 533;
}
);
unicode = 321;
}
{
glyphname = lslash;
kernLeft = h;
kernRight = l;
layers = (
{
layerId = UUID0;
shapes = (
{
closed = 1;
nodes = (
(205,500,l),
(0,393,l),
(0,320,l),
(205,427,l)
);
},
{
ref = l;
}
);
width = 205;
}
);
unicode = 322;
}
{
color = 3;
glyphname = eng;
kernLeft = n;
kernRight = n;
layers = (
{
anchors = (
{
name = bottom;
pos = (351,-198);
},
{
name = top;
pos = (283,500);
}
);
hints = (
{
place = (431, 75);
place = (431, 75);
type = Stem;
},
{
place = (428, 81);
place = (428, 81);
type = Stem;
},
{
horizontal = 1;
place = (-198, 21);
target = up;
type = BottomGhost;
},
{
horizontal = 1;
place = (500, -20);
target = down;
type = TopGhost;
},
{
horizontal = 1;
place = (584, 98);
place = (584, 98);
type = Stem;
}
);
layerId = UUID0;
shapes = (
{
closed = 1;
nodes = (
(465,-206,o),
(506,-128,o),
(506,-50,cs),
(506,97,l),
(431,97,l),
(431,-47,ls),
(431,-84,o),
(418,-139,o),
(352,-139,cs),
(303,-139,o),
(275,-92,o),
(270,-55,c),
(195,-55,l),
(200,-128,o),
(252,-206,o),
(350,-206,cs)
);
},
{
ref = n;
}
);
width = 568;
},
{
anchors = (
{
name = bottom;
pos = (469,-198);
},
{
name = top;
pos = (469,500);
}
);
associatedMasterId = UUID0;
hints = (
{
place = (431, 75);
place = (431, 75);
type = Stem;
},
{
place = (428, 81);
place = (428, 81);
type = Stem;
},
{
horizontal = 1;
place = (-198, 21);
target = up;
type = BottomGhost;
},
{
horizontal = 1;
place = (500, -20);
target = down;
type = TopGhost;
},
{
horizontal = 1;
place = (584, 98);
place = (584, 98);
type = Stem;
}
);
layerId = "F30CADFE-4DC0-4E46-AD93-6974469CB857";
name = "Jun 8 20, 18:43";
shapes = (
{
closed = 1;
nodes = (
(506,-198,l),
(506,220,l),
(431,220,l),
(431,-198,l)
);
},
{
closed = 1;
nodes = (
(457,-203,o),
(502,-108,o),
(502,-13,cs),
(502,467,l),
(427,467,l),
(427,-10,ls),
(427,-61,o),
(415,-130,o),
(324,-130,cs),
(261,-130,o),
(229,-81,o),
(223,-38,c),
(145,-38,l),
(152,-118,o),
(211,-203,o),
(324,-203,cs)
);
},
{
ref = n;
}
);
width = 568;
}
);
unicode = 331;
}
{
glyphname = OE;
kernLeft = O;
kernRight = E;
layers = (
{
anchors = (
{
name = bottom;
pos = (572,0);
},
{
name = ogonek;
pos = (1114,2);
},
{
name = top;
pos = (572,662);
}
);
hints = (
{
place = (39,75);
type = Stem;
},
{
place = (612,75);
type = Stem;
},
{
horizontal = 1;
place = (0,72);
type = Stem;
},
{
horizontal = 1;
place = (294,73);
type = Stem;
},
{
horizontal = 1;
place = (590,72);
type = Stem;
},
{
horizontal = 1;
place = (-8,73);
type = Stem;
},
{
horizontal = 1;
place = (597,73);
type = Stem;
}
);
layerId = UUID0;
shapes = (
{
closed = 1;
nodes = (
(475,-8,o),
(558,37,o),
(612,108,c),
(612,0,l),
(1104,0,l),
(1104,72,l),
(687,72,l),
(687,294,l),
(1060,294,l),
(1060,367,l),
(687,367,l),
(687,590,l),
(1104,590,l),
(1104,662,l),
(612,662,l),
(612,553,l),
(558,625,o),
(475,670,o),
(365,670,cs),
(164,670,o),
(39,519,o),
(39,331,cs),
(39,143,o),
(164,-8,o),
(365,-8,cs)
);
},
{
closed = 1;
nodes = (
(204,65,o),
(114,182,o),
(114,331,cs),
(114,480,o),
(204,597,o),
(365,597,cs),
(526,597,o),
(616,480,o),
(616,331,cs),
(616,182,o),
(526,65,o),
(365,65,cs)
);
}
);
width = 1144;
}
);
metricLeft = O;
metricRight = E;
unicode = 338;
}
{
glyphname = oe;
kernLeft = o;
kernRight = e;
layers = (
{
anchors = (
{
name = bottom;
pos = (689,0);
},
{
name = ogonek;
pos = (809,0);
},
{
name = top;
pos = (689,500);
}
);
hints = (
{
place = (34, 75);
place = (34, 75);
type = Stem;
},
{
place = (455, 71);
place = (455, 71);
type = Stem;
},
{
horizontal = 1;
place = (-8, 68);
place = (-8, 68);
type = Stem;
},
{
horizontal = 1;
place = (220, 70);
place = (220, 70);
type = Stem;
},
{
horizontal = 1;
place = (440, 68);
place = (440, 68);
type = Stem;
}
);
layerId = UUID0;
shapes = (
{
closed = 1;
nodes = (
(381,-8,o),
(452,40,o),
(489,113,c),
(527,40,o),
(597,-8,o),
(697,-8,cs),
(814,-8,o),
(900,60,o),
(932,157,c),
(852,157,l),
(826,100,o),
(777,60,o),
(703,60,cs),
(600,60,o),
(537,131,o),
(526,220,c),
(945,220,l),
(945,250,ls),
(945,393,o),
(850,508,o),
(697,508,cs),
(597,508,o),
(527,459,o),
(489,386,c),
(452,459,o),
(381,508,o),
(282,508,cs),
(129,508,o),
(34,393,o),
(34,250,cs),
(34,107,o),
(129,-8,o),
(282,-8,cs)
);
},
{
closed = 1;
nodes = (
(171,60,o),
(109,147,o),
(109,250,cs),
(109,353,o),
(171,440,o),
(282,440,cs),
(393,440,o),
(455,353,o),
(455,250,cs),
(455,147,o),
(393,60,o),
(282,60,cs)
);
},
{
closed = 1;
nodes = (
(541,375,o),
(601,440,o),
(697,440,cs),
(793,440,o),
(853,375,o),
(867,290,c),
(527,290,l)
);
}
);
width = 972;
}
);
unicode = 339;
}
{
glyphname = Tbar;
kernLeft = T;
kernRight = T;
layers = (
{
anchors = (
{
name = bottom;
pos = (283,0);
},
{
name = center;
pos = (283,331);
},
{
name = top;
pos = (283,662);
}
);
hints = (
{
place = (245, 75);
place = (245, 75);
type = Stem;
},
{
horizontal = 1;
place = (0, 21);
target = up;
type = BottomGhost;
},
{
horizontal = 1;
place = (590, 72);
place = (590, 72);
type = Stem;
}
);
layerId = UUID0;
shapes = (
{
closed = 1;
nodes = (
(551,662,l),
(14,662,l),
(14,591,l),
(245,591,l),
(245,366,l),
(99,366,l),
(99,296,l),
(245,296,l),
(245,0,l),
(320,0,l),
(320,296,l),
(466,296,l),
(466,366,l),
(320,366,l),
(320,591,l),
(551,591,l)
);
}
);
width = 565;
}
);
unicode = 358;
}
{
glyphname = tbar;
kernLeft = t;
kernRight = t;
layers = (
{
layerId = UUID0;
shapes = (
{
closed = 1;
nodes = (
(33,308,l),
(33,243,l),
(280,243,l),
(280,308,l)
);
},
{
ref = t;
}
);
width = 326;
}
);
unicode = 359;
}
{
color = 3;
glyphname = Uogonek;
kernLeft = U;
kernRight = U;
layers = (
{
anchors = (
{
name = bottom;
pos = (355,0);
},
{
name = ogonek;
pos = (434,10);
},
{
name = top;
pos = (355,662);
},
{
name = topright;
pos = (689,662);
}
);
hints = (
{
place = (73, 75);
place = (73, 75);
type = Stem;
},
{
place = (561, 75);
place = (561, 75);
type = Stem;
},
{
horizontal = 1;
place = (-8, 73);
place = (-8, 73);
type = Stem;
},
{
horizontal = 1;
place = (662, -20);
target = down;
type = TopGhost;
},
{
place = (252, 77);
place = (252, 77);
type = Stem;
},
{
horizontal = 1;
place = (-187, 54);
place = (-187, 54);
type = Stem;
},
{
horizontal = 1;
place = (-11, 68);
place = (-11, 68);
type = Stem;
}
);
layerId = UUID0;
shapes = (
{
closed = 1;
nodes = (
(561,283,ls),
(561,129,o),
(459,65,o),
(354,65,cs),
(249,65,o),
(148,129,o),
(148,283,cs),
(148,662,l),
(73,662,l),
(73,285,ls),
(73,115,o),
(181,1,o),
(336,-8,c),
(295,-29,o),
(252,-61,o),
(252,-115,cs),
(252,-170,o),
(300,-198,o),
(349,-198,cs),
(377,-198,o),
(405,-190,o),
(425,-174,c),
(425,-135,l),
(415,-142,o),
(402,-146,o),
(389,-146,cs),
(359,-146,o),
(329,-128,o),
(329,-96,cs),
(329,-55,o),
(372,-24,o),
(404,-4,c),
(543,17,o),
(636,128,o),
(636,285,cs),
(636,662,l),
(561,662,l)
);
}
);
width = 709;
}
);
unicode = 370;
}
{
glyphname = uogonek;
kernLeft = u;
kernRight = a;
layers = (
{
anchors = (
{
name = bottom;
pos = (283,0);
},
{
name = ogonek;
pos = (491,0);
},
{
name = top;
pos = (283,500);
},
{
name = topright;
pos = (658,493);
}
);
hints = (
{
place = (60, 75);
place = (60, 75);
type = Stem;
},
{
place = (426, 75);
place = (426, 75);
type = Stem;
},
{
horizontal = 1;
place = (0, 21);
target = up;
type = BottomGhost;
},
{
horizontal = 1;
place = (500, -20);
target = down;
type = TopGhost;
},
{
horizontal = 1;
place = (-8, 68);
place = (-8, 68);
type = Stem;
},
{
place = (329, 77);
place = (329, 77);
type = Stem;
},
{
horizontal = 1;
place = (-195, 54);
place = (-195, 54);
type = Stem;
}
);
layerId = UUID0;
shapes = (
{
closed = 1;
nodes = (
(436,-154,o),
(406,-136,o),
(406,-104,cs),
(406,-54,o),
(471,-19,o),
(501,0,c),
(501,500,l),
(426,500,l),
(426,212,ls),
(426,122,o),
(358,60,o),
(275,60,cs),
(193,60,o),
(135,120,o),
(135,211,cs),
(135,500,l),
(60,500,l),
(60,209,ls),
(60,67,o),
(157,-8,o),
(260,-8,cs),
(341,-8,o),
(390,30,o),
(426,78,c),
(426,0,l),
(445,0,l),
(398,-22,o),
(329,-55,o),
(329,-123,cs),
(329,-178,o),
(377,-206,o),
(426,-206,cs),
(454,-206,o),
(482,-198,o),
(501,-182,c),
(501,-143,l),
(492,-150,o),
(479,-154,o),
(466,-154,cs)
);
}
);
width = 566;
}
);
metricRight = u;
unicode = 371;
}
{
glyphname = longs;
kernLeft = f;
kernRight = f;
layers = (
{
hints = (
{
place = (99, 75);
place = (99, 75);
type = Stem;
},
{
horizontal = 1;
place = (0, 21);
target = up;
type = BottomGhost;
},
{
horizontal = 1;
place = (434, 66);
place = (434, 66);
type = Stem;
},
{
horizontal = 1;
place = (637, 71);
place = (637, 71);
type = Stem;
}
);
layerId = UUID0;
shapes = (
{
closed = 1;
nodes = (
(174,0,l),
(174,538,ls),
(174,607,o),
(210,637,o),
(280,637,cs),
(290,637,l),
(290,708,l),
(284,708,ls),
(169,708,o),
(99,653,o),
(99,544,cs),
(99,500,l),
(13,500,l),
(13,434,l),
(99,434,l),
(99,0,l)
);
}
);
width = 239;
}
);
unicode = 383;
}
{
glyphname = bstroke;
kernLeft = h;
kernRight = o;
layers = (
{
layerId = UUID0;
shapes = (
{
closed = 1;
nodes = (
(7,623,l),
(7,558,l),
(355,558,l),
(355,623,l)
);
},
{
ref = b;
}
);
width = 594;
}
);
unicode = 384;
}
{
color = 11;
glyphname = Chook;
kernLeft = O;
kernRight = Khook;
layers = (
{
anchors = (
{
name = _top;
pos = (529,315);
},
{
name = bottom;
pos = (345,0);
},
{
name = top;
pos = (345,662);
}
);
hints = (
{
place = (39,75);
type = Stem;
},
{
horizontal = 1;
place = (-8,73);
type = Stem;
},
{
horizontal = 1;
place = (597,73);
type = Stem;
}
);
layerId = UUID0;
shapes = (
{
closed = 1;
nodes = (
(509,-8,o),
(617,77,o),
(659,198,c),
(580,198,l),
(546,117,o),
(474,65,o),
(365,65,cs),
(204,65,o),
(114,182,o),
(114,331,cs),
(114,480,o),
(204,597,o),
(365,597,cs),
(474,597,o),
(549,545,o),
(583,464,c),
(659,464,l),
(617,585,o),
(509,670,o),
(359,670,cs),
(160,670,o),
(39,519,o),
(39,331,cs),
(39,143,o),
(160,-8,o),
(359,-8,cs)
);
},
{
closed = 1;
nodes = (
(604,789,o),
(584,710,o),
(584,645,cs),
(584,464,l),
(659,464,l),
(659,645,ls),
(659,678,o),
(663,722,o),
(735,722,cs),
(743,722,o),
(750,721,o),
(759,719,c),
(759,787,l),
(748,788,o),
(739,789,o),
(729,789,cs)
);
}
);
width = 690;
},
{
anchors = (
{
name = _top;
pos = (431,213);
}
);
associatedMasterId = UUID0;
layerId = "5C4E2A17-8029-4B0B-A92D-A6D3C6306DE9";
name = "May 8 20, 16:52";
shapes = (
{
closed = 1;
nodes = (
(502,557,o),
(546,593,o),
(614,593,cs),
(629,593,o),
(644,592,o),
(660,589,c),
(660,657,l),
(641,661,o),
(622,662,o),
(605,662,cs),
(503,662,o),
(435,601,o),
(431,485,cs),
(431,463,l),
(502,463,l)
);
},
{
ref = C;
}
);
width = 690;
},
{
anchors = (
{
name = _top;
pos = (529,187);
}
);
associatedMasterId = UUID0;
layerId = "4A3BA381-D792-4130-9832-D09E17AF1572";
name = "May 11 20, 12:26";
shapes = (
{
closed = 1;
nodes = (
(600,531,o),
(644,567,o),
(712,567,cs),
(727,567,o),
(742,566,o),
(758,563,c),
(758,631,l),
(739,635,o),
(720,636,o),
(703,636,cs),
(601,636,o),
(533,575,o),
(529,459,cs),
(529,437,l),
(600,437,l)
);
},
{
ref = C;
}
);
visible = 1;
width = 690;
}
);
metricLeft = C;
unicode = 391;
}
{
glyphname = chook;
kernLeft = o;
kernRight = c;
layers = (
{
anchors = (
{
name = bottom;
pos = (272,0);
},
{
name = top;
pos = (272,500);
}
);
hints = (
{
place = (34, 75);
place = (34, 75);
type = Stem;
},
{
horizontal = 1;
place = (-8, 68);
place = (-8, 68);
type = Stem;
},
{
horizontal = 1;
place = (440, 68);
place = (440, 68);
type = Stem;
}
);
layerId = UUID0;
shapes = (
{
closed = 1;
nodes = (
(456,658,o),
(436,579,o),
(436,514,cs),
(436,456,l),
(396,489,o),
(343,508,o),
(280,508,cs),
(130,508,o),
(34,393,o),
(34,250,cs),
(34,107,o),
(130,-8,o),
(280,-8,cs),
(398,-8,o),
(487,60,o),
(516,157,c),
(435,157,l),
(412,100,o),
(361,60,o),
(290,60,cs),
(179,60,o),
(109,147,o),
(109,250,cs),
(109,353,o),
(179,440,o),
(290,440,cs),
(361,440,o),
(412,400,o),
(435,343,c),
(511,343,l),
(511,514,ls),
(511,547,o),
(515,591,o),
(587,591,cs),
(595,591,o),
(602,590,o),
(611,588,c),
(611,656,l),
(600,657,o),
(591,658,o),
(581,658,cs)
);
}
);
width = 581;
},
{
anchors = (
{
name = bottom;
pos = (272,0);
},
{
name = top;
pos = (272,500);
}
);
associatedMasterId = UUID0;
hints = (
{
place = (34, 75);
place = (34, 75);
type = Stem;
},
{
horizontal = 1;
place = (-8, 68);
place = (-8, 68);
type = Stem;
},
{
horizontal = 1;
place = (440, 68);
place = (440, 68);
type = Stem;
}
);
layerId = "44400E1D-AD7D-46F4-8A87-6828AB342AF1";
name = "Jun 9 20, 17:13";
shapes = (
{
closed = 1;
nodes = (
(436,456,l),
(396,489,o),
(343,508,o),
(280,508,cs),
(130,508,o),
(34,393,o),
(34,250,cs),
(34,107,o),
(130,-8,o),
(280,-8,cs),
(398,-8,o),
(487,60,o),
(516,157,c),
(435,157,l),
(412,100,o),
(361,60,o),
(290,60,cs),
(179,60,o),
(109,147,o),
(109,250,cs),
(109,353,o),
(179,440,o),
(290,440,cs),
(361,440,o),
(412,400,o),
(435,343,c),
(511,343,l),
(511,563,ls),
(511,596,o),
(515,640,o),
(587,640,cs),
(595,640,o),
(602,639,o),
(611,637,c),
(611,705,l),
(600,706,o),
(591,707,o),
(581,707,cs),
(456,707,o),
(436,628,o),
(436,563,cs)
);
}
);
width = 581;
}
);
unicode = 392;
}
{
glyphname = Schwa;
kernLeft = O;
kernRight = O;
layers = (
{
anchors = (
{
name = bottom;
pos = (359,0);
},
{
name = ogonek;
pos = (424,0);
},
{
name = top;
pos = (359,662);
}
);
layerId = UUID0;
shapes = (
{
closed = 1;
nodes = (
(40,360,o),
(39,346,o),
(39,331,cs),
(39,143,o),
(168,-8,o),
(359,-8,cs),
(550,-8,o),
(679,143,o),
(679,331,cs),
(679,519,o),
(550,670,o),
(359,670,cs),
(219,670,o),
(112,589,o),
(65,471,c),
(144,471,l),
(184,547,o),
(259,597,o),
(359,597,cs),
(512,597,o),
(606,480,o),
(606,331,cs),
(606,182,o),
(512,65,o),
(359,65,cs),
(206,65,o),
(112,182,o),
(112,331,cs),
(112,346,o),
(113,360,o),
(115,374,c),
(41,374,l)
);
},
{
pos = (107,-82);
ref = strokelongcomb.case;
}
);
width = 718;
}
);
unicode = 399;
}
{
glyphname = Eopen;
kernLeft = S;
kernRight = C;
layers = (
{
anchors = (
{
name = bottom;
pos = (285,0);
},
{
name = ogonek;
pos = (363,0);
},
{
name = top;
pos = (285,662);
}
);
hints = (
{
place = (116, 75);
place = (116, 75);
type = Stem;
},
{
place = (138, 75);
place = (138, 75);
type = Stem;
},
{
horizontal = 1;
place = (-8, 73);
place = (-8, 73);
type = Stem;
},
{
horizontal = 1;
place = (314, 69);
place = (314, 69);
type = Stem;
},
{
horizontal = 1;
place = (597, 73);
place = (597, 73);
type = Stem;
}
);
layerId = UUID0;
shapes = (
{
closed = 1;
nodes = (
(410,-8,o),
(512,72,o),
(522,175,c),
(446,175,l),
(436,113,o),
(366,65,o),
(286,65,cs),
(179,65,o),
(116,120,o),
(116,188,cs),
(116,255,o),
(183,314,o),
(279,314,cs),
(375,314,l),
(375,383,l),
(288,383,ls),
(208,383,o),
(138,427,o),
(138,491,cs),
(138,554,o),
(190,597,o),
(290,597,cs),
(371,597,o),
(422,554,o),
(431,503,c),
(504,503,l),
(495,584,o),
(421,670,o),
(292,670,cs),
(150,670,o),
(63,597,o),
(63,494,cs),
(63,428,o),
(118,367,o),
(163,353,c),
(86,324,o),
(41,261,o),
(41,190,cs),
(41,72,o),
(150,-8,o),
(286,-8,cs)
);
}
);
width = 570;
}
);
unicode = 400;
}
{
color = 3;
glyphname = florin;
kernLeft = f;
kernRight = f;
layers = (
{
hints = (
{
place = (-73, 437);
place = (-73, 437);
type = Stem;
},
{
horizontal = 1;
place = (367, 49);
place = (367, 49);
type = Stem;
},
{
horizontal = 1;
place = (637, 71);
place = (637, 71);
type = Stem;
}
);
layerId = UUID0;
shapes = (
{
closed = 1;
nodes = (
(154,-206,o),
(174,-127,o),
(174,-62,cs),
(174,119,l),
(99,119,l),
(99,-62,ls),
(99,-95,o),
(95,-139,o),
(23,-139,cs),
(15,-139,o),
(8,-138,o),
(-1,-136,c),
(-1,-204,l),
(10,-205,o),
(19,-206,o),
(29,-206,cs)
);
},
{
ref = f;
}
);
width = 307;
},
{
associatedMasterId = UUID0;
hints = (
{
place = (-73, 437);
place = (-73, 437);
type = Stem;
},
{
horizontal = 1;
place = (367, 49);
place = (367, 49);
type = Stem;
},
{
horizontal = 1;
place = (637, 71);
place = (637, 71);
type = Stem;
}
);
layerId = "98869ECF-D15D-4B03-A729-462A4E25E2E8";
name = "Jun 8 20, 18:27";
shapes = (
{
closed = 1;
nodes = (
(33,-144,o),
(105,-96,o),
(123,9,cs),
(188,367,l),
(313,367,l),
(313,416,l),
(197,416,l),
(218,538,ls),
(231,613,o),
(273,637,o),
(342,637,cs),
(352,637,l),
(364,708,l),
(358,708,ls),
(244,708,o),
(165,664,o),
(144,544,cs),
(122,416,l),
(27,416,l),
(27,367,l),
(113,367,l),
(47,3,ls),
(36,-62,o),
(-10,-86,o),
(-62,-90,c),
(-73,-149,l)
);
}
);
width = 332;
}
);
unicode = 402;
}
{
glyphname = Ghook;
kernLeft = O;
kernRight = Khook;
layers = (
{
anchors = (
{
name = bottom;
pos = (362,0);
},
{
name = top;
pos = (362,662);
}
);
hints = (
{
place = (39,75);
type = Stem;
},
{
place = (603,69);
type = Stem;
},
{
horizontal = 1;
place = (-8,73);
type = Stem;
},
{
horizontal = 1;
place = (284,68);
type = Stem;
},
{
horizontal = 1;
place = (597,73);
type = Stem;
},
{
horizontal = 1;
place = (0,21);
target = up;
type = BottomGhost;
}
);
layerId = UUID0;
shapes = (
{
closed = 1;
nodes = (
(361,284,l),
(603,284,l),
(603,146,o),
(489,65,o),
(369,65,cs),
(208,65,o),
(114,182,o),
(114,331,cs),
(114,479,o),
(209,597,o),
(368,597,cs),
(475,597,o),
(549,544,o),
(583,464,c),
(659,464,l),
(618,583,o),
(512,670,o),
(365,670,cs),
(362,670,l),
(359,670,ls),
(163,670,o),
(39,517,o),
(39,331,cs),
(39,143,o),
(161,-8,o),
(363,-8,cs),
(483,-8,o),
(561,53,o),
(603,117,c),
(603,0,l),
(672,0,l),
(672,352,l),
(361,352,l)
);
},
{
closed = 1;
nodes = (
(604,789,o),
(584,710,o),
(584,645,cs),
(584,464,l),
(659,464,l),
(659,645,ls),
(659,678,o),
(663,722,o),
(735,722,c),
(743,722,o),
(750,721,o),
(759,719,c),
(759,787,l),
(748,788,o),
(739,789,o),
(729,789,cs)
);
}
);
width = 723;
}
);
unicode = 403;
}
{
color = 3;
glyphname = "Gamma-latin";
kernLeft = V;
kernRight = V;
layers = (
{
anchors = (
{
name = bottom;
pos = (313,-198);
},
{
name = top;
pos = (313,662);
}
);
background = {
shapes = (
{
closed = 1;
nodes = (
(356,0,l),
(624,662,l),
(542,662,l),
(313,85,l),
(84,662,l),
(2,662,l),
(270,0,l)
);
}
);
};
layerId = UUID0;
shapes = (
{
closed = 1;
nodes = (
(350,69,o),
(391,14,o),
(391,-40,cs),
(391,-95,o),
(362,-128,o),
(313,-128,c),
(313,-203,l),
(415,-203,o),
(466,-122,o),
(466,-42,cs),
(466,33,o),
(399,132,o),
(89,662,c),
(3,662,l)
);
},
{
closed = 1;
nodes = (
(537,662,l),
(227,132,o),
(160,33,o),
(160,-42,cs),
(160,-122,o),
(211,-203,o),
(313,-203,c),
(313,-128,l),
(264,-128,o),
(235,-95,o),
(235,-40,cs),
(235,13,o),
(265,67,o),
(623,662,c)
);
}
);
width = 626;
},
{
associatedMasterId = UUID0;
background = {
shapes = (
{
closed = 1;
nodes = (
(356,0,l),
(624,662,l),
(542,662,l),
(313,85,l),
(84,662,l),
(2,662,l),
(270,0,l)
);
}
);
};
layerId = "4617B1BC-9625-4761-B6EA-15A7F6862D26";
name = "Jun 8 20, 18:31";
shapes = (
{
closed = 1;
nodes = (
(537,662,l),
(437,469,o),
(365,330,o),
(313,229,c),
(89,662,l),
(3,662,l),
(134,409,o),
(218,250,o),
(271,146,c),
(208,20,o),
(190,-30,o),
(190,-72,cs),
(190,-137,o),
(231,-203,o),
(313,-203,cs),
(395,-203,o),
(436,-137,o),
(436,-72,cs),
(436,-29,o),
(417,21,o),
(353,149,c),
(406,253,o),
(490,412,o),
(623,662,c)
);
},
{
closed = 1;
nodes = (
(361,-106,o),
(343,-128,o),
(313,-128,cs),
(283,-128,o),
(265,-106,o),
(265,-70,cs),
(265,-45,o),
(271,-19,o),
(312,65,c),
(353,-18,o),
(361,-45,o),
(361,-70,cs)
);
}
);
visible = 1;
width = 626;
}
);
metricLeft = V;
metricRight = V;
unicode = 404;
}
{
glyphname = "Iota-latin";
kernLeft = I;
kernRight = I;
layers = (
{
anchors = (
{
name = bottom;
pos = (103,0);
},
{
name = top;
pos = (103,700);
}
);
hints = (
{
place = (65,75);
type = Stem;
},
{
horizontal = 1;
place = (0,21);
target = up;
type = BottomGhost;
}
);
layerId = UUID0;
shapes = (
{
closed = 1;
nodes = (
(180,61,o),
(140,97,o),
(140,191,cs),
(140,662,l),
(65,662,l),
(65,169,ls),
(65,53,o),
(137,-8,o),
(239,-8,cs),
(256,-8,o),
(275,-7,o),
(294,-3,c),
(294,65,l),
(278,62,o),
(263,61,o),
(248,61,cs)
);
}
);
width = 304;
}
);
unicode = 406;
}
{
glyphname = Istroke;
kernLeft = I;
kernRight = I;
layers = (
{
anchors = (
{
name = bottom;
pos = (119,0);
},
{
name = top;
pos = (119,662);
}
);
layerId = UUID0;
shapes = (
{
closed = 1;
nodes = (
(7,364,l),
(7,299,l),
(230,299,l),
(230,364,l)
);
},
{
ref = I;
}
);
width = 237;
},
{
associatedMasterId = UUID0;
layerId = "EE32EF94-AEFE-40E7-8103-E6F0081A446C";
name = "May 27 20, 14:28";
shapes = (
{
closed = 1;
nodes = (
(-25,363,l),
(-25,298,l),
(262,298,l),
(262,363,l)
);
},
{
ref = I;
}
);
width = 237;
}
);
unicode = 407;
}
{
color = 11;
glyphname = Khook;
kernLeft = I;
kernRight = Khook;
layers = (
{
anchors = (
{
name = bottom;
pos = (321,0);
},
{
name = top;
pos = (321,662);
}
);
background = {
shapes = (
{
closed = 1;
nodes = (
(422,565,l),
(509,648,o),
(532,670,o),
(584,670,cs),
(653,670,o),
(688,636,o),
(698,541,c),
(636,528,l),
(630,578,o),
(619,597,o),
(584,597,cs),
(563,597,o),
(519,565,o),
(474,514,c)
);
}
);
};
hints = (
{
place = (81, 75);
place = (81, 75);
type = Stem;
},
{
horizontal = 1;
place = (0, 21);
target = up;
type = BottomGhost;
},
{
horizontal = 1;
place = (662, -20);
target = down;
type = TopGhost;
}
);
layerId = UUID0;
shapes = (
{
closed = 1;
nodes = (
(469,553,o),
(507,597,o),
(543,597,cs),
(587,597,o),
(593,562,o),
(597,527,c),
(661,541,l),
(661,624,o),
(618,670,o),
(543,670,cs),
(482,670,o),
(440,630,o),
(374,557,cs),
(156,317,l),
(156,662,l),
(81,662,l),
(81,0,l),
(156,0,l),
(156,217,l),
(285,355,l),
(552,0,l),
(646,0,l),
(337,411,l),
(425,506,ls)
);
}
);
width = 641;
}
);
unicode = 408;
}
{
glyphname = khook;
kernLeft = l;
kernRight = k;
layers = (
{
anchors = (
{
name = bottom;
pos = (251,0);
},
{
name = top;
pos = (251,700);
}
);
hints = (
{
place = (65,75);
type = Stem;
},
{
horizontal = 1;
place = (0,21);
target = up;
type = BottomGhost;
},
{
horizontal = 1;
place = (500,-20);
target = down;
type = TopGhost;
}
);
layerId = UUID0;
shapes = (
{
closed = 1;
nodes = (
(486,500,l),
(381,500,l),
(140,252,l),
(140,564,ls),
(140,597,o),
(144,641,o),
(216,641,cs),
(224,641,o),
(231,640,o),
(240,638,c),
(240,706,l),
(229,707,o),
(220,708,o),
(210,708,cs),
(85,708,o),
(65,629,o),
(65,564,cs),
(65,0,l),
(140,0,l),
(140,158,l),
(234,251,l),
(409,0,l),
(501,0,l),
(285,303,l)
);
}
);
width = 502;
}
);
unicode = 409;
}
{
glyphname = lbar;
kernLeft = l;
kernRight = l;
layers = (
{
layerId = UUID0;
shapes = (
{
closed = 1;
nodes = (
(7,393,l),
(7,328,l),
(254,328,l),
(254,393,l)
);
},
{
pos = (28,0);
ref = l;
}
);
width = 261;
}
);
unicode = 410;
}
{
glyphname = lambdastroke;
kernLeft = y;
kernRight = y;
layers = (
{
background = {
shapes = (
{
closed = 1;
nodes = (
(85,0,l),
(207,281,ls),
(224,320,o),
(253,400,o),
(262,435,q),
(266,435,l),
(270,416,o),
(287,359,o),
(308,300,o),
(316,276,qs),
(389,71,ls),
(405,27,o),
(448,-10,o),
(485,-10,qs),
(502,-10,o),
(531,-3,o),
(542,2,q),
(542,67,l),
(537,66,o),
(520,62,o),
(512,62,qs),
(481,62,o),
(462,116,qs),
(283,614,l),
(385,646,l),
(366,709,l),
(257,676,l),
(233,722,o),
(168,766,o),
(111,766,qs),
(93,766,o),
(59,761,o),
(45,758,q),
(45,687,l),
(56,689,o),
(83,693,o),
(101,693,qs),
(128,693,o),
(162,675,o),
(176,651,q),
(77,621,l),
(96,558,l),
(202,590,l),
(225,526,l),
(-6,0,l),
(-6,0,l)
);
}
);
};
layerId = UUID0;
shapes = (
{
closed = 1;
nodes = (
(362,613,l),
(337,674,l),
(57,561,l),
(81,500,l)
);
},
{
ref = lambda.latin;
}
);
width = 600;
},
{
anchors = (
{
name = _top;
pos = (462.764,729.569);
}
);
associatedMasterId = UUID0;
background = {
shapes = (
{
closed = 1;
nodes = (
(85,0,l),
(207,281,ls),
(224,320,o),
(253,400,o),
(262,435,q),
(266,435,l),
(270,416,o),
(287,359,o),
(308,300,o),
(316,276,qs),
(389,71,ls),
(405,27,o),
(448,-10,o),
(485,-10,qs),
(502,-10,o),
(531,-3,o),
(542,2,q),
(542,67,l),
(537,66,o),
(520,62,o),
(512,62,qs),
(481,62,o),
(462,116,qs),
(283,614,l),
(385,646,l),
(366,709,l),
(257,676,l),
(233,722,o),
(168,766,o),
(111,766,qs),
(93,766,o),
(59,761,o),
(45,758,q),
(45,687,l),
(56,689,o),
(83,693,o),
(101,693,qs),
(128,693,o),
(162,675,o),
(176,651,q),
(77,621,l),
(96,558,l),
(202,590,l),
(225,526,l),
(-6,0,l),
(-6,0,l)
);
}
);
};
layerId = "F6F84EA3-5EB2-4C80-A615-9DEB2ED787EA";
name = "May 27 20, 13:01";
shapes = (
{
closed = 1;
nodes = (
(226,493,l),
(22,0,l),
(105,0,l),
(266,410,l),
(430,0,l),
(512,0,l),
(285,534,l),
(135,698,l)
);
},
{
closed = 1;
nodes = (
(243,633,o),
(210,708,o),
(116,708,cs),
(66,708,o),
(23,679,o),
(8,600,c),
(64,575,l),
(75,609,o),
(85,634,o),
(117,634,cs),
(169,634,o),
(194,569,o),
(218,512,c),
(285,534,l)
);
},
{
closed = 1;
nodes = (
(49.544,692.134,o),
(41.65,687.697,o),
(31.915,682.479,c),
(58.485,619.885,l),
(65.988,625.242,o),
(72.041,628.898,o),
(79.405,632.024,cs),
(145.681,660.156,o),
(166.555,621.217,o),
(179.449,590.841,cs),
(250.171,424.23,l),
(319.209,453.535,l),
(248.487,620.145,ls),
(223.089,679.978,o),
(173.812,744.883,o),
(58.749,696.042,cs)
);
}
);
width = 600;
}
);
unicode = 411;
}
{
glyphname = Mturned;
kernLeft = I;
kernRight = I;
layers = (
{
anchors = (
{
name = bottom;
pos = (450,162);
},
{
name = top;
pos = (450,662);
}
);
associatedMasterId = UUID0;
hints = (
{
place = (65,-75);
type = Stem;
},
{
place = (399,-75);
type = Stem;
},
{
place = (733,-75);
type = Stem;
},
{
horizontal = 1;
place = (662,21);
target = up;
type = BottomGhost;
},
{
horizontal = 1;
place = (222,-68);
type = Stem;
},
{
horizontal = 1;
place = (162,21);
target = up;
type = BottomGhost;
}
);
layerId = "E884619F-0041-4C42-BB2B-85A11EC5DA53";
name = "May 12 20, 11:56";
shapes = (
{
closed = 1;
nodes = (
(81,-8,l),
(156,-8,l),
(156,68,l),
(177,28,o),
(211,-16,o),
(298,-16,cs),
(360,-16,o),
(417,21,o),
(447,85,c),
(466,51,o),
(516,-16,o),
(609,-16,cs),
(700,-16,o),
(784,64,o),
(784,190,cs),
(784,662,l),
(709,662,l),
(709,192,ls),
(709,108,o),
(659,52,o),
(595,52,cs),
(526,52,o),
(470,104,o),
(470,193,cs),
(470,662,l),
(395,662,l),
(395,192,ls),
(395,108,o),
(345,52,o),
(281,52,cs),
(212,52,o),
(156,104,o),
(156,193,cs),
(156,662,l),
(81,662,l)
);
}
);
width = 865;
},
{
anchors = (
{
name = bottom;
pos = (450,0);
},
{
name = top;
pos = (450,662);
}
);
hints = (
{
place = (65,-75);
type = Stem;
},
{
place = (399,-75);
type = Stem;
},
{
place = (733,-75);
type = Stem;
},
{
horizontal = 1;
place = (662,21);
target = up;
type = BottomGhost;
},
{
horizontal = 1;
place = (222,-68);
type = Stem;
},
{
horizontal = 1;
place = (162,21);
target = up;
type = BottomGhost;
}
);
layerId = UUID0;
shapes = (
{
closed = 1;
nodes = (
(749,662,l),
(749,193,ls),
(749,104,o),
(688,52,o),
(614,52,cs),
(544,52,o),
(490,108,o),
(490,192,cs),
(490,662,l),
(415,662,l),
(415,193,ls),
(415,104,o),
(354,52,o),
(280,52,cs),
(210,52,o),
(156,108,o),
(156,192,cs),
(156,662,l),
(81,662,l),
(81,190,ls),
(81,64,o),
(170,-16,o),
(266,-16,cs),
(365,-16,o),
(418,51,o),
(438,85,c),
(470,21,o),
(531,-16,o),
(597,-16,cs),
(678,-16,o),
(726,28,o),
(749,68,c),
(749,-8,l),
(824,-8,l),
(824,662,l)
);
}
);
width = 905;
}
);
metricLeft = M;
metricRight = M;
unicode = 412;
}
{
color = 3;
glyphname = Nhookleft;
kernLeft = Nhookleft;
kernRight = I;
layers = (
{
anchors = (
{
name = _bottom;
pos = (292,0);
}
);
background = {
shapes = (
{
closed = 1;
nodes = (
(81,-94,o),
(38,-137,o),
(-30,-137,cs),
(-45,-137,o),
(-60,-136,o),
(-76,-133,c),
(-76,-201,l),
(-57,-205,o),
(-38,-206,o),
(-21,-206,cs),
(81,-206,o),
(156,-145,o),
(156,-29,cs),
(156,0,l),
(81,0,l)
);
}
);
};
layerId = UUID0;
shapes = (
{
closed = 1;
nodes = (
(81,-105,o),
(38,-137,o),
(-30,-137,cs),
(-45,-137,o),
(-60,-136,o),
(-76,-133,c),
(-76,-201,l),
(-57,-205,o),
(-38,-206,o),
(-21,-206,cs),
(80,-206,o),
(156,-143,o),
(156,-19,cs),
(156,0,l),
(81,0,l)
);
},
{
closed = 1;
nodes = (
(156,0,l),
(156,452,ls),
(156,550,o),
(241,598,o),
(327,598,cs),
(414,598,o),
(502,561,o),
(502,450,cs),
(502,-21,l),
(577,-21,l),
(577,452,ls),
(577,604,o),
(464,671,o),
(347,671,cs),
(277,671,o),
(204,643,o),
(156,583,c),
(156,661,l),
(81,661,l),
(81,0,l)
);
}
);
width = 639;
},
{
anchors = (
{
name = _bottom;
pos = (292,0);
}
);
associatedMasterId = UUID0;
background = {
shapes = (
{
closed = 1;
nodes = (
(81,-94,o),
(38,-137,o),
(-30,-137,cs),
(-45,-137,o),
(-60,-136,o),
(-76,-133,c),
(-76,-201,l),
(-57,-205,o),
(-38,-206,o),
(-21,-206,cs),
(81,-206,o),
(156,-145,o),
(156,-29,cs),
(156,0,l),
(81,0,l)
);
}
);
};
layerId = "EF641E51-F443-4EBB-9757-94B1A0EDCE9B";
name = "Jun 8 20, 18:41";
shapes = (
{
closed = 1;
nodes = (
(81,-105,o),
(38,-137,o),
(-30,-137,cs),
(-45,-137,o),
(-60,-136,o),
(-76,-133,c),
(-76,-201,l),
(-57,-205,o),
(-38,-206,o),
(-21,-206,cs),
(80,-206,o),
(156,-143,o),
(156,-19,cs),
(156,0,l),
(81,0,l)
);
},
{
ref = N;
}
);
width = 733;
}
);
metricRight = i;
unicode = 413;
}
{
glyphname = nlongrightleg;
kernLeft = n;
kernRight = n;
layers = (
{
anchors = (
{
name = bottom;
pos = (469,-198);
},
{
name = top;
pos = (469,500);
}
);
hints = (
{
place = (431, 75);
place = (431, 75);
type = Stem;
},
{
place = (428, 81);
place = (428, 81);
type = Stem;
},
{
horizontal = 1;
place = (-198, 21);
target = up;
type = BottomGhost;
},
{
horizontal = 1;
place = (500, -20);
target = down;
type = TopGhost;
},
{
horizontal = 1;
place = (584, 98);
place = (584, 98);
type = Stem;
},
{
place = (65, 75);
place = (65, 75);
type = Stem;
},
{
place = (431, 75);
place = (431, 75);
type = Stem;
},
{
horizontal = 1;
place = (0, 21);
target = up;
type = BottomGhost;
},
{
horizontal = 1;
place = (500, -20);
target = down;
type = TopGhost;
},
{
horizontal = 1;
place = (440, 68);
place = (440, 68);
type = Stem;
}
);
layerId = UUID0;
shapes = (
{
closed = 1;
nodes = (
(140,0,l),
(140,288,ls),
(140,378,o),
(208,440,o),
(291,440,cs),
(373,440,o),
(431,380,o),
(431,289,cs),
(431,-198,l),
(506,-198,l),
(506,291,ls),
(506,433,o),
(409,508,o),
(306,508,cs),
(225,508,o),
(176,470,o),
(140,422,c),
(140,500,l),
(65,500,l),
(65,0,l)
);
}
);
width = 568;
}
);
unicode = 414;
}
{
glyphname = Ocenteredtilde;
kernLeft = O;
kernRight = O;
layers = (
{
layerId = UUID0;
shapes = (
{
closed = 1;
nodes = (
(70,363,l),
(70,298,l),
(658,298,l),
(658,363,l)
);
},
{
ref = O;
}
);
width = 750;
}
);
metricLeft = O;
metricRight = O;
unicode = 415;
}
{
glyphname = Ohorn;
kernLeft = O;
kernRight = O;
layers = (
{
anchors = (
{
name = _topright;
pos = (534,662);
},
{
name = bottom;
pos = (375,0);
},
{
name = top;
pos = (375,662);
},
{
name = topright;
pos = (665,830);
}
);
layerId = UUID0;
shapes = (
{
closed = 1;
nodes = (
(563,696,o),
(529,662,o),
(479,662,cs),
(441,662,l),
(459,592,l),
(479,592,ls),
(570,592,o),
(633,653,o),
(633,771,c),
(563,771,l)
);
},
{
ref = O;
}
);
width = 750;
}
);
unicode = 416;
}
{
glyphname = ohorn;
kernLeft = o;
kernRight = o;
layers = (
{
anchors = (
{
name = bottom;
pos = (282,0);
},
{
name = center;
pos = (282,250);
},
{
name = ogonek;
pos = (368,0);
},
{
name = top;
pos = (282,500);
},
{
name = topright;
pos = (544,500);
}
);
hints = (
{
place = (34,75);
type = Stem;
},
{
place = (455,75);
type = Stem;
},
{
horizontal = 1;
place = (-8,68);
type = Stem;
},
{
horizontal = 1;
place = (440,68);
type = Stem;
}
);
layerId = UUID0;
shapes = (
{
closed = 1;
nodes = (
(464,494,o),
(486,546,o),
(486,616,c),
(416,616,l),
(416,541,o),
(382,508,o),
(332,508,cs),
(282,508,ls),
(129,508,o),
(34,393,o),
(34,250,cs),
(34,107,o),
(129,-8,o),
(282,-8,cs),
(435,-8,o),
(530,107,o),
(530,250,cs),
(530,340,o),
(493,419,o),
(427,465,c)
);
},
{
closed = 1;
nodes = (
(171,60,o),
(109,147,o),
(109,250,cs),
(109,353,o),
(171,440,o),
(282,440,cs),
(393,440,o),
(455,353,o),
(455,250,cs),
(455,147,o),
(393,60,o),
(282,60,cs)
);
}
);
width = 564;
}
);
unicode = 417;
}
{
color = 0;
glyphname = Phook;
kernLeft = Bhook;
kernRight = P;
layers = (
{
anchors = (
{
name = _top;
pos = (454,662);
}
);
layerId = UUID0;
shapes = (
{
closed = 1;
nodes = (
(204,662,l),
(182,662,ls),
(66,662,o),
(5,590,o),
(5,488,cs),
(5,471,o),
(6,452,o),
(10,433,c),
(78,433,l),
(75,449,o),
(74,464,o),
(74,479,cs),
(74,547,o),
(110,591,o),
(204,591,c)
);
},
{
alignment = -1;
pos = (123,0);
ref = P;
}
);
width = 751;
}
);
unicode = 420;
}
{
glyphname = phook;
kernLeft = n;
kernRight = o;
layers = (
{
anchors = (
{
name = _top;
pos = (-175,581);
}
);
layerId = UUID0;
shapes = (
{
closed = 1;
nodes = (
(85,708,o),
(65,629,o),
(65,564,cs),
(65,383,l),
(140,383,l),
(140,564,ls),
(140,597,o),
(144,641,o),
(216,641,cs),
(224,641,o),
(231,640,o),
(240,638,c),
(240,706,l),
(229,707,o),
(220,708,o),
(210,708,cs)
);
},
{
ref = p;
}
);
width = 595;
}
);
metricLeft = n;
metricRight = o;
unicode = 421;
}
{
glyphname = Yr;
layers = (
{
anchors = (
{
name = bottom;
pos = (335,0);
},
{
name = ogonek;
pos = (581,2);
},
{
name = top;
pos = (335,662);
}
);
background = {
shapes = (
{
ref = Thorn;
}
);
};
hints = (
{
place = (81,75);
type = Stem;
},
{
place = (546,75);
type = Stem;
},
{
horizontal = 1;
place = (0,21);
target = up;
type = BottomGhost;
},
{
horizontal = 1;
place = (254,71);
type = Stem;
},
{
horizontal = 1;
place = (591,71);
type = Stem;
}
);
layerId = UUID0;
shapes = (
{
closed = 1;
nodes = (
(156,156,l),
(386,156,l),
(484,0,l),
(573,0,l),
(461,169,l),
(535,186,o),
(621,229,o),
(621,357,cs),
(621,483,o),
(534,564,o),
(398,564,cs),
(156,564,l),
(156,662,l),
(81,662,l),
(81,0,l),
(156,0,l)
);
},
{
closed = 1;
nodes = (
(156,493,l),
(389,493,ls),
(483,493,o),
(546,441,o),
(546,357,cs),
(546,254,o),
(456,227,o),
(385,227,cs),
(156,227,l)
);
}
);
width = 669;
}
);
unicode = 422;
}
{
glyphname = Esh;
layers = (
{
anchors = (
{
name = bottom;
pos = (160,0);
},
{
name = ogonek;
pos = (108,0);
},
{
name = top;
pos = (189,662);
},
{
name = topleft;
pos = (90,662);
}
);
hints = (
{
place = (81,75);
type = Stem;
},
{
horizontal = 1;
place = (0,72);
type = Stem;
},
{
horizontal = 1;
place = (295,73);
type = Stem;
},
{
horizontal = 1;
place = (590,72);
type = Stem;
}
);
layerId = UUID0;
shapes = (
{
closed = 1;
nodes = (
(151,93,o),
(108,61,o),
(40,61,cs),
(25,61,o),
(10,62,o),
(-6,65,c),
(-6,-3,l),
(13,-7,o),
(32,-8,o),
(49,-8,cs),
(150,-8,o),
(226,55,o),
(226,179,cs),
(226,464,ls),
(226,569,o),
(269,601,o),
(337,601,cs),
(352,601,o),
(367,600,o),
(383,597,c),
(383,665,l),
(364,669,o),
(345,670,o),
(328,670,cs),
(227,670,o),
(151,607,o),
(151,483,cs),
(151,198,ls)
);
}
);
width = 377;
}
);
unicode = 425;
}
{
color = 0;
glyphname = Thook;
kernLeft = Bhook;
kernRight = T;
layers = (
{
anchors = (
{
name = bottom;
pos = (322,0);
},
{
name = center;
pos = (347,331);
},
{
name = top;
pos = (347,662);
}
);
guides = (
{
pos = (384,590);
showMeasurement = 1;
}
);
hints = (
{
place = (245,75);
type = Stem;
},
{
horizontal = 1;
place = (0,21);
target = up;
type = BottomGhost;
},
{
horizontal = 1;
place = (590,72);
type = Stem;
}
);
layerId = UUID0;
shapes = (
{
closed = 1;
nodes = (
(182,662,l),
(66,658,o),
(5,590,o),
(5,488,cs),
(5,471,o),
(6,452,o),
(10,433,c),
(78,433,l),
(75,449,o),
(74,464,o),
(74,479,cs),
(74,547,o),
(110,590,o),
(204,590,cs),
(309,590,l),
(309,0,l),
(384,0,l),
(384,590,l),
(615,590,l),
(615,662,l)
);
}
);
width = 629;
}
);
unicode = 428;
}
{
color = 3;
glyphname = thook;
kernLeft = t;
kernRight = t;
layers = (
{
anchors = (
{
name = bottom;
pos = (156,0);
},
{
name = center;
pos = (163,250);
},
{
name = top;
pos = (157,679);
},
{
name = topright;
pos = (306,500);
}
);
hints = (
{
place = (119, 75);
place = (119, 75);
type = Stem;
},
{
horizontal = 1;
place = (0, 21);
target = up;
type = BottomGhost;
},
{
horizontal = 1;
place = (434, 66);
place = (434, 66);
type = Stem;
}
);
layerId = UUID0;
shapes = (
{
closed = 1;
nodes = (
(194,500,l),
(194,564,ls),
(194,597,o),
(198,641,o),
(270,641,cs),
(278,641,o),
(285,640,o),
(294,638,c),
(294,706,l),
(283,707,o),
(274,708,o),
(264,708,cs),
(139,708,o),
(119,629,o),
(119,564,cs),
(119,500,l),
(17,500,l),
(17,434,l),
(119,434,l),
(119,136,l),
(194,136,l),
(194,434,l),
(309,434,l),
(309,500,l)
);
},
{
closed = 1;
nodes = (
(119,136,l),
(119,71,o),
(139,-8,o),
(264,-8,cs),
(274,-8,o),
(283,-7,o),
(294,-6,c),
(294,62,l),
(285,60,o),
(278,59,o),
(270,59,cs),
(198,59,o),
(194,103,o),
(194,136,c)
);
}
);
width = 326;
}
);
unicode = 429;
}
{
glyphname = Tretroflexhook;
kernLeft = T;
kernRight = T;
layers = (
{
anchors = (
{
name = _bottom;
pos = (120,0);
}
);
layerId = UUID0;
shapes = (
{
closed = 1;
nodes = (
(245,0,l),
(245,-19,ls),
(245,-143,o),
(321,-206,o),
(422,-206,cs),
(439,-206,o),
(458,-205,o),
(477,-201,c),
(477,-133,l),
(461,-136,o),
(446,-137,o),
(431,-137,cs),
(363,-137,o),
(320,-105,o),
(320,0,c)
);
},
{
ref = T;
}
);
width = 565;
}
);
unicode = 430;
}
{
glyphname = Uhorn;
kernLeft = U;
kernRight = Uhorn;
layers = (
{
anchors = (
{
name = bottom;
pos = (355,0);
},
{
name = ogonek;
pos = (434,10);
},
{
name = top;
pos = (355,662);
},
{
name = topright;
pos = (689,662);
}
);
hints = (
{
place = (73,75);
type = Stem;
},
{
place = (561,75);
type = Stem;
},
{
horizontal = 1;
place = (-8,73);
type = Stem;
},
{
horizontal = 1;
place = (662,-20);
target = down;
type = TopGhost;
}
);
layerId = UUID0;
shapes = (
{
closed = 1;
nodes = (
(718,771,l),
(718,696,o),
(684,662,o),
(634,662,cs),
(561,662,l),
(561,283,ls),
(561,129,o),
(459,65,o),
(354,65,cs),
(249,65,o),
(148,129,o),
(148,283,cs),
(148,662,l),
(73,662,l),
(73,285,ls),
(73,109,o),
(189,-8,o),
(354,-8,cs),
(520,-8,o),
(636,110,o),
(636,285,cs),
(636,592,l),
(726,593,o),
(788,654,o),
(788,771,c)
);
}
);
width = 709;
}
);
unicode = 431;
}
{
color = 3;
glyphname = uhorn;
kernLeft = u;
kernRight = a;
layers = (
{
anchors = (
{
name = bottom;
pos = (283,0);
},
{
name = ogonek;
pos = (491,0);
},
{
name = top;
pos = (283,500);
},
{
name = topright;
pos = (658,493);
}
);
hints = (
{
place = (60,75);
type = Stem;
},
{
place = (426,75);
type = Stem;
},
{
horizontal = 1;
place = (0,21);
target = up;
type = BottomGhost;
},
{
horizontal = 1;
place = (500,-20);
target = down;
type = TopGhost;
},
{
horizontal = 1;
place = (-8,68);
type = Stem;
}
);
layerId = UUID0;
shapes = (
{
closed = 1;
nodes = (
(530,609,l),
(530,534,o),
(496,500,o),
(446,500,cs),
(426,500,l),
(426,212,ls),
(426,122,o),
(358,60,o),
(275,60,cs),
(193,60,o),
(135,120,o),
(135,211,cs),
(135,500,l),
(60,500,l),
(60,209,ls),
(60,67,o),
(157,-8,o),
(260,-8,cs),
(341,-8,o),
(390,30,o),
(426,78,c),
(426,0,l),
(501,0,l),
(501,439,l),
(561,459,o),
(600,517,o),
(600,609,c)
);
}
);
width = 566;
}
);
unicode = 432;
}
{
color = 3;
glyphname = "Upsilon-latin";
kernLeft = U;
kernRight = U;
layers = (
{
anchors = (
{
name = bottom;
pos = (373,0);
},
{
name = top;
pos = (373,662);
}
);
background = {
shapes = (
{
ref = O;
}
);
};
layerId = UUID0;
shapes = (
{
closed = 1;
nodes = (
(661,590,l),
(661,662,l),
(430,662,l),
(430,562,l),
(550,537,o),
(616,442,o),
(616,308,cs),
(616,148,o),
(495,64,o),
(373,64,cs),
(252,64,o),
(130,148,o),
(130,308,cs),
(130,442,o),
(196,537,o),
(316,562,c),
(316,662,l),
(85,662,l),
(85,590,l),
(246,590,l),
(114,550,o),
(55,434,o),
(55,304,cs),
(55,150,o),
(152,-8,o),
(373,-8,cs),
(594,-8,o),
(691,150,o),
(691,304,cs),
(691,434,o),
(632,550,o),
(500,590,c)
);
}
);
width = 746;
},
{
associatedMasterId = UUID0;
layerId = "81F497B5-CE8F-4D13-B8DF-2EA23C42374F";
name = "Jun 8 20, 19:08";
shapes = (
{
closed = 1;
nodes = (
(500,590,l),
(661,590,l),
(661,662,l),
(430,662,l),
(430,492,l),
(550,472,o),
(616,393,o),
(616,285,cs),
(616,170,o),
(543,67,o),
(373,67,cs),
(203,67,o),
(130,170,o),
(130,285,cs),
(130,393,o),
(196,472,o),
(316,492,c),
(316,662,l),
(85,662,l),
(85,590,l),
(246,590,l),
(246,546,l),
(114,509,o),
(55,402,o),
(55,281,cs),
(55,137,o),
(152,-8,o),
(373,-8,cs),
(594,-8,o),
(691,137,o),
(691,281,cs),
(691,402,o),
(632,509,o),
(500,546,c)
);
}
);
width = 750;
}
);
unicode = 433;
}
{
glyphname = Vhook;
kernLeft = U;
kernRight = U;
layers = (
{
anchors = (
{
name = bottom;
pos = (291,0);
},
{
name = top;
pos = (291,662);
}
);
background = {
shapes = (
{
closed = 1;
nodes = (
(627,475,l),
(627,497,l),
(623,613,o),
(554,674,o),
(453,674,cs),
(435,674,o),
(417,673,o),
(398,669,c),
(398,601,l),
(414,604,o),
(428,605,o),
(444,605,cs),
(511,605,o),
(556,569,o),
(556,475,c)
);
}
);
};
layerId = UUID0;
shapes = (
{
closed = 1;
nodes = (
(398,601,l),
(411,603,o),
(427,605,o),
(441,605,cs),
(525,605,o),
(556,559,o),
(556,432,cs),
(556,277,o),
(472,65,o),
(289,65,cs),
(190,65,o),
(148,104,o),
(148,218,cs),
(148,662,l),
(73,662,l),
(73,201,ls),
(73,59,o),
(144,-8,o),
(285,-8,cs),
(482,-8,o),
(629,195,o),
(629,438,cs),
(629,599,o),
(570,674,o),
(460,674,cs),
(437,674,o),
(416,672,o),
(398,669,c)
);
}
);
width = 702;
},
{
associatedMasterId = UUID0;
background = {
shapes = (
{
closed = 1;
nodes = (
(627,475,l),
(627,497,l),
(623,613,o),
(554,674,o),
(453,674,cs),
(435,674,o),
(417,673,o),
(398,669,c),
(398,601,l),
(414,604,o),
(428,605,o),
(444,605,cs),
(511,605,o),
(556,569,o),
(556,475,c)
);
}
);
};
layerId = "60BEE49E-5F12-4E57-BA7A-E1CB6CA72CA3";
name = "May 12 20, 15:45";
shapes = (
{
closed = 1;
nodes = (
(73,59,o),
(144,-8,o),
(285,-8,cs),
(482,-8,o),
(629,195,o),
(629,438,cs),
(629,599,o),
(574,674,o),
(464,674,cs),
(432,674,o),
(400,669,o),
(381,664,c),
(384,612,l),
(401,617,o),
(421,619,o),
(441,619,cs),
(525,619,o),
(556,566,o),
(556,432,cs),
(556,277,o),
(472,65,o),
(289,65,cs),
(190,65,o),
(148,104,o),
(148,218,cs),
(148,662,l),
(73,662,l),
(73,201,ls)
);
}
);
width = 632;
}
);
metricLeft = U;
metricRight = U;
unicode = 434;
}
{
color = 11;
glyphname = Yhook;
kernLeft = Y;
kernRight = Khook;
layers = (
{
anchors = (
{
name = bottom;
pos = (319,0);
},
{
name = top;
pos = (319,662);
},
{
name = topleft;
pos = (24,662);
}
);
associatedMasterId = UUID0;
background = {
shapes = (
{
closed = 1;
nodes = (
(514,495,l),
(551,547,o),
(592,597,o),
(628,597,cs),
(671,597,o),
(673,569,o),
(682,535,c),
(739,557,l),
(729,631,o),
(692,670,o),
(631,670,cs),
(557,670,o),
(519,629,o),
(457,538,c)
);
},
{
closed = 1;
nodes = (
(457,538,l),
(318,340,l),
(94,662,l),
(3,662,l),
(281,262,l),
(281,0,l),
(356,0,l),
(356,262,l),
(514,495,l)
);
}
);
};
hints = (
{
place = (277, 75);
place = (277, 75);
type = Stem;
},
{
horizontal = 1;
place = (0, 21);
target = up;
type = BottomGhost;
},
{
horizontal = 1;
place = (662, -20);
target = down;
type = TopGhost;
}
);
layerId = "4630726A-989F-4C97-946F-C5F696881971";
name = "May 12 20, 15:33";
shapes = (
{
closed = 1;
nodes = (
(514,495,l),
(551,547,o),
(592,597,o),
(628,597,cs),
(671,597,o),
(673,569,o),
(682,535,c),
(739,557,l),
(729,631,o),
(692,670,o),
(631,670,cs),
(557,670,o),
(519,629,o),
(457,538,c)
);
},
{
closed = 1;
nodes = (
(457,538,l),
(318,340,l),
(94,662,l),
(3,662,l),
(281,262,l),
(281,0,l),
(356,0,l),
(356,262,l),
(514,495,l)
);
}
);
width = 742;
},
{
anchors = (
{
name = bottom;
pos = (319,0);
},
{
name = top;
pos = (319,662);
},
{
name = topleft;
pos = (24,662);
}
);
hints = (
{
place = (277, 75);
place = (277, 75);
type = Stem;
},
{
horizontal = 1;
place = (0, 21);
target = up;
type = BottomGhost;
},
{
horizontal = 1;
place = (662, -20);
target = down;
type = TopGhost;
}
);
layerId = UUID0;
shapes = (
{
closed = 1;
nodes = (
(557,670,o),
(519,629,o),
(457,538,cs),
(318,340,l),
(94,662,l),
(3,662,l),
(281,262,l),
(281,0,l),
(356,0,l),
(356,262,l),
(514,495,l),
(545,545,o),
(589,597,o),
(628,597,cs),
(671,597,o),
(677,567,o),
(682,527,c),
(742,541,l),
(742,635,o),
(692,670,o),
(631,670,cs)
);
}
);
width = 722;
}
);
unicode = 435;
}
{
glyphname = yhook;
kernLeft = y;
kernRight = yhook;
layers = (
{
anchors = (
{
name = bottom;
pos = (249,0);
},
{
name = top;
pos = (249,500);
}
);
hints = (
{
place = (4, 490);
place = (4, 490);
type = Stem;
},
{
horizontal = 1;
place = (-198, 21);
target = up;
type = BottomGhost;
},
{
horizontal = 1;
place = (500, -20);
target = down;
type = TopGhost;
}
);
layerId = UUID0;
shapes = (
{
closed = 1;
nodes = (
(490,670,o),
(453,597,o),
(411,498,cs),
(248,90,l),
(87,500,l),
(4,500,l),
(208,7,l),
(117,-198,l),
(198,-198,l),
(494,500,ls),
(515,549,o),
(539,596,o),
(583,596,cs),
(615,596,o),
(625,571,o),
(636,537,c),
(692,562,l),
(677,641,o),
(634,670,o),
(584,670,cs)
);
}
);
userData = {
LWTimeline = "H4sIAAAAAAAAA21Ry2rDMBD8FbFnpVixHpGOTRtaSBtI2uYQQhG2EpvacrCVhmL875Xi9GBT0GF3Zmd2WLVwqHVpGlC7ForLZ2MKX+44Jjja7zGsN/egJkQyDCftsn4uKarGpKBcfTYYbJVe9UBnMaKCouXz6yNgYJFALCZotVjM39cfV8i3TPIB5EUBuvZo87JavT15mBM2nuRTD4mBH4+5XyF6cejlFDE+/UvAhUCcjhQUcRENE/TQKAGV0XiSspBVDCBCEJWzW4J95092yVOXgaJSYEiq8lRZY11/OOtPDQp+vFAX+dGWngEVYXC1ts2hqkvPtgSj6PpuRQfB9tyY+kE7DaqF5fYtD06EyYgwQQm/kzEhMfbMPDPJ16nKg/OY7zB8m9pt+4QT4ufD/9LgX5ukqtPcHkEddNH4jy104+aZtsd/NnW/RL8gIzkCAAA=";
};
width = 652;
}
);
unicode = 436;
}
{
glyphname = Zstroke;
kernLeft = Z;
kernRight = Z;
layers = (
{
anchors = (
{
name = _center;
pos = (292.5,331);
}
);
layerId = UUID0;
shapes = (
{
closed = 1;
nodes = (
(504,299,l),
(504,364,l),
(81,364,l),
(81,299,l)
);
},
{
ref = Z;
}
);
width = 584;
}
);
unicode = 437;
}
{
glyphname = zstroke;
kernLeft = z;
kernRight = z;
layers = (
{
layerId = UUID0;
shapes = (
{
closed = 1;
nodes = (
(58,283,l),
(58,218,l),
(400,218,l),
(400,283,l)
);
},
{
ref = z;
}
);
width = 458;
}
);
unicode = 438;
}
{
color = 3;
glyphname = Ezh;
layers = (
{
anchors = (
{
name = bottom;
pos = (279,-198);
},
{
name = top;
pos = (279,662);
}
);
background = {
shapes = (
{
closed = 1;
nodes = (
(475,590,l),
(475,662,l),
(71,662,l),
(71,590,l),
(383,590,l),
(208,347,l),
(208,278,l),
(284,278,ls),
(405,278,o),
(464,192,o),
(464,63,cs),
(464,-71,o),
(395,-133,o),
(257,-133,cs),
(182,-133,o),
(116,-85,o),
(107,-23,c),
(31,-23,l),
(41,-126,o),
(138,-206,o),
(257,-206,cs),
(444,-206,o),
(539,-104,o),
(539,63,cs),
(539,221,o),
(459,338,o),
(297,346,c)
);
}
);
};
hints = (
{
place = (427, 75);
place = (427, 75);
type = Stem;
},
{
place = (405, 75);
place = (405, 75);
type = Stem;
},
{
horizontal = 1;
place = (-8, 73);
place = (-8, 73);
type = Stem;
},
{
horizontal = 1;
place = (314, 69);
place = (314, 69);
type = Stem;
},
{
horizontal = 1;
place = (597, 73);
place = (597, 73);
type = Stem;
}
);
layerId = UUID0;
shapes = (
{
closed = 1;
nodes = (
(261,259,l),
(379,260,o),
(463,178,o),
(463,63,cs),
(463,-52,o),
(383,-133,o),
(271,-133,cs),
(193,-133,o),
(130,-91,o),
(101,-25,c),
(21,-25,l),
(57,-133,o),
(152,-206,o),
(271,-206,cs),
(424,-206,o),
(538,-91,o),
(538,63,cs),
(538,216,o),
(420,332,o),
(261,332,c),
(208,259,l)
);
},
{
closed = 1;
nodes = (
(297,326,l),
(475,590,l),
(475,662,l),
(51,662,l),
(51,590,l),
(383,590,l),
(208,328,l),
(208,259,l)
);
}
);
width = 586;
},
{
associatedMasterId = UUID0;
hints = (
{
place = (427, 75);
place = (427, 75);
type = Stem;
},
{
place = (405, 75);
place = (405, 75);
type = Stem;
},
{
horizontal = 1;
place = (-8, 73);
place = (-8, 73);
type = Stem;
},
{
horizontal = 1;
place = (314, 69);
place = (314, 69);
type = Stem;
},
{
horizontal = 1;
place = (597, 73);
place = (597, 73);
type = Stem;
}
);
layerId = "513E6045-1914-4743-BA2E-B3FEFB0DD281";
name = "May 11 20, 13:06";
shapes = (
{
closed = 1;
nodes = (
(424,-206,o),
(509,-96,o),
(509,83,cs),
(509,262,o),
(432,363,o),
(275,363,cs),
(208,363,l),
(208,294,l),
(284,294,ls),
(385,294,o),
(434,225,o),
(434,83,cs),
(434,-65,o),
(375,-133,o),
(257,-133,cs),
(182,-133,o),
(116,-85,o),
(107,-23,c),
(31,-23,l),
(41,-126,o),
(138,-206,o),
(257,-206,cs)
);
},
{
closed = 1;
nodes = (
(208,294,l),
(244,294,l),
(475,590,l),
(475,662,l),
(71,662,l),
(71,590,l),
(439,590,l),
(402,614,l),
(208,363,l)
);
}
);
visible = 1;
width = 550;
},
{
anchors = (
{
name = bottom;
pos = (279,0);
},
{
name = top;
pos = (279,662);
}
);
associatedMasterId = UUID0;
hints = (
{
place = (427, 75);
place = (427, 75);
type = Stem;
},
{
place = (405, 75);
place = (405, 75);
type = Stem;
},
{
horizontal = 1;
place = (-8, 73);
place = (-8, 73);
type = Stem;
},
{
horizontal = 1;
place = (314, 69);
place = (314, 69);
type = Stem;
},
{
horizontal = 1;
place = (597, 73);
place = (597, 73);
type = Stem;
}
);
layerId = "1BD95694-959C-4D90-B331-6D02DFB9D88F";
name = "Jun 8 20, 18:52";
shapes = (
{
closed = 1;
nodes = (
(475,590,l),
(475,662,l),
(71,662,l),
(71,590,l),
(383,590,l),
(208,323,l),
(208,254,l),
(284,254,ls),
(405,254,o),
(464,192,o),
(464,63,cs),
(464,-71,o),
(395,-133,o),
(257,-133,cs),
(182,-133,o),
(116,-85,o),
(107,-23,c),
(31,-23,l),
(41,-126,o),
(138,-206,o),
(257,-206,cs),
(444,-206,o),
(539,-104,o),
(539,63,cs),
(539,221,o),
(459,314,o),
(297,322,c)
);
}
);
width = 587;
}
);
metricRight = three;
unicode = 439;
}
{
glyphname = clickdental;
layers = (
{
layerId = UUID0;
shapes = (
{
closed = 1;
nodes = (
(161,-118,l),
(161,690,l),
(86,690,l),
(86,-118,l)
);
}
);
width = 247;
}
);
unicode = 448;
}
{
glyphname = clicklateral;
layers = (
{
layerId = UUID0;
shapes = (
{
closed = 1;
nodes = (
(161,-118,l),
(161,690,l),
(86,690,l),
(86,-118,l)
);
},
{
closed = 1;
nodes = (
(312,-118,l),
(312,690,l),
(237,690,l),
(237,-118,l)
);
}
);
width = 398;
}
);
unicode = 449;
}
{
glyphname = clickalveolar;
layers = (
{
layerId = UUID0;
shapes = (
{
closed = 1;
nodes = (
(247,393,l),
(161,393,l),
(161,690,l),
(86,690,l),
(86,393,l),
(0,393,l),
(0,328,l),
(86,328,l),
(86,246,l),
(0,246,l),
(0,181,l),
(86,181,l),
(86,-118,l),
(161,-118,l),
(161,181,l),
(247,181,l),
(247,246,l),
(161,246,l),
(161,328,l),
(247,328,l)
);
}
);
width = 247;
}
);
unicode = 450;
}
{
glyphname = clickretroflex;
kernLeft = exclam;
kernRight = exclam;
layers = (
{
background = {
shapes = (
{
closed = 1;
nodes = (
(138,183,l),
(157,662,l),
(64,662,l),
(83,183,l)
);
},
{
closed = 1;
nodes = (
(159,0,l),
(159,102,l),
(62,102,l),
(62,0,l)
);
}
);
};
hints = (
{
place = (62,97);
type = Stem;
},
{
place = (73,74);
type = Stem;
},
{
horizontal = 1;
place = (0,102);
type = Stem;
},
{
horizontal = 1;
place = (662,-20);
target = down;
type = TopGhost;
}
);
layerId = UUID0;
shapes = (
{
closed = 1;
nodes = (
(145,65,l),
(157,690,l),
(64,690,l),
(76,65,l)
);
},
{
closed = 1;
nodes = (
(159,-118,l),
(159,-16,l),
(62,-16,l),
(62,-118,l)
);
}
);
width = 221;
}
);
unicode = 451;
}
{
glyphname = Gstroke;
kernLeft = O;
kernRight = G;
layers = (
{
layerId = UUID0;
shapes = (
{
closed = 1;
nodes = (
(361,217,l),
(361,152,l),
(709,152,l),
(709,217,l)
);
},
{
ref = G;
}
);
width = 723;
}
);
unicode = 484;
}
{
glyphname = gstroke;
kernLeft = o;
kernRight = a;
layers = (
{
layerId = UUID0;
shapes = (
{
closed = 1;
nodes = (
(344,-15,l),
(344,-80,l),
(591,-80,l),
(591,-15,l)
);
},
{
ref = g;
}
);
width = 595;
}
);
unicode = 485;
}
{
glyphname = Oogonek;
kernLeft = O;
kernRight = O;
layers = (
{
anchors = (
{
name = bottom;
pos = (375,0);
},
{
name = center;
pos = (375,331);
},
{
name = ogonek;
pos = (455,0);
},
{
name = top;
pos = (375,662);
},
{
name = topleft;
pos = (20,662);
},
{
name = topright;
pos = (534,662);
}
);
hints = (
{
place = (39, 75);
place = (39, 75);
type = Stem;
},
{
place = (636, 75);
place = (636, 75);
type = Stem;
},
{
horizontal = 1;
place = (-8, 73);
place = (-8, 73);
type = Stem;
},
{
horizontal = 1;
place = (597, 73);
place = (597, 73);
type = Stem;
},
{
place = (273, 77);
place = (273, 77);
type = Stem;
},
{
horizontal = 1;
place = (-197, 54);
place = (-197, 54);
type = Stem;
}
);
layerId = UUID0;
shapes = (
{
closed = 1;
nodes = (
(711,519,o),
(576,670,o),
(375,670,cs),
(174,670,o),
(39,519,o),
(39,331,cs),
(39,143,o),
(174,-8,o),
(375,-8,cs),
(376,-8,l),
(331,-30,o),
(273,-63,o),
(273,-125,cs),
(273,-180,o),
(321,-208,o),
(370,-208,cs),
(398,-208,o),
(426,-200,o),
(446,-184,c),
(446,-145,l),
(436,-152,o),
(423,-156,o),
(410,-156,cs),
(380,-156,o),
(350,-138,o),
(350,-106,cs),
(350,-56,o),
(418,-17,o),
(448,-1,c),
(608,31,o),
(711,167,o),
(711,331,cs)
);
},
{
closed = 1;
nodes = (
(214,65,o),
(114,182,o),
(114,331,cs),
(114,480,o),
(214,597,o),
(375,597,cs),
(536,597,o),
(636,480,o),
(636,331,cs),
(636,182,o),
(536,65,o),
(375,65,cs)
);
}
);
width = 750;
}
);
unicode = 490;
}
{
glyphname = oogonek;
kernLeft = o;
kernRight = o;
layers = (
{
anchors = (
{
name = bottom;
pos = (282,0);
},
{
name = center;
pos = (282,250);
},
{
name = ogonek;
pos = (368,0);
},
{
name = top;
pos = (282,500);
},
{
name = topright;
pos = (544,500);
}
);
hints = (
{
place = (34,75);
type = Stem;
},
{
place = (455,75);
type = Stem;
},
{
horizontal = 1;
place = (-8,68);
type = Stem;
},
{
horizontal = 1;
place = (440,68);
type = Stem;
}
);
layerId = UUID0;
shapes = (
{
closed = 1;
nodes = (
(471,43,o),
(530,138,o),
(530,250,cs),
(530,393,o),
(435,508,o),
(282,508,cs),
(129,508,o),
(34,393,o),
(34,250,cs),
(34,107,o),
(129,-8,o),
(282,-8,cs),
(285,-8,l),
(240,-30,o),
(186,-63,o),
(186,-123,cs),
(186,-178,o),
(234,-206,o),
(283,-206,cs),
(311,-206,o),
(339,-198,o),
(359,-182,c),
(359,-143,l),
(349,-150,o),
(336,-154,o),
(323,-154,cs),
(293,-154,o),
(263,-136,o),
(263,-104,cs),
(263,-54,o),
(336,-11,o),
(372,7,c)
);
},
{
closed = 1;
nodes = (
(109,353,o),
(171,440,o),
(282,440,cs),
(393,440,o),
(455,353,o),
(455,250,cs),
(455,147,o),
(393,60,o),
(282,60,cs),
(171,60,o),
(109,147,o),
(109,250,cs)
);
}
);
width = 564;
},
{
associatedMasterId = UUID0;
layerId = "C6474976-C88A-4D45-BE47-DD0F24A3A0EB";
name = "Jun 9 20, 15:08";
shapes = (
{
ref = o;
},
{
pos = (186,-2);
ref = ogonekcomb;
}
);
visible = 1;
width = 564;
}
);
unicode = 491;
}
{
glyphname = OU;
kernLeft = O;
kernRight = O;
layers = (
{
anchors = (
{
name = bottom;
pos = (375,0);
},
{
name = center;
pos = (375,187);
},
{
name = ogonek;
pos = (454,10);
},
{
name = top;
pos = (375,662);
},
{
name = topleft;
pos = (20,-14);
},
{
name = topright;
pos = (709,662);
}
);
hints = (
{
place = (73,75);
type = Stem;
},
{
place = (561,75);
type = Stem;
},
{
horizontal = 1;
place = (-8,73);
type = Stem;
},
{
horizontal = 1;
place = (662,-20);
target = down;
type = TopGhost;
},
{
place = (19,75);
type = Stem;
},
{
place = (616,75);
type = Stem;
},
{
horizontal = 1;
place = (-684,73);
type = Stem;
},
{
horizontal = 1;
place = (-79,73);
type = Stem;
}
);
layerId = UUID0;
shapes = (
{
closed = 1;
nodes = (
(621,383,o),
(656,427,o),
(656,481,cs),
(656,662,l),
(581,662,l),
(581,481,ls),
(581,413,o),
(480,380,o),
(375,380,cs),
(270,380,o),
(168,413,o),
(168,481,cs),
(168,662,l),
(93,662,l),
(93,481,ls),
(93,427,o),
(129,383,o),
(188,354,c),
(90,321,o),
(39,259,o),
(39,187,cs),
(39,82,o),
(154,-8,o),
(375,-8,cs),
(596,-8,o),
(711,82,o),
(711,187,cs),
(711,259,o),
(660,321,o),
(561,354,c)
);
},
{
closed = 1;
nodes = (
(214,62,o),
(114,119,o),
(114,187,cs),
(114,259,o),
(214,317,o),
(375,317,cs),
(536,317,o),
(636,259,o),
(636,187,cs),
(636,119,o),
(536,62,o),
(375,62,cs)
);
}
);
width = 750;
}
);
metricLeft = O;
metricRight = O;
unicode = 546;
}
{
glyphname = ou;
kernLeft = o;
kernRight = o;
layers = (
{
anchors = (
{
name = bottom;
pos = (282,0);
},
{
name = center;
pos = (282,183);
},
{
name = ogonek;
pos = (1075,0);
},
{
name = top;
pos = (282,700);
},
{
name = topright;
pos = (1222,493);
}
);
hints = (
{
place = (624,75);
type = Stem;
},
{
place = (990,75);
type = Stem;
},
{
horizontal = 1;
place = (0,21);
target = up;
type = BottomGhost;
},
{
horizontal = 1;
place = (500,-20);
target = down;
type = TopGhost;
},
{
horizontal = 1;
place = (-8,68);
type = Stem;
},
{
place = (34,75);
type = Stem;
},
{
place = (455,75);
type = Stem;
},
{
horizontal = 1;
place = (-8,68);
type = Stem;
},
{
horizontal = 1;
place = (440,68);
type = Stem;
}
);
layerId = UUID0;
shapes = (
{
closed = 1;
nodes = (
(457,378,o),
(492,422,o),
(492,484,cs),
(492,700,l),
(417,700,l),
(417,486,ls),
(417,423,o),
(362,375,o),
(282,375,cs),
(202,375,o),
(147,423,o),
(147,486,cs),
(147,700,l),
(72,700,l),
(72,484,ls),
(72,422,o),
(107,378,o),
(158,352,c),
(79,320,o),
(34,256,o),
(34,183,cs),
(34,77,o),
(129,-8,o),
(282,-8,cs),
(432,-8,o),
(530,77,o),
(530,183,cs),
(530,259,o),
(485,321,o),
(407,352,c)
);
},
{
closed = 1;
nodes = (
(171,62,o),
(109,118,o),
(109,183,cs),
(109,249,o),
(171,304,o),
(282,304,cs),
(393,304,o),
(455,249,o),
(455,183,cs),
(455,118,o),
(393,62,o),
(282,62,cs)
);
}
);
width = 564;
}
);
metricLeft = o;
metricRight = o;
unicode = 547;
}
{
glyphname = Ecedilla;
kernLeft = I;
kernRight = E;
layers = (
{
anchors = (
{
name = bottom;
pos = (344,0);
},
{
name = ogonek;
pos = (578,2);
},
{
name = top;
pos = (334,662);
},
{
name = topleft;
pos = (20,662);
}
);
hints = (
{
place = (81, 75);
place = (81, 75);
type = Stem;
},
{
horizontal = 1;
place = (0, 72);
place = (0, 72);
type = Stem;
},
{
horizontal = 1;
place = (295, 73);
place = (295, 73);
type = Stem;
},
{
horizontal = 1;
place = (590, 72);
place = (590, 72);
type = Stem;
},
{
place = (376, 73);
place = (376, 73);
type = Stem;
},
{
horizontal = 1;
place = (-211, 44);
place = (-211, 44);
type = Stem;
},
{
horizontal = 1;
place = (-98, 45);
place = (-98, 45);
type = Stem;
}
);
layerId = UUID0;
shapes = (
{
closed = 1;
nodes = (
(568,662,l),
(81,662,l),
(81,0,l),
(319,0,l),
(267,-82,l),
(288,-99,l),
(298,-96,o),
(311,-94,o),
(323,-94,cs),
(351,-94,o),
(376,-107,o),
(376,-127,cs),
(376,-154,o),
(351,-163,o),
(321,-163,cs),
(285,-163,o),
(257,-148,o),
(236,-133,c),
(217,-166,l),
(242,-187,o),
(284,-207,o),
(335,-207,cs),
(396,-207,o),
(449,-182,o),
(449,-126,cs),
(449,-78,o),
(407,-49,o),
(357,-49,cs),
(350,-49,o),
(341,-50,o),
(335,-51,c),
(364,0,l),
(568,0,l),
(568,72,l),
(156,72,l),
(156,295,l),
(524,295,l),
(524,368,l),
(156,368,l),
(156,590,l),
(568,590,l)
);
}
);
width = 608;
}
);
unicode = 552;
}
{
glyphname = ecedilla;
kernLeft = o;
kernRight = e;
layers = (
{
anchors = (
{
name = bottom;
pos = (279,0);
},
{
name = ogonek;
pos = (399,0);
},
{
name = top;
pos = (279,500);
}
);
hints = (
{
place = (34, 77);
place = (34, 77);
type = Stem;
},
{
horizontal = 1;
place = (-8, 68);
place = (-8, 68);
type = Stem;
},
{
horizontal = 1;
place = (220, 70);
place = (220, 70);
type = Stem;
},
{
horizontal = 1;
place = (440, 68);
place = (440, 68);
type = Stem;
},
{
place = (323, 73);
place = (323, 73);
type = Stem;
},
{
horizontal = 1;
place = (-210, 44);
place = (-210, 44);
type = Stem;
},
{
horizontal = 1;
place = (-97, 45);
place = (-97, 45);
type = Stem;
}
);
layerId = UUID0;
shapes = (
{
closed = 1;
nodes = (
(530,393,o),
(435,508,o),
(282,508,cs),
(129,508,o),
(34,393,o),
(34,250,cs),
(34,115,o),
(123,5,o),
(261,-7,c),
(214,-81,l),
(235,-98,l),
(245,-95,o),
(258,-93,o),
(270,-93,cs),
(298,-93,o),
(323,-106,o),
(323,-126,cs),
(323,-153,o),
(298,-162,o),
(268,-162,cs),
(232,-162,o),
(204,-147,o),
(183,-132,c),
(164,-165,l),
(189,-186,o),
(231,-206,o),
(282,-206,cs),
(343,-206,o),
(396,-181,o),
(396,-125,cs),
(396,-77,o),
(354,-48,o),
(304,-48,cs),
(297,-48,o),
(288,-49,o),
(282,-50,c),
(306,-7,l),
(414,-1,o),
(482,59,o),
(515,144,c),
(433,144,l),
(406,94,o),
(358,60,o),
(288,60,cs),
(187,60,o),
(122,131,o),
(111,220,c),
(530,220,l),
(530,250,ls)
);
},
{
closed = 1;
nodes = (
(126,375,o),
(186,440,o),
(282,440,cs),
(378,440,o),
(438,375,o),
(452,290,c),
(112,290,l)
);
}
);
width = 557;
}
);
unicode = 553;
}
{
glyphname = jdotless;
kernLeft = i;
kernRight = i;
layers = (
{
anchors = (
{
name = bottom;
pos = (103,-198);
},
{
name = top;
pos = (103,500);
}
);
hints = (
{
place = (65,75);
type = Stem;
},
{
place = (62,81);
type = Stem;
},
{
horizontal = 1;
place = (-198,21);
target = up;
type = BottomGhost;
},
{
horizontal = 1;
place = (500,-20);
target = down;
type = TopGhost;
},
{
horizontal = 1;
place = (584,98);
type = Stem;
}
);
layerId = UUID0;
shapes = (
{
closed = 1;
nodes = (
(140,-198,l),
(140,500,l),
(65,500,l),
(65,-198,l)
);
}
);
width = 205;
}
);
unicode = 567;
}
{
glyphname = Astroke;
kernLeft = A;
kernRight = A;
layers = (
{
anchors = (
{
name = _bottom;
pos = (329,0);
}
);
background = {
shapes = (
{
closed = 1;
nodes = (
(307,-32,l),
(456,680,l),
(386,680,l),
(237,-32,l)
);
}
);
};
layerId = UUID0;
shapes = (
{
closed = 1;
nodes = (
(214,-40,l),
(529,700,l),
(459,700,l),
(144,-40,l)
);
},
{
closed = 1;
nodes = (
(196,-40,l),
(122,-40,l)
);
},
{
ref = A;
}
);
width = 662;
},
{
associatedMasterId = UUID0;
background = {
shapes = (
{
closed = 1;
nodes = (
(307,-32,l),
(456,680,l),
(386,680,l),
(237,-32,l)
);
}
);
};
layerId = "BFA79F0C-7DB8-4A1C-8458-7AF00EDC0F3A";
name = "May 28 20, 14:34";
shapes = (
{
closed = 1;
nodes = (
(284,-112,l),
(468,760,l),
(398,760,l),
(214,-112,l)
);
},
{
ref = A;
}
);
width = 662;
}
);
unicode = 570;
}
{
glyphname = Cstroke;
kernLeft = O;
kernRight = C;
layers = (
{
anchors = (
{
name = _bottom;
pos = (345,0);
}
);
layerId = UUID0;
shapes = (
{
closed = 1;
nodes = (
(230,-40,l),
(545,700,l),
(475,700,l),
(160,-40,l)
);
},
{
ref = C;
}
);
width = 690;
},
{
anchors = (
{
name = _bottom;
pos = (331,0);
}
);
associatedMasterId = UUID0;
layerId = "9441E252-5FF3-4E04-A78C-10E7418A71E5";
name = "May 28 20, 14:39";
shapes = (
{
closed = 1;
nodes = (
(294,-112,l),
(478,760,l),
(408,760,l),
(224,-112,l)
);
},
{
closed = 1;
nodes = (
(201,-75,l),
(542,725,l),
(472,725,l),
(131,-75,l)
);
},
{
ref = C;
}
);
width = 690;
}
);
unicode = 571;
}
{
glyphname = cstroke;
kernLeft = o;
kernRight = c;
layers = (
{
anchors = (
{
name = _bottom;
pos = (302,0);
}
);
layerId = UUID0;
shapes = (
{
closed = 1;
nodes = (
(389,575,l),
(113,-75,l),
(183,-75,l),
(459,575,l)
);
},
{
ref = c;
}
);
width = 544;
}
);
unicode = 572;
}
{
glyphname = Lbar;
kernLeft = I;
kernRight = L;
layers = (
{
layerId = UUID0;
shapes = (
{
closed = 1;
nodes = (
(7,363,l),
(7,298,l),
(355,298,l),
(355,363,l)
);
},
{
ref = L;
}
);
width = 533;
}
);
unicode = 573;
}
{
glyphname = Tdiagonalstroke;
kernLeft = T;
kernRight = T;
layers = (
{
anchors = (
{
name = _bottom;
pos = (309,0);
}
);
layerId = UUID0;
shapes = (
{
closed = 1;
nodes = (
(194,-40,l),
(509,700,l),
(439,700,l),
(124,-40,l)
);
},
{
ref = T;
}
);
width = 565;
},
{
associatedMasterId = UUID0;
layerId = "CD943743-3850-40F5-92F6-679F02A710A3";
name = "May 28 20, 14:49";
shapes = (
{
closed = 1;
nodes = (
(171,-112,l),
(555,760,l),
(485,760,l),
(101,-112,l)
);
},
{
ref = T;
}
);
width = 565;
}
);
unicode = 574;
}
{
color = 3;
glyphname = Glottalstop;
kernLeft = question;
kernRight = question;
layers = (
{
anchors = (
{
name = bottom;
pos = (305,0);
},
{
name = top;
pos = (305,660);
}
);
hints = (
{
place = (227,73);
type = Stem;
},
{
place = (394,71);
type = Stem;
},
{
place = (215,97);
type = Stem;
},
{
horizontal = 1;
place = (0,102);
type = Stem;
},
{
horizontal = 1;
place = (601,69);
type = Stem;
}
);
layerId = UUID0;
shapes = (
{
closed = 1;
nodes = (
(145,670,o),
(47,576,o),
(40,466,c),
(115,466,l),
(123,536,o),
(184,601,o),
(307,601,cs),
(436,601,o),
(471,539,o),
(471,489,cs),
(471,358,o),
(268,337,o),
(268,163,cs),
(268,0,l),
(341,0,l),
(341,163,ls),
(341,313,o),
(546,323,o),
(546,489,cs),
(546,579,o),
(473,670,o),
(301,670,cs)
);
}
);
width = 591;
},
{
associatedMasterId = UUID0;
hints = (
{
place = (227,73);
type = Stem;
},
{
place = (394,71);
type = Stem;
},
{
place = (215,97);
type = Stem;
},
{
horizontal = 1;
place = (0,102);
type = Stem;
},
{
horizontal = 1;
place = (601,69);
type = Stem;
}
);
layerId = "884F3B7C-583F-4A33-81F3-EFBD2BB2108A";
name = "Jun 8 20, 19:13";
shapes = (
{
closed = 1;
nodes = (
(128,670,o),
(45,576,o),
(39,466,c),
(110,466,l),
(116,536,o),
(168,601,o),
(266,601,cs),
(364,601,o),
(394,539,o),
(394,489,cs),
(394,374,o),
(227,356,o),
(227,203,cs),
(227,0,l),
(300,0,l),
(300,203,ls),
(300,335,o),
(465,343,o),
(465,489,cs),
(465,579,o),
(404,670,o),
(260,670,cs)
);
}
);
width = 510;
}
);
unicode = 577;
}
{
glyphname = glottalstopsmall;
kernLeft = question;
kernRight = question;
layers = (
{
anchors = (
{
name = bottom;
pos = (264,0);
},
{
name = top;
pos = (264,500);
}
);
layerId = UUID0;
shapes = (
{
closed = 1;
nodes = (
(128,508,o),
(45,414,o),
(39,304,c),
(110,304,l),
(116,374,o),
(168,439,o),
(266,439,cs),
(364,439,o),
(394,377,o),
(394,327,cs),
(394,212,o),
(227,194,o),
(227,41,cs),
(227,0,l),
(300,0,l),
(300,41,ls),
(300,173,o),
(465,181,o),
(465,327,cs),
(465,417,o),
(404,508,o),
(260,508,cs)
);
}
);
width = 510;
}
);
unicode = 578;
}
{
glyphname = Bstroke;
kernLeft = I;
kernRight = B;
layers = (
{
layerId = UUID0;
shapes = (
{
closed = 1;
nodes = (
(16,217,l),
(16,152,l),
(344,152,l),
(344,217,l)
);
},
{
ref = B;
}
);
width = 662;
}
);
unicode = 579;
}
{
glyphname = Ubar;
kernLeft = U;
kernRight = U;
layers = (
{
layerId = UUID0;
shapes = (
{
closed = 1;
nodes = (
(7,363,l),
(7,298,l),
(702,298,l),
(702,363,l)
);
},
{
ref = U;
}
);
width = 709;
}
);
unicode = 580;
}
{
glyphname = Estroke;
kernLeft = I;
kernRight = E;
layers = (
{
layerId = UUID0;
shapes = (
{
closed = 1;
nodes = (
(214,-40,l),
(529,700,l),
(459,700,l),
(144,-40,l)
);
},
{
ref = E;
}
);
width = 608;
},
{
associatedMasterId = UUID0;
layerId = "505F1115-475E-4AB0-8216-FFE9EB816770";
name = "May 28 20, 14:41";
shapes = (
{
closed = 1;
nodes = (
(284,-112,l),
(468,760,l),
(398,760,l),
(214,-112,l)
);
},
{
ref = E;
}
);
width = 608;
}
);
unicode = 582;
}
{
glyphname = estroke;
kernLeft = o;
kernRight = e;
layers = (
{
layerId = UUID0;
shapes = (
{
closed = 1;
nodes = (
(389,575,l),
(113,-75,l),
(183,-75,l),
(459,575,l)
);
},
{
ref = e;
}
);
width = 557;
},
{
associatedMasterId = UUID0;
layerId = "499EB03F-5E04-45D7-8EAD-ECB6CBE98C95";
name = "May 28 20, 15:18";
shapes = (
{
closed = 1;
nodes = (
(244,-112,l),
(397,621,l),
(327,621,l),
(174,-112,l)
);
},
{
ref = e;
}
);
width = 557;
}
);
unicode = 583;
}
{
glyphname = Jstroke;
kernLeft = J;
kernRight = J;
layers = (
{
anchors = (
{
name = bottom;
pos = (415,0);
},
{
name = ogonek;
pos = (462,0);
},
{
name = top;
pos = (415,662);
},
{
name = topleft;
pos = (316,662);
}
);
background = {
shapes = (
{
closed = 1;
nodes = (
(271,363,l),
(271,298,l),
(558,298,l),
(558,363,l)
);
}
);
};
layerId = UUID0;
shapes = (
{
closed = 1;
nodes = (
(210,364,l),
(210,299,l),
(558,299,l),
(558,364,l)
);
},
{
ref = J;
}
);
width = 527;
}
);
unicode = 584;
}
{
glyphname = jstroke;
kernLeft = j;
kernRight = j;
layers = (
{
layerId = UUID0;
shapes = (
{
closed = 1;
nodes = (
(205,218,l),
(205,283,l),
(0,283,l),
(0,218,l)
);
},
{
ref = j;
}
);
width = 205;
}
);
unicode = 585;
}
{
glyphname = Qhooktail;
kernLeft = O;
kernRight = I;
layers = (
{
anchors = (
{
name = bottom;
pos = (335,0);
},
{
name = center;
pos = (335,331);
},
{
name = ogonek;
pos = (415,0);
},
{
name = top;
pos = (335,662);
},
{
name = topleft;
pos = (-20,662);
},
{
name = topright;
pos = (494,662);
}
);
layerId = UUID0;
shapes = (
{
closed = 1;
nodes = (
(671,662,l),
(596,662,l),
(596,557,l),
(540,626,o),
(457,670,o),
(355,670,cs),
(166,670,o),
(39,519,o),
(39,331,cs),
(39,143,o),
(166,-8,o),
(355,-8,cs),
(457,-8,o),
(541,35,o),
(596,104,c),
(596,-21,ls),
(596,-141,o),
(672,-206,o),
(773,-206,c),
(773,-137,l),
(704,-137,o),
(671,-93,o),
(671,8,cs)
);
},
{
closed = 1;
nodes = (
(206,65,o),
(114,182,o),
(114,331,cs),
(114,480,o),
(206,597,o),
(355,597,cs),
(504,597,o),
(596,480,o),
(596,331,cs),
(596,181,o),
(505,65,o),
(355,65,cs)
);
}
);
width = 752;
},
{
anchors = (
{
name = bottom;
pos = (375,0);
},
{
name = center;
pos = (375,331);
},
{
name = ogonek;
pos = (455,0);
},
{
name = top;
pos = (375,662);
},
{
name = topleft;
pos = (20,662);
},
{
name = topright;
pos = (534,662);
}
);
associatedMasterId = UUID0;
layerId = "A1D7B186-2C23-433A-830B-DCF6A59BDC69";
name = "May 18 20, 19:40";
shapes = (
{
closed = 1;
nodes = (
(711,-1,l),
(711,662,l),
(636,662,l),
(636,-1,l)
);
},
{
closed = 1;
nodes = (
(636,8,l),
(636,-21,ls),
(636,-135,o),
(712,-198,o),
(813,-198,c),
(813,-129,l),
(744,-129,o),
(711,-86,o),
(711,8,c)
);
},
{
ref = O;
}
);
width = 792;
}
);
metricLeft = O;
unicode = 586;
}
{
glyphname = qhooktail;
kernLeft = o;
kernRight = a;
layers = (
{
anchors = (
{
name = _bottom;
pos = (215,-79);
}
);
layerId = UUID0;
shapes = (
{
closed = 1;
nodes = (
(610,-206,o),
(619,-205,o),
(630,-204,c),
(630,-136,l),
(621,-138,o),
(614,-139,o),
(606,-139,cs),
(534,-139,o),
(530,-95,o),
(530,-62,cs),
(530,119,l),
(455,119,l),
(455,-62,ls),
(455,-127,o),
(475,-206,o),
(600,-206,cs)
);
},
{
ref = a;
}
);
width = 595;
}
);
unicode = 587;
}
{
glyphname = Rstroke;
kernLeft = I;
kernRight = R;
layers = (
{
layerId = UUID0;
shapes = (
{
closed = 1;
nodes = (
(-25,325,l),
(-25,254,l),
(262,254,l),
(262,325,l)
);
},
{
ref = R;
}
);
width = 669;
}
);
unicode = 588;
}
{
glyphname = rstroke;
kernLeft = n;
kernRight = r;
layers = (
{
anchors = (
{
name = _center;
pos = (271.5,306);
}
);
layerId = UUID0;
shapes = (
{
closed = 1;
nodes = (
(245,218,l),
(245,283,l),
(0,283,l),
(0,218,l)
);
},
{
ref = r;
}
);
width = 345;
}
);
unicode = 589;
}
{
glyphname = Ystroke;
kernLeft = Y;
kernRight = Y;
layers = (
{
layerId = UUID0;
shapes = (
{
closed = 1;
nodes = (
(0,542,l),
(0,477,l),
(636,477,l),
(636,542,l)
);
},
{
ref = Y;
}
);
width = 636;
}
);
unicode = 590;
}
{
glyphname = ystroke;
kernLeft = y;
kernRight = y;
layers = (
{
layerId = UUID0;
shapes = (
{
closed = 1;
nodes = (
(13,283,l),
(13,218,l),
(494,218,l),
(494,283,l)
);
},
{
ref = y;
}
);
width = 497;
}
);
unicode = 591;
}
{
color = 3;
glyphname = "alpha-latin";
kernLeft = o;
kernRight = a;
layers = (
{
anchors = (
{
name = bottom;
pos = (298,0);
},
{
name = ogonek;
pos = (536,10);
},
{
name = top;
pos = (298,500);
}
);
background = {
shapes = (
{
closed = 0;
nodes = (
(276,-8,ls),
(359,-8,o),
(418,26,o),
(455,80,c)
);
}
);
};
hints = (
{
place = (34,75);
type = Stem;
},
{
place = (455,75);
type = Stem;
},
{
horizontal = 1;
place = (-8,68);
type = Stem;
},
{
horizontal = 1;
place = (440,68);
type = Stem;
},
{
horizontal = 1;
place = (0,21);
target = up;
type = BottomGhost;
},
{
horizontal = 1;
place = (500,-20);
target = down;
type = TopGhost;
}
);
layerId = UUID0;
shapes = (
{
closed = 1;
nodes = (
(530,500,l),
(455,500,l),
(455,419,l),
(418,473,o),
(359,508,o),
(276,508,cs),
(130,508,o),
(34,393,o),
(34,250,cs),
(34,107,o),
(130,-8,o),
(276,-8,cs),
(354,-8,o),
(431,28,o),
(468,90,c),
(495,27,o),
(556,-8,o),
(630,-8,c),
(630,61,l),
(563,60,o),
(530,103,o),
(530,198,cs)
);
},
{
closed = 1;
nodes = (
(175,60,o),
(109,147,o),
(109,250,cs),
(109,353,o),
(175,440,o),
(286,440,cs),
(397,440,o),
(459,353,o),
(459,250,cs),
(459,147,o),
(397,60,o),
(286,60,cs)
);
}
);
width = 610;
}
);
metricLeft = o;
unicode = 593;
}
{
glyphname = bhook;
kernLeft = h;
kernRight = o;
layers = (
{
anchors = (
{
name = bottom;
pos = (297,0);
},
{
name = top;
pos = (101,700);
}
);
hints = (
{
place = (65, 75);
place = (65, 75);
type = Stem;
},
{
place = (486, 75);
place = (486, 75);
type = Stem;
},
{
horizontal = 1;
place = (-8, 68);
place = (-8, 68);
type = Stem;
},
{
horizontal = 1;
place = (440, 68);
place = (440, 68);
type = Stem;
},
{
horizontal = 1;
place = (0, 21);
target = up;
type = BottomGhost;
}
);
layerId = UUID0;
shapes = (
{
closed = 1;
nodes = (
(236,508,o),
(177,473,o),
(140,419,c),
(140,563,ls),
(140,596,o),
(144,640,o),
(216,640,cs),
(224,640,o),
(231,639,o),
(240,637,c),
(240,705,l),
(229,706,o),
(220,707,o),
(210,707,cs),
(85,707,o),
(65,628,o),
(65,563,cs),
(65,0,l),
(140,0,l),
(140,80,l),
(177,26,o),
(236,-8,o),
(319,-8,cs),
(465,-8,o),
(561,107,o),
(561,250,cs),
(561,393,o),
(465,508,o),
(319,508,cs)
);
},
{
closed = 1;
nodes = (
(198,60,o),
(136,147,o),
(136,250,cs),
(136,353,o),
(198,440,o),
(309,440,cs),
(420,440,o),
(486,353,o),
(486,250,cs),
(486,147,o),
(420,60,o),
(309,60,cs)
);
}
);
width = 595;
}
);
metricRight = o;
unicode = 595;
}
{
glyphname = dtail;
kernLeft = o;
kernRight = l;
layers = (
{
anchors = (
{
name = _bottom;
pos = (215,-79);
}
);
background = {
shapes = (
{
closed = 1;
nodes = (
(455,0,l),
(455,-29,ls),
(455,-145,o),
(530,-206,o),
(632,-206,cs),
(649,-206,o),
(668,-205,o),
(687,-201,c),
(687,-133,l),
(671,-136,o),
(656,-137,o),
(641,-137,cs),
(573,-137,o),
(530,-94,o),
(530,0,c)
);
}
);
};
layerId = UUID0;
shapes = (
{
closed = 1;
nodes = (
(610,-206,o),
(619,-205,o),
(630,-204,c),
(630,-136,l),
(621,-138,o),
(614,-139,o),
(606,-139,cs),
(535,-139,o),
(530,-95,o),
(530,-62,cs),
(530,119,l),
(455,119,l),
(455,-62,ls),
(455,-127,o),
(475,-206,o),
(600,-206,cs)
);
},
{
ref = d;
}
);
width = 595;
}
);
unicode = 598;
}
{
glyphname = dhook;
kernLeft = o;
kernRight = l;
layers = (
{
anchors = (
{
name = bottom;
pos = (298,0);
},
{
name = center;
pos = (298,250);
},
{
name = top;
pos = (298,700);
},
{
name = topright;
pos = (575,500);
}
);
hints = (
{
place = (34,75);
type = Stem;
},
{
place = (455,75);
type = Stem;
},
{
horizontal = 1;
place = (-8,68);
type = Stem;
},
{
horizontal = 1;
place = (440,68);
type = Stem;
},
{
horizontal = 1;
place = (0,21);
target = up;
type = BottomGhost;
}
);
layerId = UUID0;
shapes = (
{
closed = 1;
nodes = (
(475,708,o),
(455,629,o),
(455,564,cs),
(455,419,l),
(418,473,o),
(359,508,o),
(276,508,cs),
(130,508,o),
(34,393,o),
(34,250,cs),
(34,107,o),
(130,-8,o),
(276,-8,cs),
(359,-8,o),
(418,26,o),
(455,80,c),
(455,0,l),
(530,0,l),
(530,564,ls),
(530,597,o),
(534,641,o),
(606,641,cs),
(614,641,o),
(621,640,o),
(630,638,c),
(630,706,l),
(619,707,o),
(610,708,o),
(600,708,cs)
);
},
{
closed = 1;
nodes = (
(175,60,o),
(109,147,o),
(109,250,cs),
(109,353,o),
(175,440,o),
(286,440,cs),
(397,440,o),
(459,353,o),
(459,250,cs),
(459,147,o),
(397,60,o),
(286,60,cs)
);
}
);
width = 600;
}
);
unicode = 599;
}
{
glyphname = eopen;
layers = (
{
anchors = (
{
name = bottom;
pos = (223,0);
},
{
name = ogonek;
pos = (293,0);
},
{
name = top;
pos = (226,500);
}
);
layerId = UUID0;
shapes = (
{
closed = 1;
nodes = (
(333,-8,o),
(417,60,o),
(418,147,c),
(344,147,l),
(343,102,o),
(292,60,o),
(233,60,cs),
(162,60,o),
(115,100,o),
(115,149,cs),
(115,191,o),
(163,227,o),
(227,227,cs),
(293,227,l),
(293,291,l),
(234,291,ls),
(176,291,o),
(132,326,o),
(132,366,cs),
(132,413,o),
(179,440,o),
(229,440,cs),
(278,440,o),
(329,412,o),
(333,365,c),
(406,365,l),
(401,461,o),
(314,508,o),
(227,508,cs),
(141,508,o),
(56,461,o),
(56,368,cs),
(56,328,o),
(84,284,o),
(118,262,c),
(70,240,o),
(40,198,o),
(40,150,cs),
(40,60,o),
(122,-8,o),
(233,-8,cs)
);
}
);
width = 446;
}
);
metricRight = c;
unicode = 603;
}
{
glyphname = ghook;
kernLeft = o;
kernRight = a;
layers = (
{
anchors = (
{
name = _top;
pos = (215,581);
}
);
layerId = UUID0;
shapes = (
{
closed = 1;
nodes = (
(475,708,o),
(455,629,o),
(455,564,cs),
(455,383,l),
(530,383,l),
(530,564,ls),
(530,597,o),
(534,641,o),
(606,641,cs),
(614,641,o),
(621,640,o),
(630,638,c),
(630,706,l),
(619,707,o),
(610,708,o),
(600,708,cs)
);
},
{
ref = g;
}
);
width = 600;
}
);
unicode = 608;
}
{
glyphname = Gsmall;
layers = (
{
anchors = (
{
name = bottom;
pos = (273,0);
},
{
name = top;
pos = (273,500);
}
);
background = {
shapes = (
{
ref = o;
}
);
};
layerId = UUID0;
shapes = (
{
closed = 1;
nodes = (
(273,208,l),
(426,208,l),
(426,122,o),
(363,60,o),
(275,60,cs),
(181,60,o),
(109,136,o),
(109,250,cs),
(109,363,o),
(181,441,o),
(277,441,cs),
(345,441,o),
(391,409,o),
(418,355,c),
(499,355,l),
(464,449,o),
(381,508,o),
(273,508,c),
(138,508,o),
(34,399,o),
(34,250,cs),
(34,99,o),
(135,-8,o),
(271,-8,cs),
(333,-8,o),
(389,17,o),
(428,61,c),
(428,0,l),
(503,0,l),
(503,273,l),
(273,273,l)
);
}
);
width = 568;
}
);
metricLeft = o;
metricRight = g;
unicode = 610;
}
{
color = 3;
glyphname = "gamma-latin";
kernLeft = v;
kernRight = v;
layers = (
{
anchors = (
{
name = bottom;
pos = (266,-198);
},
{
name = top;
pos = (266,500);
}
);
layerId = UUID0;
shapes = (
{
closed = 1;
nodes = (
(443,500,l),
(194,73,o),
(139,-7,o),
(139,-69,cs),
(139,-152,o),
(189,-203,o),
(266,-203,c),
(266,-130,l),
(228,-130,o),
(212,-101,o),
(212,-64,cs),
(212,-21,o),
(245,17,o),
(527,500,c)
);
},
{
closed = 1;
nodes = (
(287,17,o),
(320,-21,o),
(320,-64,cs),
(320,-101,o),
(304,-130,o),
(266,-130,c),
(266,-203,l),
(343,-203,o),
(393,-152,o),
(393,-69,cs),
(393,-7,o),
(338,73,o),
(89,500,c),
(5,500,l)
);
}
);
width = 532;
},
{
associatedMasterId = UUID0;
layerId = "8A676AAE-5178-49EC-9311-90AA3B0AF39B";
name = "May 27 20, 09:33";
shapes = (
{
closed = 1;
nodes = (
(265,-2,o),
(296,-51,o),
(296,-95,cs),
(296,-124,o),
(282,-142,o),
(257,-142,c),
(257,-203,l),
(324,-203,o),
(357,-149,o),
(357,-96,cs),
(357,-33,o),
(307,51,o),
(75,500,c),
(5,500,l)
);
},
{
closed = 1;
nodes = (
(439,500,l),
(207,51,o),
(157,-33,o),
(157,-96,cs),
(157,-149,o),
(190,-203,o),
(257,-203,c),
(257,-142,l),
(233,-142,o),
(218,-124,o),
(218,-95,cs),
(218,-51,o),
(249,-2,o),
(509,500,c)
);
}
);
width = 514;
},
{
associatedMasterId = UUID0;
layerId = "F3409871-9FFE-4FE6-A643-199C738EB81F";
name = "Jun 8 20, 18:35";
shapes = (
{
closed = 1;
nodes = (
(443,500,l),
(365,352,o),
(308,244,o),
(266,164,c),
(89,500,l),
(5,500,l),
(112,296,o),
(181,167,o),
(225,84,c),
(174,-15,o),
(159,-55,o),
(159,-90,cs),
(159,-158,o),
(201,-203,o),
(266,-203,cs),
(331,-203,o),
(373,-158,o),
(373,-90,cs),
(373,-55,o),
(358,-15,o),
(307,84,c),
(351,167,o),
(420,296,o),
(527,500,c)
);
},
{
closed = 1;
nodes = (
(300,-118,o),
(290,-130,o),
(266,-130,cs),
(242,-130,o),
(232,-118,o),
(232,-89,cs),
(232,-70,o),
(238,-52,o),
(266,4,c),
(294,-52,o),
(300,-70,o),
(300,-89,cs)
);
}
);
width = 532;
}
);
metricLeft = v;
metricRight = v;
unicode = 611;
}
{
glyphname = ramshorn;
layers = (
{
anchors = (
{
name = bottom;
pos = (276,0);
},
{
name = ogonek;
pos = (322,0);
},
{
name = top;
pos = (278,500);
}
);
layerId = UUID0;
shapes = (
{
closed = 1;
nodes = (
(135,229,o),
(115,188,o),
(115,134,cs),
(115,52,o),
(182,-6,o),
(276,-6,c),
(276,67,l),
(223,67,o),
(188,96,o),
(188,141,cs),
(188,168,o),
(206,199,o),
(253,254,cs),
(321,333,ls),
(383,406,o),
(417,434,o),
(443,434,cs),
(475,434,o),
(485,409,o),
(496,375,c),
(552,400,l),
(537,479,o),
(494,508,o),
(444,508,cs),
(395,508,o),
(343,471,o),
(258,372,cs),
(194,298,ls)
);
},
{
closed = 1;
nodes = (
(294,372,ls),
(209,471,o),
(157,508,o),
(108,508,cs),
(58,508,o),
(15,479,o),
(0,400,c),
(56,375,l),
(67,409,o),
(77,434,o),
(109,434,cs),
(135,434,o),
(169,406,o),
(231,333,cs),
(299,254,ls),
(346,199,o),
(364,168,o),
(364,141,cs),
(364,96,o),
(329,67,o),
(276,67,c),
(276,-6,l),
(370,-6,o),
(437,52,o),
(437,134,cs),
(437,188,o),
(417,229,o),
(358,298,cs)
);
}
);
width = 552;
}
);
unicode = 612;
}
{
glyphname = hhook;
kernLeft = h;
kernRight = n;
layers = (
{
anchors = (
{
name = bottom;
pos = (283,0);
},
{
name = center;
pos = (112,574);
},
{
name = top;
pos = (102,700);
}
);
hints = (
{
place = (65,75);
type = Stem;
},
{
place = (431,75);
type = Stem;
},
{
horizontal = 1;
place = (0,21);
target = up;
type = BottomGhost;
},
{
horizontal = 1;
place = (440,68);
type = Stem;
}
);
layerId = UUID0;
shapes = (
{
closed = 1;
nodes = (
(225,508,o),
(176,470,o),
(140,422,c),
(140,564,ls),
(140,597,o),
(144,641,o),
(216,641,cs),
(224,641,o),
(231,640,o),
(240,638,c),
(240,706,l),
(229,707,o),
(220,708,o),
(210,708,cs),
(85,708,o),
(65,629,o),
(65,564,cs),
(65,0,l),
(140,0,l),
(140,288,ls),
(140,378,o),
(208,440,o),
(291,440,cs),
(373,440,o),
(431,380,o),
(431,289,cs),
(431,0,l),
(506,0,l),
(506,291,ls),
(506,433,o),
(409,508,o),
(306,508,cs)
);
}
);
width = 566;
}
);
unicode = 614;
}
{
glyphname = istroke;
kernLeft = i;
kernRight = i;
layers = (
{
anchors = (
{
name = _center;
pos = (271.5,306);
},
{
name = bottom;
pos = (103,0);
}
);
layerId = UUID0;
shapes = (
{
closed = 1;
nodes = (
(143,584,l),
(143,682,l),
(62,682,l),
(62,584,l)
);
},
{
ref = istroke.dotless;
}
);
width = 205;
}
);
unicode = 616;
}
{
glyphname = "iota-latin";
kernLeft = i;
kernRight = i;
layers = (
{
anchors = (
{
name = bottom;
pos = (103,0);
},
{
name = top;
pos = (103,500);
}
);
hints = (
{
place = (65, 75);
place = (65, 75);
type = Stem;
},
{
horizontal = 1;
place = (0, 21);
target = up;
type = BottomGhost;
}
);
layerId = UUID0;
shapes = (
{
closed = 1;
nodes = (
(180,60,o),
(140,97,o),
(140,191,cs),
(140,500,l),
(65,500,l),
(65,169,ls),
(63,55,o),
(136,-8,o),
(239,-8,cs),
(256,-8,o),
(275,-7,o),
(294,-3,c),
(294,64,l),
(278,61,o),
(263,60,o),
(248,60,cs)
);
}
);
width = 304;
}
);
unicode = 617;
}
{
glyphname = Ismall;
kernLeft = i;
kernRight = i;
layers = (
{
layerId = UUID0;
shapes = (
{
closed = 1;
nodes = (
(267,434,l),
(267,500,l),
(62,500,l),
(62,434,l)
);
},
{
closed = 1;
nodes = (
(267,0,l),
(267,66,l),
(62,66,l),
(62,0,l)
);
},
{
pos = (62,0);
ref = idotless;
}
);
width = 329;
}
);
metricLeft = i;
metricRight = i;
unicode = 618;
}
{
glyphname = lbelt;
kernLeft = l;
kernRight = l;
layers = (
{
layerId = UUID0;
shapes = (
{
closed = 1;
nodes = (
(194,423,o),
(156,477,o),
(90,477,cs),
(40,477,o),
(6,440,o),
(6,391,cs),
(6,338,o),
(46,298,o),
(137,298,cs),
(290,298,l),
(290,363,l),
(199,363,l)
);
},
{
closed = 1;
nodes = (
(89,363,o),
(70,377,o),
(70,397,cs),
(70,415,o),
(81,427,o),
(102,427,cs),
(132,427,o),
(149,402,o),
(149,367,c),
(162,363,l),
(126,363,ls)
);
},
{
pos = (83,0);
ref = l;
}
);
width = 288;
}
);
unicode = 620;
}
{
glyphname = nhookleft;
kernLeft = nhookleft;
kernRight = n;
layers = (
{
anchors = (
{
name = _bottom;
pos = (380,-79);
},
{
name = bottom;
pos = (283,-198);
},
{
name = top;
pos = (283,500);
}
);
layerId = UUID0;
shapes = (
{
closed = 1;
nodes = (
(120,-206,o),
(140,-127,o),
(140,-62,cs),
(140,119,l),
(65,119,l),
(65,-62,ls),
(65,-95,o),
(61,-139,o),
(-11,-139,cs),
(-19,-139,o),
(-26,-138,o),
(-35,-136,c),
(-35,-204,l),
(-24,-205,o),
(-15,-206,o),
(-5,-206,cs)
);
},
{
ref = n;
}
);
width = 566;
}
);
unicode = 626;
}
{
glyphname = obarred;
kernLeft = o;
kernRight = o;
layers = (
{
layerId = UUID0;
shapes = (
{
closed = 1;
nodes = (
(464,218,l),
(464,283,l),
(97,283,l),
(97,218,l)
);
},
{
ref = o;
}
);
width = 564;
}
);
unicode = 629;
}
{
glyphname = rtail;
kernLeft = n;
kernRight = r;
layers = (
{
anchors = (
{
name = _bottom;
pos = (-175,-79);
}
);
layerId = UUID0;
shapes = (
{
closed = 1;
nodes = (
(220,-206,o),
(229,-205,o),
(240,-204,c),
(240,-136,l),
(231,-138,o),
(224,-139,o),
(216,-139,cs),
(144,-139,o),
(140,-95,o),
(140,-62,cs),
(140,119,l),
(65,119,l),
(65,-62,ls),
(65,-127,o),
(85,-206,o),
(210,-206,cs)
);
},
{
ref = r;
}
);
width = 345;
}
);
metricLeft = r;
metricRight = r;
unicode = 637;
}
{
color = 3;
glyphname = rfishhook;
kernLeft = r;
kernRight = r;
layers = (
{
anchors = (
{
name = bottom;
pos = (103,0);
},
{
name = top;
pos = (173,500);
}
);
hints = (
{
place = (65,75);
type = Stem;
},
{
horizontal = 1;
place = (0,21);
target = up;
type = BottomGhost;
},
{
horizontal = 1;
place = (433,75);
type = Stem;
},
{
horizontal = 1;
place = (500,-20);
target = down;
type = TopGhost;
}
);
layerId = UUID0;
shapes = (
{
closed = 1;
nodes = (
(140,0,l),
(140,310,ls),
(140,374,o),
(193,433,o),
(280,433,cs),
(289,433,l),
(289,508,l),
(284,508,ls),
(179,508,o),
(65,441,o),
(65,310,cs),
(65,0,l)
);
}
);
width = 305;
}
);
metricLeft = r;
metricRight = r;
unicode = 638;
}
{
glyphname = Rsmall;
layers = (
{
anchors = (
{
name = bottom;
pos = (243,0);
},
{
name = ogonek;
pos = (463,0);
},
{
name = top;
pos = (225,500);
}
);
background = {
shapes = (
{
pos = (6,0);
ref = z;
}
);
};
layerId = UUID0;
shapes = (
{
closed = 1;
nodes = (
(140,0,l),
(140,187,l),
(249,187,l),
(366,0,l),
(456,0,l),
(327,199,l),
(401,218,o),
(440,266,o),
(440,341,cs),
(440,437,o),
(373,500,o),
(270,500,cs),
(65,500,l),
(65,0,l)
);
},
{
closed = 1;
nodes = (
(140,431,l),
(263,431,ls),
(326,431,o),
(367,394,o),
(367,339,cs),
(367,284,o),
(326,251,o),
(260,252,cs),
(140,253,l)
);
}
);
width = 483;
}
);
unicode = 640;
}
{
glyphname = esh;
kernLeft = f;
kernRight = f;
layers = (
{
layerId = UUID0;
shapes = (
{
closed = 1;
nodes = (
(169,708,o),
(99,653,o),
(99,544,cs),
(99,-28,ls),
(99,-97,o),
(63,-127,o),
(-7,-127,cs),
(-17,-127,l),
(-17,-198,l),
(-11,-198,ls),
(104,-198,o),
(174,-143,o),
(174,-34,cs),
(174,538,ls),
(174,607,o),
(210,637,o),
(280,637,cs),
(290,637,l),
(290,708,l),
(284,708,ls)
);
}
);
width = 307;
}
);
metricRight = f;
unicode = 643;
}
{
glyphname = tretroflexhook;
kernLeft = t;
kernRight = t;
layers = (
{
anchors = (
{
name = _bottom;
pos = (-121,-79);
}
);
layerId = UUID0;
shapes = (
{
closed = 1;
nodes = (
(274,-206,o),
(283,-205,o),
(294,-204,c),
(294,-136,l),
(285,-138,o),
(278,-139,o),
(270,-139,cs),
(198,-139,o),
(194,-95,o),
(194,-62,cs),
(194,119,l),
(119,119,l),
(119,-62,ls),
(119,-127,o),
(139,-206,o),
(264,-206,cs)
);
},
{
ref = t;
}
);
width = 326;
}
);
unicode = 648;
}
{
glyphname = ubar;
kernLeft = u;
kernRight = a;
layers = (
{
layerId = UUID0;
shapes = (
{
closed = 1;
nodes = (
(-25,347,l),
(-25,282,l),
(586,282,l),
(586,347,l)
);
},
{
ref = u;
}
);
width = 566;
}
);
unicode = 649;
}
{
color = 3;
glyphname = "upsilon-latin";
layers = (
{
anchors = (
{
name = bottom;
pos = (280,0);
},
{
name = top;
pos = (280,500);
}
);
layerId = UUID0;
shapes = (
{
closed = 1;
nodes = (
(497,434,l),
(497,498,l),
(323,498,l),
(323,403,l),
(401,390,o),
(445,316,o),
(445,234,cs),
(445,143,o),
(394,59,o),
(280,59,cs),
(166,59,o),
(115,143,o),
(115,234,cs),
(115,316,o),
(160,390,o),
(237,403,c),
(237,498,l),
(63,498,l),
(63,434,l),
(174,434,l),
(82,406,o),
(40,322,o),
(40,231,cs),
(40,106,o),
(114,-6,o),
(280,-6,cs),
(447,-6,o),
(520,106,o),
(520,231,cs),
(520,322,o),
(478,406,o),
(386,434,c)
);
}
);
width = 560;
},
{
associatedMasterId = UUID0;
layerId = "6B42D8B1-C4DA-4F99-9BD6-809178FB3551";
name = "Jun 8 20, 19:11";
shapes = (
{
closed = 1;
nodes = (
(386,434,l),
(497,434,l),
(497,498,l),
(323,498,l),
(323,360,l),
(401,346,o),
(445,290,o),
(445,214,cs),
(445,133,o),
(394,59,o),
(280,59,cs),
(166,59,o),
(115,133,o),
(115,214,cs),
(115,290,o),
(160,346,o),
(237,360,c),
(237,498,l),
(63,498,l),
(63,434,l),
(174,434,l),
(174,401,l),
(82,374,o),
(40,297,o),
(40,211,cs),
(40,97,o),
(114,-6,o),
(280,-6,cs),
(447,-6,o),
(520,97,o),
(520,211,cs),
(520,297,o),
(478,374,o),
(386,401,c)
);
}
);
width = 560;
}
);
unicode = 650;
}
{
glyphname = vhook;
kernLeft = n;
kernRight = o;
layers = (
{
anchors = (
{
name = bottom;
pos = (249,0);
},
{
name = top;
pos = (249,500);
}
);
layerId = UUID0;
shapes = (
{
closed = 1;
nodes = (
(318,435,l),
(328,438,o),
(341,440,o),
(355,440,cs),
(408,440,o),
(429,402,o),
(429,323,cs),
(429,211,o),
(368,58,o),
(241,58,cs),
(167,58,o),
(140,86,o),
(140,166,cs),
(140,500,l),
(65,500,l),
(65,153,ls),
(65,44,o),
(120,-10,o),
(238,-10,cs),
(386,-10,o),
(504,141,o),
(504,328,cs),
(504,443,o),
(459,508,o),
(370,508,cs),
(354,508,o),
(337,506,o),
(318,503,c)
);
}
);
width = 538;
}
);
metricLeft = n;
metricRight = o;
unicode = 651;
}
{
color = 3;
glyphname = ezh;
kernLeft = ezh;
kernRight = ezh;
layers = (
{
anchors = (
{
name = bottom;
pos = (235,-198);
},
{
name = top;
pos = (235,500);
}
);
background = {
shapes = (
{
closed = 1;
nodes = (
(394,439,l),
(394,500,l),
(54,500,l),
(54,434,l),
(298,434,l),
(164,228,l),
(164,162,l),
(232,162,ls),
(323,162,o),
(370,95,o),
(370,14,cs),
(370,-89,o),
(319,-138,o),
(220,-138,cs),
(156,-138,o),
(99,-96,o),
(95,-45,c),
(20,-45,l),
(24,-135,o),
(114,-206,o),
(220,-206,cs),
(362,-206,o),
(445,-126,o),
(445,14,cs),
(445,134,o),
(375,216,o),
(251,226,c)
);
}
);
};
hints = (
{
place = (323.571, 56.833);
place = (323.571, 56.833);
type = Stem;
},
{
place = (306.9, 56.833);
place = (306.9, 56.833);
type = Stem;
},
{
horizontal = 1;
place = (-6.062, 55.318);
place = (-6.062, 55.318);
type = Stem;
},
{
horizontal = 1;
place = (237.942, 52.287);
place = (237.942, 52.287);
type = Stem;
},
{
horizontal = 1;
place = (452.394, 55.318);
place = (452.394, 55.318);
type = Stem;
}
);
layerId = UUID0;
shapes = (
{
closed = 1;
nodes = (
(251,226,l),
(404,439,l),
(404,500,l),
(64,500,l),
(64,434,l),
(308,434,l),
(164,228,l),
(163,167,l)
);
},
{
closed = 1;
nodes = (
(218,167,ls),
(310,167,o),
(376,109,o),
(376,20,cs),
(376,-69,o),
(323,-133,o),
(235,-133,cs),
(179,-133,o),
(123,-100,o),
(103,-45,c),
(24,-45,l),
(50,-143,o),
(140,-206,o),
(235,-206,cs),
(364,-206,o),
(451,-109,o),
(451,20,cs),
(451,150,o),
(355,236,o),
(220,234,c),
(163,167,l)
);
}
);
width = 499;
},
{
anchors = (
{
name = bottom;
pos = (237,0);
},
{
name = top;
pos = (237,502);
}
);
associatedMasterId = UUID0;
background = {
shapes = (
{
closed = 1;
nodes = (
(367,-198,o),
(444,-110,o),
(444,44,cs),
(444,190,o),
(375,269,o),
(246,269,cs),
(183,269,l),
(183,196,l),
(253,196,ls),
(329,196,o),
(365,147,o),
(365,44,cs),
(365,-69,o),
(322,-122,o),
(231,-122,cs),
(173,-122,o),
(121,-82,o),
(118,-33,c),
(39,-33,l),
(42,-125,o),
(128,-198,o),
(231,-198,cs)
);
},
{
closed = 1;
nodes = (
(183,196,l),
(225,196,l),
(417,431,l),
(417,501,l),
(73,501,l),
(73,425,l),
(408,425,l),
(347,465,l),
(183,263,l)
);
}
);
};
hints = (
{
place = (323.571, 56.833);
place = (323.571, 56.833);
type = Stem;
},
{
place = (306.9, 56.833);
place = (306.9, 56.833);
type = Stem;
},
{
horizontal = 1;
place = (-6.062, 55.318);
place = (-6.062, 55.318);
type = Stem;
},
{
horizontal = 1;
place = (237.942, 52.287);
place = (237.942, 52.287);
type = Stem;
},
{
horizontal = 1;
place = (452.394, 55.318);
place = (452.394, 55.318);
type = Stem;
}
);
layerId = "7F99ACE1-D2F8-4EB2-99E4-D177F2640EE1";
name = "May 20 20, 14:04";
shapes = (
{
closed = 1;
nodes = (
(366,-206,o),
(442,-119,o),
(442,34,cs),
(442,185,o),
(374,267,o),
(246,267,cs),
(185,267,l),
(185,202,l),
(253,202,ls),
(330,202,o),
(367,145,o),
(367,34,cs),
(367,-83,o),
(323,-138,o),
(231,-138,cs),
(172,-138,o),
(120,-96,o),
(116,-45,c),
(41,-45,l),
(45,-135,o),
(130,-206,o),
(231,-206,cs)
);
},
{
closed = 1;
nodes = (
(185,202,l),
(220,202,l),
(415,439,l),
(415,500,l),
(75,500,l),
(75,434,l),
(401,434,l),
(347,469,l),
(185,268,l)
);
}
);
width = 490;
},
{
anchors = (
{
name = bottom;
pos = (235,0);
},
{
name = top;
pos = (235,500);
}
);
associatedMasterId = UUID0;
background = {
shapes = (
{
closed = 1;
nodes = (
(348,-198,o),
(425,-110,o),
(425,44,cs),
(425,190,o),
(356,269,o),
(227,269,cs),
(164,269,l),
(164,196,l),
(234,196,ls),
(310,196,o),
(346,147,o),
(346,44,cs),
(346,-69,o),
(303,-122,o),
(212,-122,cs),
(154,-122,o),
(102,-82,o),
(99,-33,c),
(20,-33,l),
(23,-125,o),
(109,-198,o),
(212,-198,cs)
);
},
{
closed = 1;
nodes = (
(164,196,l),
(206,196,l),
(398,431,l),
(398,501,l),
(54,501,l),
(54,425,l),
(389,425,l),
(328,465,l),
(164,263,l)
);
}
);
};
hints = (
{
place = (323.571, 56.833);
place = (323.571, 56.833);
type = Stem;
},
{
place = (306.9, 56.833);
place = (306.9, 56.833);
type = Stem;
},
{
horizontal = 1;
place = (-6.062, 55.318);
place = (-6.062, 55.318);
type = Stem;
},
{
horizontal = 1;
place = (237.942, 52.287);
place = (237.942, 52.287);
type = Stem;
},
{
horizontal = 1;
place = (452.394, 55.318);
place = (452.394, 55.318);
type = Stem;
}
);
layerId = "88A1EF10-D917-49BD-BD22-5FD3D3437F56";
name = "Jun 8 20, 18:51";
shapes = (
{
closed = 1;
nodes = (
(394,439,l),
(394,500,l),
(54,500,l),
(54,434,l),
(298,434,l),
(164,268,l),
(164,202,l),
(232,202,ls),
(309,202,o),
(346,145,o),
(346,34,cs),
(346,-83,o),
(302,-138,o),
(210,-138,cs),
(151,-138,o),
(99,-96,o),
(95,-45,c),
(20,-45,l),
(24,-135,o),
(109,-206,o),
(210,-206,cs),
(345,-206,o),
(421,-119,o),
(421,34,cs),
(421,174,o),
(362,255,o),
(251,266,c)
);
}
);
visible = 1;
width = 469;
}
);
metricRight = three;
unicode = 658;
}
{
glyphname = glottalstop;
kernLeft = question;
kernRight = question;
layers = (
{
anchors = (
{
name = bottom;
pos = (262,0);
},
{
name = top;
pos = (262,700);
}
);
layerId = UUID0;
shapes = (
{
closed = 1;
nodes = (
(128,708,o),
(45,614,o),
(39,504,c),
(110,504,l),
(116,574,o),
(168,639,o),
(266,639,cs),
(364,639,o),
(394,577,o),
(394,527,cs),
(394,412,o),
(227,394,o),
(227,241,cs),
(227,0,l),
(300,0,l),
(300,241,ls),
(300,373,o),
(465,381,o),
(465,527,cs),
(465,617,o),
(404,708,o),
(260,708,cs)
);
}
);
width = 510;
}
);
unicode = 660;
}
{
color = 3;
glyphname = jcrossedtail;
kernLeft = j;
kernRight = j;
layers = (
{
background = {
shapes = (
{
closed = 1;
nodes = (
(-557,-28,l),
(-432,-28,o),
(-356,-58,o),
(-356,-157,c),
(-307,-157,l),
(-307,-39,o),
(-385,27,o),
(-557,27,c)
);
}
);
};
hints = (
{
place = (65, 75);
place = (65, 75);
type = Stem;
},
{
place = (62, 81);
place = (62, 81);
type = Stem;
},
{
horizontal = 1;
place = (-198, 21);
target = up;
type = BottomGhost;
},
{
horizontal = 1;
place = (500, -20);
target = down;
type = TopGhost;
},
{
horizontal = 1;
place = (584, 98);
place = (584, 98);
type = Stem;
}
);
layerId = UUID0;
shapes = (
{
closed = 1;
nodes = (
(163,682,l),
(163,584,l),
(244,584,l),
(244,682,l)
);
},
{
closed = 1;
nodes = (
(224,-37,l),
(259,-50,o),
(286,-67,o),
(309,-86,c),
(309,-19,l),
(286,0,o),
(259,15,o),
(224,26,c)
);
},
{
closed = 1;
nodes = (
(241,500,l),
(166,500,l),
(166,-34,ls),
(166,-76,o),
(156,-133,o),
(91,-133,cs),
(57,-133,o),
(35,-106,o),
(35,-77,cs),
(35,-43,o),
(62,-17,o),
(103,-17,cs),
(136,-17,o),
(157,-20,o),
(179,-26,c),
(174,37,l),
(163,39,o),
(139,42,o),
(103,43,cs),
(10,43,o),
(-40,-10,o),
(-40,-77,cs),
(-40,-154,o),
(15,-206,o),
(89,-206,cs),
(206,-206,o),
(244,-118,o),
(241,-24,c)
);
}
);
width = 306;
},
{
associatedMasterId = UUID0;
hints = (
{
place = (65, 75);
place = (65, 75);
type = Stem;
},
{
place = (62, 81);
place = (62, 81);
type = Stem;
},
{
horizontal = 1;
place = (-198, 21);
target = up;
type = BottomGhost;
},
{
horizontal = 1;
place = (500, -20);
target = down;
type = TopGhost;
},
{
horizontal = 1;
place = (584, 98);
place = (584, 98);
type = Stem;
}
);
layerId = "CABEF896-B91B-424C-9145-E693B9A1CD9F";
name = "May 27 20, 10:30";
shapes = (
{
closed = 1;
nodes = (
(-119,-59,l),
(-119,-6,o),
(-82,35,o),
(8,35,c),
(8,100,l),
(-127,100,o),
(-196,36,o),
(-196,-59,c)
);
},
{
closed = 1;
nodes = (
(65,26,l),
(65,-42,o),
(43,-131,o),
(-42,-131,cs),
(-91,-131,o),
(-119,-92,o),
(-119,-59,c),
(-196,-59,l),
(-196,-130,o),
(-144,-204,o),
(-46,-204,cs),
(91,-204,o),
(140,-93,o),
(140,23,c)
);
},
{
closed = 1;
nodes = (
(8,100,l),
(8,35,l),
(216,35,l),
(216,100,l)
);
},
{
closed = 1;
nodes = (
(140,23,l),
(140,500,l),
(65,500,l),
(65,26,l)
);
},
{
closed = 1;
nodes = (
(143,584,l),
(143,682,l),
(62,682,l),
(62,584,l)
);
}
);
width = 205;
},
{
associatedMasterId = UUID0;
background = {
shapes = (
{
closed = 1;
nodes = (
(-658,-28,l),
(-533,-28,o),
(-457,-58,o),
(-457,-157,c),
(-408,-157,l),
(-408,-39,o),
(-486,27,o),
(-658,27,c)
);
}
);
};
hints = (
{
place = (65, 75);
place = (65, 75);
type = Stem;
},
{
place = (62, 81);
place = (62, 81);
type = Stem;
},
{
horizontal = 1;
place = (-198, 21);
target = up;
type = BottomGhost;
},
{
horizontal = 1;
place = (500, -20);
target = down;
type = TopGhost;
},
{
horizontal = 1;
place = (584, 98);
place = (584, 98);
type = Stem;
}
);
layerId = "2F04B9C1-C360-4C68-A2F4-ED6BFDA693FF";
name = "May 31 20, 17:16";
shapes = (
{
closed = 1;
nodes = (
(-2,18,l),
(8,-47,l),
(216,-47,l),
(216,18,l)
);
},
{
closed = 1;
nodes = (
(140,21,l),
(140,500,l),
(65,500,l),
(65,24,l)
);
},
{
closed = 1;
nodes = (
(143,584,l),
(143,682,l),
(62,682,l),
(62,584,l)
);
},
{
closed = 1;
nodes = (
(65,-44,o),
(47,-133,o),
(-26,-133,cs),
(-55,-133,o),
(-69,-112,o),
(-69,-93,cs),
(-69,-69,o),
(-52,-47,o),
(-16,-47,cs),
(25,-47,l),
(-2,18,l),
(-111,18,o),
(-146,-30,o),
(-146,-93,cs),
(-146,-152,o),
(-104,-206,o),
(-26,-206,cs),
(96,-206,o),
(140,-95,o),
(140,21,c),
(65,24,l)
);
}
);
width = 205;
},
{
associatedMasterId = UUID0;
background = {
shapes = (
{
closed = 1;
nodes = (
(-658,-28,l),
(-533,-28,o),
(-457,-58,o),
(-457,-157,c),
(-408,-157,l),
(-408,-39,o),
(-486,27,o),
(-658,27,c)
);
}
);
};
hints = (
{
place = (65, 75);
place = (65, 75);
type = Stem;
},
{
place = (62, 81);
place = (62, 81);
type = Stem;
},
{
horizontal = 1;
place = (-198, 21);
target = up;
type = BottomGhost;
},
{
horizontal = 1;
place = (500, -20);
target = down;
type = TopGhost;
},
{
horizontal = 1;
place = (584, 98);
place = (584, 98);
type = Stem;
}
);
layerId = "0CBBABC0-496B-4973-ADE8-62E26FA76229";
name = "May 31 20, 17:17";
shapes = (
{
closed = 1;
nodes = (
(140,21,l),
(140,500,l),
(65,500,l),
(65,24,l)
);
},
{
closed = 1;
nodes = (
(143,584,l),
(143,682,l),
(62,682,l),
(62,584,l)
);
},
{
closed = 1;
nodes = (
(65,-44,o),
(47,-133,o),
(-26,-133,cs),
(-55,-133,o),
(-69,-112,o),
(-69,-93,cs),
(-69,-69,o),
(-52,-47,o),
(-16,-47,cs),
(8,-47,l),
(-2,18,l),
(-111,18,o),
(-146,-30,o),
(-146,-93,cs),
(-146,-152,o),
(-104,-206,o),
(-26,-206,cs),
(96,-206,o),
(140,-95,o),
(140,21,c),
(65,24,l)
);
},
{
closed = 1;
nodes = (
(8,-47,l),
(157,-47,o),
(247,-83,o),
(247,-201,c),
(305,-201,l),
(305,-61,o),
(213,18,o),
(8,18,c)
);
}
);
width = 205;
},
{
associatedMasterId = UUID0;
background = {
shapes = (
{
closed = 1;
nodes = (
(-658,-28,l),
(-533,-28,o),
(-457,-58,o),
(-457,-157,c),
(-408,-157,l),
(-408,-39,o),
(-486,27,o),
(-658,27,c)
);
}
);
};
hints = (
{
place = (65, 75);
place = (65, 75);
type = Stem;
},
{
place = (62, 81);
place = (62, 81);
type = Stem;
},
{
horizontal = 1;
place = (-198, 21);
target = up;
type = BottomGhost;
},
{
horizontal = 1;
place = (500, -20);
target = down;
type = TopGhost;
},
{
horizontal = 1;
place = (584, 98);
place = (584, 98);
type = Stem;
}
);
layerId = "5B9E6D65-E172-4B48-8259-3AE8C00669EC";
name = "May 31 20, 17:24";
shapes = (
{
closed = 1;
nodes = (
(65,274,l),
(65,24,l),
(140,21,l),
(140,274,l)
);
},
{
closed = 1;
nodes = (
(143,584,l),
(143,682,l),
(62,682,l),
(62,584,l)
);
},
{
closed = 1;
nodes = (
(65,-44,o),
(47,-133,o),
(-26,-133,cs),
(-55,-133,o),
(-69,-112,o),
(-69,-93,cs),
(-69,-69,o),
(-52,-47,o),
(-16,-47,cs),
(8,-47,l),
(-2,18,l),
(-111,18,o),
(-146,-30,o),
(-146,-93,cs),
(-146,-152,o),
(-104,-206,o),
(-26,-206,cs),
(96,-206,o),
(140,-95,o),
(140,21,c),
(65,24,l)
);
},
{
closed = 1;
nodes = (
(-2,-47,l),
(128,-47,o),
(207,-83,o),
(207,-201,c),
(265,-201,l),
(265,-61,o),
(182,18,o),
(-2,18,c)
);
},
{
closed = 1;
nodes = (
(140,274,l),
(140,500,l),
(65,500,l),
(65,274,l)
);
}
);
width = 205;
},
{
associatedMasterId = UUID0;
background = {
shapes = (
{
closed = 1;
nodes = (
(-638,-28,l),
(-513,-28,o),
(-437,-58,o),
(-437,-157,c),
(-388,-157,l),
(-388,-39,o),
(-466,27,o),
(-638,27,c)
);
}
);
};
hints = (
{
place = (65, 75);
place = (65, 75);
type = Stem;
},
{
place = (62, 81);
place = (62, 81);
type = Stem;
},
{
horizontal = 1;
place = (-198, 21);
target = up;
type = BottomGhost;
},
{
horizontal = 1;
place = (500, -20);
target = down;
type = TopGhost;
},
{
horizontal = 1;
place = (584, 98);
place = (584, 98);
type = Stem;
}
);
layerId = "47E84FC7-D6B1-4FC9-9595-A26F1712E406";
name = "Jun 8 20, 18:39";
shapes = (
{
closed = 1;
nodes = (
(82,682,l),
(82,584,l),
(163,584,l),
(163,682,l)
);
},
{
closed = 1;
nodes = (
(209,-3,o),
(187,10,o),
(160,20,c),
(160,500,l),
(85,500,l),
(85,38,l),
(69,40,o),
(42,42,o),
(12,43,c),
(12,43,l),
(-88,43,o),
(-141,-10,o),
(-141,-77,cs),
(-141,-154,o),
(-82,-206,o),
(-2,-206,cs),
(114,-206,o),
(157,-130,o),
(160,-44,c),
(187,-56,o),
(209,-70,o),
(228,-86,c),
(228,-19,l)
);
},
{
closed = 1;
nodes = (
(85,-76,o),
(74,-133,o),
(0,-133,cs),
(-40,-133,o),
(-66,-106,o),
(-66,-77,cs),
(-66,-43,o),
(-35,-17,o),
(12,-17,cs),
(39,-17,o),
(63,-19,o),
(85,-23,c),
(85,-34,ls)
);
}
);
width = 225;
},
{
associatedMasterId = UUID0;
background = {
shapes = (
{
closed = 1;
nodes = (
(-638,-28,l),
(-513,-28,o),
(-437,-58,o),
(-437,-157,c),
(-388,-157,l),
(-388,-39,o),
(-466,27,o),
(-638,27,c)
);
}
);
};
hints = (
{
place = (65, 75);
place = (65, 75);
type = Stem;
},
{
place = (62, 81);
place = (62, 81);
type = Stem;
},
{
horizontal = 1;
place = (-198, 21);
target = up;
type = BottomGhost;
},
{
horizontal = 1;
place = (500, -20);
target = down;
type = TopGhost;
},
{
horizontal = 1;
place = (584, 98);
place = (584, 98);
type = Stem;
}
);
layerId = "69774128-5E53-4B98-8C96-0D1E8490D691";
name = "Jun 8 20, 18:40";
shapes = (
{
closed = 1;
nodes = (
(82,682,l),
(82,584,l),
(163,584,l),
(163,682,l)
);
},
{
closed = 1;
nodes = (
(143,-37,l),
(178,-50,o),
(205,-67,o),
(228,-86,c),
(228,-19,l),
(205,0,o),
(178,15,o),
(143,26,c)
);
},
{
closed = 1;
nodes = (
(160,500,l),
(85,500,l),
(85,-34,ls),
(85,-76,o),
(74,-133,o),
(0,-133,cs),
(-40,-133,o),
(-66,-106,o),
(-66,-77,cs),
(-66,-43,o),
(-35,-17,o),
(12,-17,cs),
(45,-17,o),
(73,-20,o),
(98,-26,c),
(93,37,l),
(80,39,o),
(48,42,o),
(12,43,cs),
(-88,43,o),
(-141,-10,o),
(-141,-77,cs),
(-141,-154,o),
(-82,-206,o),
(-2,-206,cs),
(123,-206,o),
(163,-118,o),
(160,-24,c)
);
}
);
width = 225;
}
);
unicode = 669;
}
{
glyphname = primemod;
layers = (
{
layerId = UUID0;
shapes = (
{
closed = 1;
nodes = (
(124,764,l),
(40,475,l),
(108,475,l),
(222,764,l)
);
}
);
width = 262;
}
);
unicode = 697;
}
{
glyphname = doubleprimemod;
layers = (
{
hints = (
{
place = (40, 306);
place = (40, 306);
type = Stem;
},
{
horizontal = 1;
place = (475, 213);
place = (475, 213);
type = Stem;
},
{
place = (190, 156);
place = (190, 156);
type = Stem;
},
{
horizontal = 1;
place = (475, 213);
place = (475, 213);
type = Stem;
},
{
place = (346, -156);
place = (346, -156);
type = Stem;
},
{
horizontal = 1;
place = (688, -213);
place = (688, -213);
type = Stem;
},
{
place = (40, 156);
place = (40, 156);
type = Stem;
},
{
horizontal = 1;
place = (475, 213);
place = (475, 213);
type = Stem;
},
{
place = (196, -156);
place = (196, -156);
type = Stem;
},
{
horizontal = 1;
place = (688, -213);
place = (688, -213);
type = Stem;
}
);
layerId = UUID0;
shapes = (
{
closed = 1;
nodes = (
(124,764,l),
(40,475,l),
(108,475,l),
(222,764,l)
);
},
{
closed = 1;
nodes = (
(274,764,l),
(190,475,l),
(258,475,l),
(372,764,l)
);
}
);
width = 412;
}
);
unicode = 698;
}
{
glyphname = apostrophemod;
layers = (
{
hints = (
{
place = (40, 156);
place = (40, 156);
type = Stem;
},
{
horizontal = 1;
place = (475, 213);
place = (475, 213);
type = Stem;
},
{
place = (196, -156);
place = (196, -156);
type = Stem;
},
{
horizontal = 1;
place = (688, -213);
place = (688, -213);
type = Stem;
}
);
layerId = UUID0;
shapes = (
{
closed = 1;
nodes = (
(108,688,l),
(108,646,ls),
(108,580,o),
(91,537,o),
(40,475,c),
(108,475,l),
(172,534,o),
(196,585,o),
(196,662,cs),
(196,688,l)
);
}
);
width = 211;
}
);
unicode = 700;
}
{
glyphname = ringhalfleft;
layers = (
{
layerId = UUID0;
shapes = (
{
closed = 1;
nodes = (
(178,486,l),
(131,486,o),
(107,522,o),
(107,563,cs),
(107,604,o),
(131,640,o),
(178,640,c),
(178,700,l),
(97,700,o),
(44,641,o),
(44,563,cs),
(44,485,o),
(97,426,o),
(178,426,c)
);
}
);
width = 222;
}
);
unicode = 703;
}
{
color = 3;
glyphname = glottalstopmod;
layers = (
{
anchors = (
{
name = bottom;
pos = (177,290);
},
{
name = top;
pos = (175,700);
}
);
layerId = UUID0;
shapes = (
{
closed = 1;
nodes = (
(204,405,l),
(204,491,o),
(311,496,o),
(311,591,cs),
(311,649,o),
(269,708,o),
(175,708,cs),
(90,708,o),
(35,647,o),
(35,576,c),
(90,576,l),
(90,616,o),
(122,654,o),
(179,654,cs),
(235,654,o),
(256,619,o),
(256,591,cs),
(256,516,o),
(149,504,o),
(149,405,c)
);
},
{
closed = 1;
nodes = (
(149,290,l),
(204,290,l),
(204,405,l),
(149,405,l)
);
}
);
width = 351;
}
);
unicode = 704;
}
{
glyphname = circumflex;
layers = (
{
hints = (
{
place = (49, 282);
place = (49, 282);
type = Stem;
},
{
horizontal = 1;
place = (570, 105);
place = (570, 105);
type = Stem;
}
);
layerId = UUID0;
shapes = (
{
closed = 1;
nodes = (
(131,570,l),
(190,624,l),
(249,570,l),
(331,570,l),
(234,675,l),
(147,675,l),
(49,570,l)
);
}
);
width = 384;
}
);
unicode = 710;
}
{
glyphname = caron;
layers = (
{
hints = (
{
place = (49,282);
type = Stem;
},
{
horizontal = 1;
place = (570,105);
type = Stem;
}
);
layerId = UUID0;
shapes = (
{
closed = 1;
nodes = (
(234,570,l),
(331,675,l),
(249,675,l),
(190,621,l),
(131,675,l),
(49,675,l),
(147,570,l)
);
}
);
width = 381;
}
);
unicode = 711;
}
{
glyphname = verticallinelowmod;
layers = (
{
layerId = UUID0;
shapes = (
{
closed = 1;
nodes = (
(112,-198,l),
(112,50,l),
(44,50,l),
(44,-198,l)
);
}
);
width = 156;
}
);
unicode = 716;
}
{
glyphname = plusmod;
layers = (
{
layerId = UUID0;
shapes = (
{
closed = 1;
nodes = (
(130,138,l),
(130,58,l),
(195,58,l),
(195,138,l),
(275,138,l),
(275,203,l),
(195,203,l),
(195,283,l),
(130,283,l),
(130,203,l),
(50,203,l),
(50,138,l)
);
}
);
width = 325;
}
);
unicode = 726;
}
{
glyphname = minusmod;
layers = (
{
hints = (
{
place = (50, 450);
place = (50, 450);
type = Stem;
},
{
horizontal = 1;
place = (203, 65);
place = (203, 65);
type = Stem;
}
);
layerId = UUID0;
shapes = (
{
closed = 1;
nodes = (
(275,138,l),
(275,203,l),
(50,203,l),
(50,138,l)
);
}
);
width = 325;
}
);
unicode = 727;
}
{
glyphname = breve;
layers = (
{
hints = (
{
place = (320, 24);
place = (320, 24);
type = Stem;
},
{
horizontal = 1;
place = (567, 59);
place = (567, 59);
type = Stem;
}
);
layerId = UUID0;
shapes = (
{
closed = 1;
nodes = (
(291,567,o),
(344,610,o),
(344,662,cs),
(344,673,o),
(342,682,o),
(338,691,c),
(320,691,l),
(316,653,o),
(275,626,o),
(226,626,cs),
(175,626,o),
(135,653,o),
(131,691,c),
(113,691,l),
(110,682,o),
(107,673,o),
(107,662,cs),
(107,610,o),
(160,567,o),
(226,567,cs)
);
}
);
width = 465;
}
);
unicode = 728;
}
{
glyphname = dotaccent;
layers = (
{
hints = (
{
place = (74, 89);
place = (74, 89);
type = Stem;
},
{
horizontal = 1;
place = (579, 83);
place = (579, 83);
type = Stem;
}
);
layerId = UUID0;
shapes = (
{
closed = 1;
nodes = (
(163,579,l),
(163,662,l),
(74,662,l),
(74,579,l)
);
}
);
width = 235;
}
);
unicode = 729;
}
